<svg xmlns="http://www.w3.org/2000/svg" viewBox="-350.5 -406 701 812" width="701" height="812" style="background-color: rgb(255, 255, 255);"><rect id="background" height="812" width="701" y="-406" x="-350.5" stroke-width="0" stroke="#000000" fill="#ffffff"/><text x="183.53632017399568" y="182.07920096801075" z="-0.9945812389610307" font-family="Verdana" font-size="8" fill="rgb(0,0,0)">Axis 1 (41.22 %)</text><text x="-179.26030195361272" y="-189.6138636478916" z="-0.9945812389610307" font-family="Verdana" font-size="8" fill="rgb(0,0,0)">Axis 2 (18.95 %)</text><path d="M183.53632017399568,182.07920096801075L-179.26030195361272,182.07920096801075M-179.26030195361272,-189.6138636478916L-179.26030195361272,182.07920096801075M-179.26030195361272,182.07920096801075L-179.26030195361272,182.07920096801075" style="fill:none;stroke:rgb(0,0,0);stroke-width:3;stroke-linecap:round"/><path d="M-22.760952252240973,167.17835259664835L-25.25221958555583,167.6738965067444L-24.522544392642544,167.6738965067444z" style="fill:rgb(35,16,0)"/><path d="M-22.760952252240973,167.17835259664835L-20.999360111839394,167.6738965067444L-20.269684918926107,167.6738965067444z" style="fill:rgb(38,18,0)"/><path d="M-20.269684918926107,167.6738965067444L-20.999360111839394,167.6738965067444L-18.15769041459943,169.08508611371468z" style="fill:rgb(80,38,1)"/><path d="M-27.36421408988251,178.2916097889978L-25.25221958555583,179.70279939596807L-24.522544392642544,179.70279939596807z" style="fill:rgb(49,23,0)"/><path d="M-24.522544392642544,179.70279939596807L-25.25221958555583,179.70279939596807L-22.760952252240973,180.19834330606412z" style="fill:rgb(8,4,0)"/><path d="M-20.269684918926107,179.70279939596807L-20.999360111839394,179.70279939596807L-22.760952252240973,180.19834330606412z" style="fill:rgb(11,5,0)"/><path d="M-25.25221958555583,167.6738965067444L-27.36421408988251,169.08508611371468L-26.015949929594907,169.08508611371468z" style="fill:rgb(71,34,1)"/><path d="M-18.15769041459943,169.08508611371468L-19.50595457488703,169.08508611371468L-16.746500807629154,171.19708061804138z" style="fill:rgb(107,51,1)"/><path d="M-28.775403696852784,176.1796152846711L-27.36421408988251,178.2916097889978L-26.015949929594907,178.2916097889978z" style="fill:rgb(81,38,1)"/><path d="M-18.15769041459943,178.2916097889978L-19.50595457488703,178.2916097889978L-20.269684918926107,179.70279939596807z" style="fill:rgb(58,27,0)"/><path d="M35.131794609921805,141.05632479323486L41.64178996462968,141.05632479323486L41.64178996462968,134.83708868684425zM41.64178996462968,141.05632479323486L48.15178531933754,141.05632479323486L48.15178531933754,134.83708868684425z" style="fill:rgb(272,129,4)"/><path d="M-22.760952252240973,167.17835259664835L-22.760952252240973,167.6738965067444L-20.999360111839394,167.6738965067444z" style="fill:rgb(70,33,1)"/><path d="M-22.760952252240973,179.70279939596807L-24.522544392642544,179.70279939596807L-22.760952252240973,180.19834330606412z" style="fill:rgb(42,20,0)"/><path d="M-20.999360111839394,179.70279939596807L-22.760952252240973,179.70279939596807L-22.760952252240973,180.19834330606412z" style="fill:rgb(43,20,0)"/><path d="M-22.760952252240973,167.17835259664835L-24.522544392642544,167.6738965067444L-22.760952252240973,167.6738965067444z" style="fill:rgb(69,32,1)"/><path d="M-27.36421408988251,169.08508611371468L-28.775403696852784,171.19708061804138L-27.013811895463604,171.19708061804138z" style="fill:rgb(95,45,1)"/><path d="M-16.746500807629154,171.19708061804138L-18.508092609018334,171.19708061804138L-16.250956897533097,173.68834795135623z" style="fill:rgb(118,56,1)"/><path d="M-29.270947606948845,173.68834795135623L-28.775403696852784,176.1796152846711L-27.013811895463604,176.1796152846711z" style="fill:rgb(99,47,1)"/><path d="M-16.746500807629154,176.1796152846711L-18.508092609018334,176.1796152846711L-18.15769041459943,178.2916097889978z" style="fill:rgb(93,44,1)"/><path d="M-28.775403696852784,171.19708061804138L-29.270947606948845,173.68834795135623L-27.36421408988251,173.68834795135623z" style="fill:rgb(104,49,1)"/><path d="M-16.250956897533097,173.68834795135623L-18.15769041459943,173.68834795135623L-16.746500807629154,176.1796152846711z" style="fill:rgb(113,54,1)"/><path d="M-24.522544392642544,167.6738965067444L-25.25221958555583,167.6738965067444L-26.015949929594907,169.08508611371468z" style="fill:rgb(71,34,1)"/><path d="M-20.999360111839394,167.6738965067444L-19.50595457488703,169.08508611371468L-18.15769041459943,169.08508611371468z" style="fill:rgb(80,38,1)"/><path d="M-26.015949929594907,178.2916097889978L-27.36421408988251,178.2916097889978L-24.522544392642544,179.70279939596807z" style="fill:rgb(49,23,0)"/><path d="M-19.50595457488703,178.2916097889978L-20.999360111839394,179.70279939596807L-20.269684918926107,179.70279939596807z" style="fill:rgb(58,27,0)"/><path d="M35.131794609921805,134.83708868684425L35.131794609921805,141.05632479323486L41.64178996462968,134.83708868684425zM41.64178996462968,134.83708868684425L41.64178996462968,141.05632479323486L48.15178531933754,134.83708868684425z" style="fill:rgb(272,129,4)"/><path d="M-20.999360111839394,167.6738965067444L-22.760952252240973,167.6738965067444L-19.50595457488703,169.08508611371468z" style="fill:rgb(169,80,2)"/><path d="M-26.015949929594907,178.2916097889978L-24.522544392642544,179.70279939596807L-22.760952252240973,179.70279939596807z" style="fill:rgb(144,68,2)"/><path d="M-26.015949929594907,169.08508611371468L-27.36421408988251,169.08508611371468L-27.013811895463604,171.19708061804138z" style="fill:rgb(95,45,1)"/><path d="M-19.50595457488703,169.08508611371468L-18.508092609018334,171.19708061804138L-16.746500807629154,171.19708061804138z" style="fill:rgb(107,51,1)"/><path d="M-27.013811895463604,176.1796152846711L-28.775403696852784,176.1796152846711L-26.015949929594907,178.2916097889978z" style="fill:rgb(81,38,1)"/><path d="M-18.508092609018334,176.1796152846711L-19.50595457488703,178.2916097889978L-18.15769041459943,178.2916097889978z" style="fill:rgb(93,44,1)"/><path d="M-22.760952252240973,167.6738965067444L-24.522544392642544,167.6738965067444L-22.760952252240973,169.08508611371468z" style="fill:rgb(166,79,2)"/><path d="M-22.760952252240973,178.2916097889978L-22.760952252240973,179.70279939596807L-20.999360111839394,179.70279939596807z" style="fill:rgb(147,70,2)"/><path d="M-27.013811895463604,171.19708061804138L-28.775403696852784,171.19708061804138L-27.36421408988251,173.68834795135623z" style="fill:rgb(104,49,1)"/><path d="M-18.508092609018334,171.19708061804138L-18.15769041459943,173.68834795135623L-16.250956897533097,173.68834795135623z" style="fill:rgb(118,56,1)"/><path d="M-27.36421408988251,173.68834795135623L-29.270947606948845,173.68834795135623L-27.013811895463604,176.1796152846711z" style="fill:rgb(99,47,1)"/><path d="M-18.15769041459943,173.68834795135623L-18.508092609018334,176.1796152846711L-16.746500807629154,176.1796152846711z" style="fill:rgb(113,54,1)"/><path d="M35.131794609921805,134.83708868684425L41.64178996462968,134.83708868684425L41.64178996462968,128.61785258045364zM41.64178996462968,134.83708868684425L48.15178531933754,134.83708868684425L48.15178531933754,128.61785258045364z" style="fill:rgb(272,129,4)"/><path d="M-24.522544392642544,167.6738965067444L-26.015949929594907,169.08508611371468L-22.760952252240973,169.08508611371468z" style="fill:rgb(166,79,2)"/><path d="M-19.50595457488703,178.2916097889978L-22.760952252240973,178.2916097889978L-20.999360111839394,179.70279939596807z" style="fill:rgb(147,70,2)"/><path d="M-22.760952252240973,167.6738965067444L-22.760952252240973,169.08508611371468L-19.50595457488703,169.08508611371468z" style="fill:rgb(169,80,2)"/><path d="M-22.760952252240973,178.2916097889978L-26.015949929594907,178.2916097889978L-22.760952252240973,179.70279939596807z" style="fill:rgb(144,68,2)"/><path d="M35.131794609921805,128.61785258045364L35.131794609921805,134.83708868684425L41.64178996462968,128.61785258045364zM41.64178996462968,128.61785258045364L41.64178996462968,134.83708868684425L48.15178531933754,128.61785258045364z" style="fill:rgb(272,129,4)"/><path d="M-19.50595457488703,169.08508611371468L-22.760952252240973,169.08508611371468L-18.508092609018334,171.19708061804138z" style="fill:rgb(237,112,3)"/><path d="M-27.013811895463604,176.1796152846711L-26.015949929594907,178.2916097889978L-22.760952252240973,178.2916097889978z" style="fill:rgb(218,103,3)"/><path d="M-26.015949929594907,169.08508611371468L-27.013811895463604,171.19708061804138L-22.760952252240973,171.19708061804138z" style="fill:rgb(232,110,3)"/><path d="M-18.508092609018334,176.1796152846711L-22.760952252240973,176.1796152846711L-19.50595457488703,178.2916097889978z" style="fill:rgb(223,106,3)"/><path d="M-22.760952252240973,169.08508611371468L-26.015949929594907,169.08508611371468L-22.760952252240973,171.19708061804138z" style="fill:rgb(232,110,3)"/><path d="M-22.760952252240973,176.1796152846711L-22.760952252240973,178.2916097889978L-19.50595457488703,178.2916097889978z" style="fill:rgb(223,106,3)"/><path d="M-22.760952252240973,169.08508611371468L-22.760952252240973,171.19708061804138L-18.508092609018334,171.19708061804138z" style="fill:rgb(237,112,3)"/><path d="M-18.508092609018334,171.19708061804138L-22.760952252240973,171.19708061804138L-18.15769041459943,173.68834795135623z" style="fill:rgb(268,127,4)"/><path d="M-27.36421408988251,173.68834795135623L-27.013811895463604,176.1796152846711L-22.760952252240973,176.1796152846711z" style="fill:rgb(258,122,4)"/><path d="M-22.760952252240973,176.1796152846711L-27.013811895463604,176.1796152846711L-22.760952252240973,178.2916097889978z" style="fill:rgb(218,103,3)"/><path d="M-27.013811895463604,171.19708061804138L-27.36421408988251,173.68834795135623L-22.760952252240973,173.68834795135623z" style="fill:rgb(263,124,4)"/><path d="M-18.15769041459943,173.68834795135623L-22.760952252240973,173.68834795135623L-18.508092609018334,176.1796152846711zM-22.760952252240973,173.68834795135623L-22.760952252240973,176.1796152846711L-18.508092609018334,176.1796152846711z" style="fill:rgb(263,125,4)"/><path d="M-22.760952252240973,171.19708061804138L-27.013811895463604,171.19708061804138L-22.760952252240973,173.68834795135623z" style="fill:rgb(263,124,4)"/><path d="M-22.760952252240973,171.19708061804138L-22.760952252240973,173.68834795135623L-18.15769041459943,173.68834795135623z" style="fill:rgb(268,127,4)"/><path d="M-22.760952252240973,173.68834795135623L-27.36421408988251,173.68834795135623L-22.760952252240973,176.1796152846711z" style="fill:rgb(258,122,4)"/><path d="M-130.46439552497372,-167.46911184496562L-123.95440017026587,-167.46911184496562L-123.95440017026587,-173.68834795135623zM-123.95440017026587,-167.46911184496562L-117.44440481555799,-167.46911184496562L-117.44440481555799,-173.68834795135623zM-130.46439552497372,-173.68834795135623L-130.46439552497372,-167.46911184496562L-123.95440017026587,-173.68834795135623zM-123.95440017026587,-173.68834795135623L-123.95440017026587,-167.46911184496562L-117.44440481555799,-173.68834795135623zM-130.46439552497372,-173.68834795135623L-123.95440017026587,-173.68834795135623L-123.95440017026587,-179.90758405774685zM-123.95440017026587,-173.68834795135623L-117.44440481555799,-173.68834795135623L-117.44440481555799,-179.90758405774685zM-130.46439552497372,-179.90758405774685L-130.46439552497372,-173.68834795135623L-123.95440017026587,-179.90758405774685zM-123.95440017026587,-179.90758405774685L-123.95440017026587,-173.68834795135623L-117.44440481555799,-179.90758405774685z" style="fill:rgb(163,43,159)"/><path d="M-41.417514947470195,35.88734047991282L-34.90751959276233,35.88734047991282L-34.90751959276233,29.6681043735222zM-34.90751959276233,35.88734047991282L-28.397524238054444,35.88734047991282L-28.397524238054444,29.6681043735222zM-41.417514947470195,29.6681043735222L-41.417514947470195,35.88734047991282L-34.90751959276233,29.6681043735222zM-34.90751959276233,29.6681043735222L-34.90751959276233,35.88734047991282L-28.397524238054444,29.6681043735222zM-41.417514947470195,29.6681043735222L-34.90751959276233,29.6681043735222L-34.90751959276233,23.44886826713157zM-34.90751959276233,29.6681043735222L-28.397524238054444,29.6681043735222L-28.397524238054444,23.44886826713157zM-41.417514947470195,23.44886826713157L-41.417514947470195,29.6681043735222L-34.90751959276233,23.44886826713157zM-34.90751959276233,23.44886826713157L-34.90751959276233,29.6681043735222L-28.397524238054444,23.44886826713157z" style="fill:rgb(221,175,120)"/><path d="M107.68171691623574,-8.536903816830995L105.19044958292088,-8.041359906734948L105.92012477583415,-8.041359906734948z" style="fill:rgb(21,5,20)"/><path d="M107.68171691623574,-8.536903816830995L109.44330905663733,-8.041359906734948L110.17298424955061,-8.041359906734948z" style="fill:rgb(22,6,22)"/><path d="M110.17298424955061,-8.041359906734948L109.44330905663733,-8.041359906734948L112.2849787538773,-6.630170299764661z" style="fill:rgb(48,12,46)"/><path d="M103.07845507859419,2.5763533755184063L105.19044958292088,3.9875429824886894L105.92012477583415,3.9875429824886894z" style="fill:rgb(29,8,28)"/><path d="M105.92012477583415,3.9875429824886894L105.19044958292088,3.9875429824886894L107.68171691623574,4.483086892584751z" style="fill:rgb(5,1,4)"/><path d="M110.17298424955061,3.9875429824886894L109.44330905663733,3.9875429824886894L107.68171691623574,4.483086892584751z" style="fill:rgb(6,1,6)"/><path d="M105.19044958292088,-8.041359906734948L103.07845507859419,-6.630170299764661L104.42671923888179,-6.630170299764661z" style="fill:rgb(43,11,41)"/><path d="M112.2849787538773,-6.630170299764661L110.93671459358968,-6.630170299764661L113.69616836084755,-4.518175795437994z" style="fill:rgb(64,17,62)"/><path d="M101.66726547162394,0.4643588711917397L103.07845507859419,2.5763533755184063L104.42671923888179,2.5763533755184063z" style="fill:rgb(48,13,47)"/><path d="M112.2849787538773,2.5763533755184063L110.93671459358968,2.5763533755184063L110.17298424955061,3.9875429824886894z" style="fill:rgb(34,9,33)"/><path d="M107.68171691623574,-8.536903816830995L107.68171691623574,-8.041359906734948L109.44330905663733,-8.041359906734948z" style="fill:rgb(42,11,41)"/><path d="M107.68171691623574,3.9875429824886894L105.92012477583415,3.9875429824886894L107.68171691623574,4.483086892584751z" style="fill:rgb(25,6,24)"/><path d="M109.44330905663733,3.9875429824886894L107.68171691623574,3.9875429824886894L107.68171691623574,4.483086892584751z" style="fill:rgb(26,7,25)"/><path d="M107.68171691623574,-8.536903816830995L105.92012477583415,-8.041359906734948L107.68171691623574,-8.041359906734948z" style="fill:rgb(41,11,40)"/><path d="M103.07845507859419,-6.630170299764661L101.66726547162394,-4.518175795437994L103.42885727301311,-4.518175795437994z" style="fill:rgb(57,15,55)"/><path d="M113.69616836084755,-4.518175795437994L111.93457655945838,-4.518175795437994L114.19171227094361,-2.0269084621231217z" style="fill:rgb(71,19,69)"/><path d="M101.17172156152787,-2.0269084621231217L101.66726547162394,0.4643588711917397L103.42885727301311,0.4643588711917397z" style="fill:rgb(59,16,58)"/><path d="M113.69616836084755,0.4643588711917397L111.93457655945838,0.4643588711917397L112.2849787538773,2.5763533755184063z" style="fill:rgb(55,15,54)"/><path d="M101.66726547162394,-4.518175795437994L101.17172156152787,-2.0269084621231217L103.07845507859419,-2.0269084621231217z" style="fill:rgb(62,16,60)"/><path d="M114.19171227094361,-2.0269084621231217L112.2849787538773,-2.0269084621231217L113.69616836084755,0.4643588711917397z" style="fill:rgb(68,18,66)"/><path d="M105.92012477583415,-8.041359906734948L105.19044958292088,-8.041359906734948L104.42671923888179,-6.630170299764661z" style="fill:rgb(43,11,41)"/><path d="M109.44330905663733,-8.041359906734948L110.93671459358968,-6.630170299764661L112.2849787538773,-6.630170299764661z" style="fill:rgb(48,12,46)"/><path d="M104.42671923888179,2.5763533755184063L103.07845507859419,2.5763533755184063L105.92012477583415,3.9875429824886894z" style="fill:rgb(29,8,28)"/><path d="M110.93671459358968,2.5763533755184063L109.44330905663733,3.9875429824886894L110.17298424955061,3.9875429824886894z" style="fill:rgb(34,9,33)"/><path d="M109.44330905663733,-8.041359906734948L107.68171691623574,-8.041359906734948L110.93671459358968,-6.630170299764661z" style="fill:rgb(101,27,98)"/><path d="M104.42671923888179,2.5763533755184063L105.92012477583415,3.9875429824886894L107.68171691623574,3.9875429824886894z" style="fill:rgb(86,23,83)"/><path d="M104.42671923888179,-6.630170299764661L103.07845507859419,-6.630170299764661L103.42885727301311,-4.518175795437994z" style="fill:rgb(57,15,55)"/><path d="M110.93671459358968,-6.630170299764661L111.93457655945838,-4.518175795437994L113.69616836084755,-4.518175795437994z" style="fill:rgb(64,17,62)"/><path d="M103.42885727301311,0.4643588711917397L101.66726547162394,0.4643588711917397L104.42671923888179,2.5763533755184063z" style="fill:rgb(48,13,47)"/><path d="M111.93457655945838,0.4643588711917397L110.93671459358968,2.5763533755184063L112.2849787538773,2.5763533755184063z" style="fill:rgb(55,15,54)"/><path d="M107.68171691623574,-8.041359906734948L105.92012477583415,-8.041359906734948L107.68171691623574,-6.630170299764661z" style="fill:rgb(99,26,96)"/><path d="M107.68171691623574,2.5763533755184063L107.68171691623574,3.9875429824886894L109.44330905663733,3.9875429824886894z" style="fill:rgb(88,23,86)"/><path d="M103.42885727301311,-4.518175795437994L101.66726547162394,-4.518175795437994L103.07845507859419,-2.0269084621231217z" style="fill:rgb(62,16,60)"/><path d="M111.93457655945838,-4.518175795437994L112.2849787538773,-2.0269084621231217L114.19171227094361,-2.0269084621231217z" style="fill:rgb(71,19,69)"/><path d="M103.07845507859419,-2.0269084621231217L101.17172156152787,-2.0269084621231217L103.42885727301311,0.4643588711917397z" style="fill:rgb(59,16,58)"/><path d="M112.2849787538773,-2.0269084621231217L111.93457655945838,0.4643588711917397L113.69616836084755,0.4643588711917397z" style="fill:rgb(68,18,66)"/><path d="M105.92012477583415,-8.041359906734948L104.42671923888179,-6.630170299764661L107.68171691623574,-6.630170299764661z" style="fill:rgb(99,26,96)"/><path d="M110.93671459358968,2.5763533755184063L107.68171691623574,2.5763533755184063L109.44330905663733,3.9875429824886894z" style="fill:rgb(88,23,86)"/><path d="M107.68171691623574,-8.041359906734948L107.68171691623574,-6.630170299764661L110.93671459358968,-6.630170299764661z" style="fill:rgb(101,27,98)"/><path d="M107.68171691623574,2.5763533755184063L104.42671923888179,2.5763533755184063L107.68171691623574,3.9875429824886894z" style="fill:rgb(86,23,83)"/><path d="M110.93671459358968,-6.630170299764661L107.68171691623574,-6.630170299764661L111.93457655945838,-4.518175795437994z" style="fill:rgb(142,38,138)"/><path d="M103.42885727301311,0.4643588711917397L104.42671923888179,2.5763533755184063L107.68171691623574,2.5763533755184063z" style="fill:rgb(130,35,127)"/><path d="M104.42671923888179,-6.630170299764661L103.42885727301311,-4.518175795437994L107.68171691623574,-4.518175795437994z" style="fill:rgb(139,37,135)"/><path d="M111.93457655945838,0.4643588711917397L107.68171691623574,0.4643588711917397L110.93671459358968,2.5763533755184063z" style="fill:rgb(133,35,130)"/><path d="M107.68171691623574,-6.630170299764661L104.42671923888179,-6.630170299764661L107.68171691623574,-4.518175795437994z" style="fill:rgb(139,37,135)"/><path d="M107.68171691623574,0.4643588711917397L107.68171691623574,2.5763533755184063L110.93671459358968,2.5763533755184063z" style="fill:rgb(133,35,130)"/><path d="M107.68171691623574,-6.630170299764661L107.68171691623574,-4.518175795437994L111.93457655945838,-4.518175795437994z" style="fill:rgb(142,38,138)"/><path d="M111.93457655945838,-4.518175795437994L107.68171691623574,-4.518175795437994L112.2849787538773,-2.0269084621231217z" style="fill:rgb(161,43,156)"/><path d="M103.07845507859419,-2.0269084621231217L103.42885727301311,0.4643588711917397L107.68171691623574,0.4643588711917397z" style="fill:rgb(154,41,150)"/><path d="M107.68171691623574,0.4643588711917397L103.42885727301311,0.4643588711917397L107.68171691623574,2.5763533755184063z" style="fill:rgb(130,35,127)"/><path d="M103.42885727301311,-4.518175795437994L103.07845507859419,-2.0269084621231217L107.68171691623574,-2.0269084621231217z" style="fill:rgb(157,42,153)"/><path d="M112.2849787538773,-2.0269084621231217L107.68171691623574,-2.0269084621231217L111.93457655945838,0.4643588711917397z" style="fill:rgb(158,42,153)"/><path d="M107.68171691623574,-4.518175795437994L103.42885727301311,-4.518175795437994L107.68171691623574,-2.0269084621231217z" style="fill:rgb(157,42,153)"/><path d="M107.68171691623574,-2.0269084621231217L107.68171691623574,0.4643588711917397L111.93457655945838,0.4643588711917397z" style="fill:rgb(158,42,153)"/><path d="M107.68171691623574,-4.518175795437994L107.68171691623574,-2.0269084621231217L112.2849787538773,-2.0269084621231217z" style="fill:rgb(161,43,156)"/><path d="M107.68171691623574,-2.0269084621231217L103.07845507859419,-2.0269084621231217L107.68171691623574,0.4643588711917397z" style="fill:rgb(154,41,150)"/><path d="M-86.92143077140106,100.69901253115762L-89.41269810471591,101.19455644125368L-88.68302291180262,101.19455644125368z" style="fill:rgb(28,22,15)"/><path d="M-86.92143077140106,100.69901253115762L-85.15983863099949,101.19455644125368L-84.4301634380862,101.19455644125368z" style="fill:rgb(31,24,16)"/><path d="M-84.4301634380862,101.19455644125368L-85.15983863099949,101.19455644125368L-82.31816893375951,102.60574604822396z" style="fill:rgb(65,51,35)"/><path d="M-91.5246926090426,111.81226972350704L-89.41269810471591,113.22345933047731L-88.68302291180262,113.22345933047731z" style="fill:rgb(40,32,21)"/><path d="M-88.68302291180262,113.22345933047731L-89.41269810471591,113.22345933047731L-86.92143077140106,113.71900324057336z" style="fill:rgb(6,5,3)"/><path d="M-84.4301634380862,113.22345933047731L-85.15983863099949,113.22345933047731L-86.92143077140106,113.71900324057336z" style="fill:rgb(9,7,5)"/><path d="M-89.41269810471591,101.19455644125368L-91.5246926090426,102.60574604822396L-90.17642844875499,102.60574604822396z" style="fill:rgb(58,46,31)"/><path d="M-82.31816893375951,102.60574604822396L-83.66643309404712,102.60574604822396L-80.90697932678924,104.71774055255062z" style="fill:rgb(87,69,47)"/><path d="M-92.93588221601287,109.70027521918036L-91.5246926090426,111.81226972350704L-90.17642844875499,111.81226972350704z" style="fill:rgb(65,52,35)"/><path d="M-82.31816893375951,111.81226972350704L-83.66643309404712,111.81226972350704L-84.4301634380862,113.22345933047731z" style="fill:rgb(47,37,25)"/><path d="M-86.92143077140106,100.69901253115762L-88.68302291180262,101.19455644125368L-86.92143077140106,101.19455644125368z" style="fill:rgb(56,44,30)"/><path d="M-86.92143077140106,100.69901253115762L-86.92143077140106,101.19455644125368L-85.15983863099949,101.19455644125368z" style="fill:rgb(57,45,31)"/><path d="M-86.92143077140106,113.22345933047731L-88.68302291180262,113.22345933047731L-86.92143077140106,113.71900324057336z" style="fill:rgb(34,27,18)"/><path d="M-85.15983863099949,113.22345933047731L-86.92143077140106,113.22345933047731L-86.92143077140106,113.71900324057336z" style="fill:rgb(35,28,19)"/><path d="M-91.5246926090426,102.60574604822396L-92.93588221601287,104.71774055255062L-91.17429041462371,104.71774055255062z" style="fill:rgb(77,61,42)"/><path d="M-80.90697932678924,104.71774055255062L-82.66857112817843,104.71774055255062L-80.41143541669318,107.20900788586549z" style="fill:rgb(96,76,52)"/><path d="M-93.43142612610893,107.20900788586549L-92.93588221601287,109.70027521918036L-91.17429041462371,109.70027521918036z" style="fill:rgb(80,64,44)"/><path d="M-80.90697932678924,109.70027521918036L-82.66857112817843,109.70027521918036L-82.31816893375951,111.81226972350704z" style="fill:rgb(75,60,41)"/><path d="M-92.93588221601287,104.71774055255062L-93.43142612610893,107.20900788586549L-91.5246926090426,107.20900788586549z" style="fill:rgb(84,67,46)"/><path d="M-80.41143541669318,107.20900788586549L-82.31816893375951,107.20900788586549L-80.90697932678924,109.70027521918036z" style="fill:rgb(92,73,50)"/><path d="M-88.68302291180262,101.19455644125368L-89.41269810471591,101.19455644125368L-90.17642844875499,102.60574604822396z" style="fill:rgb(58,46,31)"/><path d="M-85.15983863099949,101.19455644125368L-83.66643309404712,102.60574604822396L-82.31816893375951,102.60574604822396z" style="fill:rgb(65,51,35)"/><path d="M-90.17642844875499,111.81226972350704L-91.5246926090426,111.81226972350704L-88.68302291180262,113.22345933047731z" style="fill:rgb(40,32,21)"/><path d="M-83.66643309404712,111.81226972350704L-85.15983863099949,113.22345933047731L-84.4301634380862,113.22345933047731z" style="fill:rgb(47,37,25)"/><path d="M-85.15983863099949,101.19455644125368L-86.92143077140106,101.19455644125368L-83.66643309404712,102.60574604822396z" style="fill:rgb(137,109,75)"/><path d="M-90.17642844875499,111.81226972350704L-88.68302291180262,113.22345933047731L-86.92143077140106,113.22345933047731z" style="fill:rgb(116,92,63)"/><path d="M-90.17642844875499,102.60574604822396L-91.5246926090426,102.60574604822396L-91.17429041462371,104.71774055255062z" style="fill:rgb(77,61,42)"/><path d="M-83.66643309404712,102.60574604822396L-82.66857112817843,104.71774055255062L-80.90697932678924,104.71774055255062z" style="fill:rgb(87,69,47)"/><path d="M-91.17429041462371,109.70027521918036L-92.93588221601287,109.70027521918036L-90.17642844875499,111.81226972350704z" style="fill:rgb(65,52,35)"/><path d="M-82.66857112817843,109.70027521918036L-83.66643309404712,111.81226972350704L-82.31816893375951,111.81226972350704z" style="fill:rgb(75,60,41)"/><path d="M-86.92143077140106,101.19455644125368L-88.68302291180262,101.19455644125368L-86.92143077140106,102.60574604822396z" style="fill:rgb(134,107,73)"/><path d="M-86.92143077140106,111.81226972350704L-86.92143077140106,113.22345933047731L-85.15983863099949,113.22345933047731z" style="fill:rgb(119,95,65)"/><path d="M-91.17429041462371,104.71774055255062L-92.93588221601287,104.71774055255062L-91.5246926090426,107.20900788586549z" style="fill:rgb(84,67,46)"/><path d="M-82.66857112817843,104.71774055255062L-82.31816893375951,107.20900788586549L-80.41143541669318,107.20900788586549z" style="fill:rgb(96,76,52)"/><path d="M-91.5246926090426,107.20900788586549L-93.43142612610893,107.20900788586549L-91.17429041462371,109.70027521918036z" style="fill:rgb(80,64,44)"/><path d="M-82.31816893375951,107.20900788586549L-82.66857112817843,109.70027521918036L-80.90697932678924,109.70027521918036z" style="fill:rgb(92,73,50)"/><path d="M-88.68302291180262,101.19455644125368L-90.17642844875499,102.60574604822396L-86.92143077140106,102.60574604822396z" style="fill:rgb(134,107,73)"/><path d="M-83.66643309404712,111.81226972350704L-86.92143077140106,111.81226972350704L-85.15983863099949,113.22345933047731z" style="fill:rgb(119,95,65)"/><path d="M-86.92143077140106,101.19455644125368L-86.92143077140106,102.60574604822396L-83.66643309404712,102.60574604822396z" style="fill:rgb(137,109,75)"/><path d="M-86.92143077140106,111.81226972350704L-90.17642844875499,111.81226972350704L-86.92143077140106,113.22345933047731z" style="fill:rgb(116,92,63)"/><path d="M-83.66643309404712,102.60574604822396L-86.92143077140106,102.60574604822396L-82.66857112817843,104.71774055255062z" style="fill:rgb(192,153,105)"/><path d="M-91.17429041462371,109.70027521918036L-90.17642844875499,111.81226972350704L-86.92143077140106,111.81226972350704z" style="fill:rgb(176,140,96)"/><path d="M-90.17642844875499,102.60574604822396L-91.17429041462371,104.71774055255062L-86.92143077140106,104.71774055255062z" style="fill:rgb(188,149,102)"/><path d="M-82.66857112817843,109.70027521918036L-86.92143077140106,109.70027521918036L-83.66643309404712,111.81226972350704z" style="fill:rgb(180,143,98)"/><path d="M-86.92143077140106,102.60574604822396L-90.17642844875499,102.60574604822396L-86.92143077140106,104.71774055255062z" style="fill:rgb(188,149,102)"/><path d="M-86.92143077140106,109.70027521918036L-86.92143077140106,111.81226972350704L-83.66643309404712,111.81226972350704z" style="fill:rgb(180,143,98)"/><path d="M-86.92143077140106,102.60574604822396L-86.92143077140106,104.71774055255062L-82.66857112817843,104.71774055255062z" style="fill:rgb(192,153,105)"/><path d="M-82.66857112817843,104.71774055255062L-86.92143077140106,104.71774055255062L-82.31816893375951,107.20900788586549z" style="fill:rgb(217,173,118)"/><path d="M-91.5246926090426,107.20900788586549L-91.17429041462371,109.70027521918036L-86.92143077140106,109.70027521918036z" style="fill:rgb(209,166,114)"/><path d="M-86.92143077140106,109.70027521918036L-91.17429041462371,109.70027521918036L-86.92143077140106,111.81226972350704z" style="fill:rgb(176,140,96)"/><path d="M-91.17429041462371,104.71774055255062L-91.5246926090426,107.20900788586549L-86.92143077140106,107.20900788586549z" style="fill:rgb(213,169,116)"/><path d="M-82.31816893375951,107.20900788586549L-86.92143077140106,107.20900788586549L-82.66857112817843,109.70027521918036zM-86.92143077140106,107.20900788586549L-86.92143077140106,109.70027521918036L-82.66857112817843,109.70027521918036z" style="fill:rgb(213,170,116)"/><path d="M-86.92143077140106,104.71774055255062L-91.17429041462371,104.71774055255062L-86.92143077140106,107.20900788586549z" style="fill:rgb(213,169,116)"/><path d="M-86.92143077140106,104.71774055255062L-86.92143077140106,107.20900788586549L-82.31816893375951,107.20900788586549z" style="fill:rgb(217,173,118)"/><path d="M-86.92143077140106,107.20900788586549L-91.5246926090426,107.20900788586549L-86.92143077140106,109.70027521918036z" style="fill:rgb(209,166,114)"/><path d="M-6.832467302202066,15.243802143918495L-9.32373463551693,15.739346054014558L-8.594059442603639,15.739346054014558z" style="fill:rgb(0,18,0)"/><path d="M-6.832467302202066,15.243802143918495L-5.070875161800489,15.739346054014558L-4.3411999688872,15.739346054014558z" style="fill:rgb(0,20,0)"/><path d="M-4.3411999688872,15.739346054014558L-5.070875161800489,15.739346054014558L-2.2292054645605224,17.15053566098483z" style="fill:rgb(0,42,0)"/><path d="M-11.435729139843605,26.357059336267913L-9.32373463551693,27.768248943238184L-8.594059442603639,27.768248943238184z" style="fill:rgb(0,26,0)"/><path d="M-8.594059442603639,27.768248943238184L-9.32373463551693,27.768248943238184L-6.832467302202066,28.263792853334248z" style="fill:rgb(0,4,0)"/><path d="M-4.3411999688872,27.768248943238184L-5.070875161800489,27.768248943238184L-6.832467302202066,28.263792853334248z" style="fill:rgb(0,6,0)"/><path d="M-9.32373463551693,15.739346054014558L-11.435729139843605,17.15053566098483L-10.087464979556003,17.15053566098483z" style="fill:rgb(0,38,0)"/><path d="M-2.2292054645605224,17.15053566098483L-3.5774696248481295,17.15053566098483L-0.8180158575902485,19.262530165311507z" style="fill:rgb(0,56,0)"/><path d="M-12.846918746813879,24.245064831941235L-11.435729139843605,26.357059336267913L-10.087464979556003,26.357059336267913z" style="fill:rgb(0,42,0)"/><path d="M-2.2292054645605224,26.357059336267913L-3.5774696248481295,26.357059336267913L-4.3411999688872,27.768248943238184z" style="fill:rgb(0,30,0)"/><path d="M-6.832467302202066,15.243802143918495L-8.594059442603639,15.739346054014558L-6.832467302202066,15.739346054014558z" style="fill:rgb(0,36,0)"/><path d="M-6.832467302202066,15.243802143918495L-6.832467302202066,15.739346054014558L-5.070875161800489,15.739346054014558z" style="fill:rgb(0,37,0)"/><path d="M-6.832467302202066,27.768248943238184L-8.594059442603639,27.768248943238184L-6.832467302202066,28.263792853334248z" style="fill:rgb(0,22,0)"/><path d="M-5.070875161800489,27.768248943238184L-6.832467302202066,27.768248943238184L-6.832467302202066,28.263792853334248z" style="fill:rgb(0,23,0)"/><path d="M-11.435729139843605,17.15053566098483L-12.846918746813879,19.262530165311507L-11.0853269454247,19.262530165311507z" style="fill:rgb(0,50,0)"/><path d="M-0.8180158575902485,19.262530165311507L-2.579607658979427,19.262530165311507L-0.32247194749418745,21.753797498626373z" style="fill:rgb(0,62,0)"/><path d="M-13.342462656909941,21.753797498626373L-12.846918746813879,24.245064831941235L-11.0853269454247,24.245064831941235z" style="fill:rgb(0,52,0)"/><path d="M-0.8180158575902485,24.245064831941235L-2.579607658979427,24.245064831941235L-2.2292054645605224,26.357059336267913z" style="fill:rgb(0,49,0)"/><path d="M-12.846918746813879,19.262530165311507L-13.342462656909941,21.753797498626373L-11.435729139843605,21.753797498626373z" style="fill:rgb(0,55,0)"/><path d="M-0.32247194749418745,21.753797498626373L-2.2292054645605224,21.753797498626373L-0.8180158575902485,24.245064831941235z" style="fill:rgb(0,60,0)"/><path d="M-8.594059442603639,15.739346054014558L-9.32373463551693,15.739346054014558L-10.087464979556003,17.15053566098483z" style="fill:rgb(0,38,0)"/><path d="M-5.070875161800489,15.739346054014558L-3.5774696248481295,17.15053566098483L-2.2292054645605224,17.15053566098483z" style="fill:rgb(0,42,0)"/><path d="M-10.087464979556003,26.357059336267913L-11.435729139843605,26.357059336267913L-8.594059442603639,27.768248943238184z" style="fill:rgb(0,26,0)"/><path d="M-3.5774696248481295,26.357059336267913L-5.070875161800489,27.768248943238184L-4.3411999688872,27.768248943238184z" style="fill:rgb(0,30,0)"/><path d="M-5.070875161800489,15.739346054014558L-6.832467302202066,15.739346054014558L-3.5774696248481295,17.15053566098483z" style="fill:rgb(0,89,0)"/><path d="M-10.087464979556003,26.357059336267913L-8.594059442603639,27.768248943238184L-6.832467302202066,27.768248943238184z" style="fill:rgb(0,76,0)"/><path d="M-10.087464979556003,17.15053566098483L-11.435729139843605,17.15053566098483L-11.0853269454247,19.262530165311507z" style="fill:rgb(0,50,0)"/><path d="M-3.5774696248481295,17.15053566098483L-2.579607658979427,19.262530165311507L-0.8180158575902485,19.262530165311507z" style="fill:rgb(0,56,0)"/><path d="M-11.0853269454247,24.245064831941235L-12.846918746813879,24.245064831941235L-10.087464979556003,26.357059336267913z" style="fill:rgb(0,42,0)"/><path d="M-2.579607658979427,24.245064831941235L-3.5774696248481295,26.357059336267913L-2.2292054645605224,26.357059336267913z" style="fill:rgb(0,49,0)"/><path d="M-6.832467302202066,15.739346054014558L-8.594059442603639,15.739346054014558L-6.832467302202066,17.15053566098483z" style="fill:rgb(0,87,0)"/><path d="M-6.832467302202066,26.357059336267913L-6.832467302202066,27.768248943238184L-5.070875161800489,27.768248943238184z" style="fill:rgb(0,78,0)"/><path d="M-11.0853269454247,19.262530165311507L-12.846918746813879,19.262530165311507L-11.435729139843605,21.753797498626373z" style="fill:rgb(0,55,0)"/><path d="M-2.579607658979427,19.262530165311507L-2.2292054645605224,21.753797498626373L-0.32247194749418745,21.753797498626373z" style="fill:rgb(0,62,0)"/><path d="M-11.435729139843605,21.753797498626373L-13.342462656909941,21.753797498626373L-11.0853269454247,24.245064831941235z" style="fill:rgb(0,52,0)"/><path d="M-2.2292054645605224,21.753797498626373L-2.579607658979427,24.245064831941235L-0.8180158575902485,24.245064831941235z" style="fill:rgb(0,60,0)"/><path d="M-8.594059442603639,15.739346054014558L-10.087464979556003,17.15053566098483L-6.832467302202066,17.15053566098483z" style="fill:rgb(0,87,0)"/><path d="M-3.5774696248481295,26.357059336267913L-6.832467302202066,26.357059336267913L-5.070875161800489,27.768248943238184z" style="fill:rgb(0,78,0)"/><path d="M-6.832467302202066,15.739346054014558L-6.832467302202066,17.15053566098483L-3.5774696248481295,17.15053566098483z" style="fill:rgb(0,89,0)"/><path d="M-6.832467302202066,26.357059336267913L-10.087464979556003,26.357059336267913L-6.832467302202066,27.768248943238184z" style="fill:rgb(0,76,0)"/><path d="M-3.5774696248481295,17.15053566098483L-6.832467302202066,17.15053566098483L-2.579607658979427,19.262530165311507z" style="fill:rgb(0,125,0)"/><path d="M-11.0853269454247,24.245064831941235L-10.087464979556003,26.357059336267913L-6.832467302202066,26.357059336267913z" style="fill:rgb(0,115,0)"/><path d="M-10.087464979556003,17.15053566098483L-11.0853269454247,19.262530165311507L-6.832467302202066,19.262530165311507z" style="fill:rgb(0,123,0)"/><path d="M-2.579607658979427,24.245064831941235L-6.832467302202066,24.245064831941235L-3.5774696248481295,26.357059336267913z" style="fill:rgb(0,118,0)"/><path d="M-6.832467302202066,17.15053566098483L-10.087464979556003,17.15053566098483L-6.832467302202066,19.262530165311507z" style="fill:rgb(0,123,0)"/><path d="M-6.832467302202066,24.245064831941235L-6.832467302202066,26.357059336267913L-3.5774696248481295,26.357059336267913z" style="fill:rgb(0,118,0)"/><path d="M-6.832467302202066,17.15053566098483L-6.832467302202066,19.262530165311507L-2.579607658979427,19.262530165311507z" style="fill:rgb(0,125,0)"/><path d="M-2.579607658979427,19.262530165311507L-6.832467302202066,19.262530165311507L-2.2292054645605224,21.753797498626373z" style="fill:rgb(0,142,0)"/><path d="M-11.435729139843605,21.753797498626373L-11.0853269454247,24.245064831941235L-6.832467302202066,24.245064831941235z" style="fill:rgb(0,136,0)"/><path d="M-6.832467302202066,24.245064831941235L-11.0853269454247,24.245064831941235L-6.832467302202066,26.357059336267913z" style="fill:rgb(0,115,0)"/><path d="M-11.0853269454247,19.262530165311507L-11.435729139843605,21.753797498626373L-6.832467302202066,21.753797498626373zM-2.2292054645605224,21.753797498626373L-6.832467302202066,21.753797498626373L-2.579607658979427,24.245064831941235zM-6.832467302202066,19.262530165311507L-11.0853269454247,19.262530165311507L-6.832467302202066,21.753797498626373zM-6.832467302202066,21.753797498626373L-6.832467302202066,24.245064831941235L-2.579607658979427,24.245064831941235z" style="fill:rgb(0,139,0)"/><path d="M-6.832467302202066,19.262530165311507L-6.832467302202066,21.753797498626373L-2.2292054645605224,21.753797498626373z" style="fill:rgb(0,142,0)"/><path d="M-6.832467302202066,21.753797498626373L-11.435729139843605,21.753797498626373L-6.832467302202066,24.245064831941235z" style="fill:rgb(0,136,0)"/><path d="M2.5597812810732505,55.90694454915446L9.069776635781125,55.90694454915446L9.069776635781125,49.68770844276384zM9.069776635781125,55.90694454915446L15.579771990488998,55.90694454915446L15.579771990488998,49.68770844276384zM2.5597812810732505,49.68770844276384L2.5597812810732505,55.90694454915446L9.069776635781125,49.68770844276384zM9.069776635781125,49.68770844276384L9.069776635781125,55.90694454915446L15.579771990488998,49.68770844276384zM2.5597812810732505,49.68770844276384L9.069776635781125,49.68770844276384L9.069776635781125,43.46847233637322zM9.069776635781125,49.68770844276384L15.579771990488998,49.68770844276384L15.579771990488998,43.46847233637322zM2.5597812810732505,43.46847233637322L2.5597812810732505,49.68770844276384L9.069776635781125,43.46847233637322zM9.069776635781125,43.46847233637322L9.069776635781125,49.68770844276384L15.579771990488998,43.46847233637322z" style="fill:rgb(287,0,0)"/><path d="M-86.47227947959786,42.20232238686092L-79.96228412488999,42.20232238686092L-79.96228412488999,35.983086280470296zM-79.96228412488999,42.20232238686092L-73.45228877018212,42.20232238686092L-73.45228877018212,35.983086280470296zM-86.47227947959786,35.983086280470296L-86.47227947959786,42.20232238686092L-79.96228412488999,35.983086280470296zM-79.96228412488999,35.983086280470296L-79.96228412488999,42.20232238686092L-73.45228877018212,35.983086280470296zM-86.47227947959786,35.983086280470296L-79.96228412488999,35.983086280470296L-79.96228412488999,29.76385017407967zM-79.96228412488999,35.983086280470296L-73.45228877018212,35.983086280470296L-73.45228877018212,29.76385017407967zM-86.47227947959786,29.76385017407967L-86.47227947959786,35.983086280470296L-79.96228412488999,29.76385017407967zM-79.96228412488999,29.76385017407967L-79.96228412488999,35.983086280470296L-73.45228877018212,29.76385017407967z" style="fill:rgb(0,144,0)"/><path d="M-67.00569484453058,69.13200360800127L-60.49569948982271,69.13200360800127L-60.49569948982271,62.91276750161065zM-60.49569948982271,69.13200360800127L-53.98570413511484,69.13200360800127L-53.98570413511484,62.91276750161065zM-67.00569484453058,62.91276750161065L-67.00569484453058,69.13200360800127L-60.49569948982271,62.91276750161065zM-60.49569948982271,62.91276750161065L-60.49569948982271,69.13200360800127L-53.98570413511484,62.91276750161065zM-67.00569484453058,62.91276750161065L-60.49569948982271,62.91276750161065L-60.49569948982271,56.69353139522003zM-60.49569948982271,62.91276750161065L-53.98570413511484,62.91276750161065L-53.98570413511484,56.69353139522003zM-67.00569484453058,56.69353139522003L-67.00569484453058,62.91276750161065L-60.49569948982271,56.69353139522003zM-60.49569948982271,56.69353139522003L-60.49569948982271,62.91276750161065L-53.98570413511484,56.69353139522003z" style="fill:rgb(267,0,155)"/><path d="M105.4364355083164,54.14341969424586L102.94516817500154,54.63896360434191L103.67484336791483,54.63896360434191z" style="fill:rgb(37,0,0)"/><path d="M105.4364355083164,54.14341969424586L107.198027648718,54.63896360434191L107.92770284163129,54.63896360434191z" style="fill:rgb(40,0,0)"/><path d="M107.92770284163129,54.63896360434191L107.198027648718,54.63896360434191L110.03969734595798,56.05015321131219z" style="fill:rgb(84,0,0)"/><path d="M100.83317367067485,65.25667688659527L102.94516817500154,66.66786649356554L103.67484336791483,66.66786649356554z" style="fill:rgb(52,0,0)"/><path d="M103.67484336791483,66.66786649356554L102.94516817500154,66.66786649356554L105.4364355083164,67.1634104036616z" style="fill:rgb(8,0,0)"/><path d="M107.92770284163129,66.66786649356554L107.198027648718,66.66786649356554L105.4364355083164,67.1634104036616z" style="fill:rgb(12,0,0)"/><path d="M102.94516817500154,54.63896360434191L100.83317367067485,56.05015321131219L102.18143783096247,56.05015321131219z" style="fill:rgb(75,0,0)"/><path d="M110.03969734595798,56.05015321131219L108.69143318567036,56.05015321131219L111.45088695292824,58.162147715638866z" style="fill:rgb(113,0,0)"/><path d="M99.4219840637046,63.14468238226859L100.83317367067485,65.25667688659527L102.18143783096247,65.25667688659527z" style="fill:rgb(85,0,0)"/><path d="M110.03969734595798,65.25667688659527L108.69143318567036,65.25667688659527L107.92770284163129,66.66786649356554z" style="fill:rgb(61,0,0)"/><path d="M105.4364355083164,66.66786649356554L103.67484336791483,66.66786649356554L105.4364355083164,67.1634104036616z" style="fill:rgb(44,0,0)"/><path d="M107.198027648718,66.66786649356554L105.4364355083164,66.66786649356554L105.4364355083164,67.1634104036616z" style="fill:rgb(45,0,0)"/><path d="M105.4364355083164,54.14341969424586L103.67484336791483,54.63896360434191L105.4364355083164,54.63896360434191z" style="fill:rgb(72,0,0)"/><path d="M105.4364355083164,54.14341969424586L105.4364355083164,54.63896360434191L107.198027648718,54.63896360434191z" style="fill:rgb(74,0,0)"/><path d="M111.45088695292824,58.162147715638866L109.68929515153906,58.162147715638866L111.94643086302428,60.65341504895373z" style="fill:rgb(125,0,0)"/><path d="M111.45088695292824,63.14468238226859L109.68929515153906,63.14468238226859L110.03969734595798,65.25667688659527z" style="fill:rgb(98,0,0)"/><path d="M100.83317367067485,56.05015321131219L99.4219840637046,58.162147715638866L101.18357586509377,58.162147715638866z" style="fill:rgb(100,0,0)"/><path d="M98.92644015360855,60.65341504895373L99.4219840637046,63.14468238226859L101.18357586509377,63.14468238226859z" style="fill:rgb(104,0,0)"/><path d="M99.4219840637046,58.162147715638866L98.92644015360855,60.65341504895373L100.83317367067485,60.65341504895373z" style="fill:rgb(110,0,0)"/><path d="M111.94643086302428,60.65341504895373L110.03969734595798,60.65341504895373L111.45088695292824,63.14468238226859z" style="fill:rgb(119,0,0)"/><path d="M103.67484336791483,54.63896360434191L102.94516817500154,54.63896360434191L102.18143783096247,56.05015321131219z" style="fill:rgb(75,0,0)"/><path d="M107.198027648718,54.63896360434191L108.69143318567036,56.05015321131219L110.03969734595798,56.05015321131219z" style="fill:rgb(84,0,0)"/><path d="M102.18143783096247,65.25667688659527L100.83317367067485,65.25667688659527L103.67484336791483,66.66786649356554z" style="fill:rgb(52,0,0)"/><path d="M108.69143318567036,65.25667688659527L107.198027648718,66.66786649356554L107.92770284163129,66.66786649356554z" style="fill:rgb(61,0,0)"/><path d="M107.198027648718,54.63896360434191L105.4364355083164,54.63896360434191L108.69143318567036,56.05015321131219z" style="fill:rgb(178,0,0)"/><path d="M102.18143783096247,65.25667688659527L103.67484336791483,66.66786649356554L105.4364355083164,66.66786649356554z" style="fill:rgb(151,0,0)"/><path d="M108.69143318567036,56.05015321131219L109.68929515153906,58.162147715638866L111.45088695292824,58.162147715638866z" style="fill:rgb(113,0,0)"/><path d="M101.18357586509377,63.14468238226859L99.4219840637046,63.14468238226859L102.18143783096247,65.25667688659527z" style="fill:rgb(85,0,0)"/><path d="M109.68929515153906,63.14468238226859L108.69143318567036,65.25667688659527L110.03969734595798,65.25667688659527z" style="fill:rgb(98,0,0)"/><path d="M102.18143783096247,56.05015321131219L100.83317367067485,56.05015321131219L101.18357586509377,58.162147715638866z" style="fill:rgb(100,0,0)"/><path d="M105.4364355083164,54.63896360434191L103.67484336791483,54.63896360434191L105.4364355083164,56.05015321131219z" style="fill:rgb(175,0,0)"/><path d="M105.4364355083164,65.25667688659527L105.4364355083164,66.66786649356554L107.198027648718,66.66786649356554z" style="fill:rgb(155,0,0)"/><path d="M101.18357586509377,58.162147715638866L99.4219840637046,58.162147715638866L100.83317367067485,60.65341504895373z" style="fill:rgb(110,0,0)"/><path d="M109.68929515153906,58.162147715638866L110.03969734595798,60.65341504895373L111.94643086302428,60.65341504895373z" style="fill:rgb(125,0,0)"/><path d="M110.03969734595798,60.65341504895373L109.68929515153906,63.14468238226859L111.45088695292824,63.14468238226859z" style="fill:rgb(119,0,0)"/><path d="M100.83317367067485,60.65341504895373L98.92644015360855,60.65341504895373L101.18357586509377,63.14468238226859z" style="fill:rgb(104,0,0)"/><path d="M103.67484336791483,54.63896360434191L102.18143783096247,56.05015321131219L105.4364355083164,56.05015321131219z" style="fill:rgb(175,0,0)"/><path d="M108.69143318567036,65.25667688659527L105.4364355083164,65.25667688659527L107.198027648718,66.66786649356554z" style="fill:rgb(155,0,0)"/><path d="M105.4364355083164,54.63896360434191L105.4364355083164,56.05015321131219L108.69143318567036,56.05015321131219z" style="fill:rgb(178,0,0)"/><path d="M105.4364355083164,65.25667688659527L102.18143783096247,65.25667688659527L105.4364355083164,66.66786649356554z" style="fill:rgb(151,0,0)"/><path d="M101.18357586509377,63.14468238226859L102.18143783096247,65.25667688659527L105.4364355083164,65.25667688659527z" style="fill:rgb(229,0,0)"/><path d="M108.69143318567036,56.05015321131219L105.4364355083164,56.05015321131219L109.68929515153906,58.162147715638866z" style="fill:rgb(250,0,0)"/><path d="M-128.75820631067967,74.35412415921424L-122.24821095597179,74.35412415921424L-122.24821095597179,68.13488805282361zM-122.24821095597179,74.35412415921424L-115.73821560126393,74.35412415921424L-115.73821560126393,68.13488805282361z" style="fill:rgb(0,144,144)"/><path d="M102.18143783096247,56.05015321131219L101.18357586509377,58.162147715638866L105.4364355083164,58.162147715638866z" style="fill:rgb(245,0,0)"/><path d="M109.68929515153906,63.14468238226859L105.4364355083164,63.14468238226859L108.69143318567036,65.25667688659527z" style="fill:rgb(235,0,0)"/><path d="M105.4364355083164,56.05015321131219L102.18143783096247,56.05015321131219L105.4364355083164,58.162147715638866z" style="fill:rgb(245,0,0)"/><path d="M105.4364355083164,63.14468238226859L105.4364355083164,65.25667688659527L108.69143318567036,65.25667688659527z" style="fill:rgb(235,0,0)"/><path d="M105.4364355083164,56.05015321131219L105.4364355083164,58.162147715638866L109.68929515153906,58.162147715638866z" style="fill:rgb(250,0,0)"/><path d="M100.83317367067485,60.65341504895373L101.18357586509377,63.14468238226859L105.4364355083164,63.14468238226859z" style="fill:rgb(271,0,0)"/><path d="M109.68929515153906,58.162147715638866L105.4364355083164,58.162147715638866L110.03969734595798,60.65341504895373z" style="fill:rgb(283,0,0)"/><path d="M105.4364355083164,63.14468238226859L101.18357586509377,63.14468238226859L105.4364355083164,65.25667688659527z" style="fill:rgb(229,0,0)"/><path d="M-128.75820631067967,68.13488805282361L-128.75820631067967,74.35412415921424L-122.24821095597179,68.13488805282361zM-122.24821095597179,68.13488805282361L-122.24821095597179,74.35412415921424L-115.73821560126393,68.13488805282361z" style="fill:rgb(0,144,144)"/><path d="M101.18357586509377,58.162147715638866L100.83317367067485,60.65341504895373L105.4364355083164,60.65341504895373z" style="fill:rgb(277,0,0)"/><path d="M110.03969734595798,60.65341504895373L105.4364355083164,60.65341504895373L109.68929515153906,63.14468238226859z" style="fill:rgb(278,0,0)"/><path d="M105.4364355083164,58.162147715638866L101.18357586509377,58.162147715638866L105.4364355083164,60.65341504895373z" style="fill:rgb(277,0,0)"/><path d="M105.4364355083164,60.65341504895373L105.4364355083164,63.14468238226859L109.68929515153906,63.14468238226859z" style="fill:rgb(278,0,0)"/><path d="M105.4364355083164,58.162147715638866L105.4364355083164,60.65341504895373L110.03969734595798,60.65341504895373z" style="fill:rgb(283,0,0)"/><path d="M105.4364355083164,60.65341504895373L100.83317367067485,60.65341504895373L105.4364355083164,63.14468238226859z" style="fill:rgb(271,0,0)"/><path d="M-128.75820631067967,68.13488805282361L-122.24821095597179,68.13488805282361L-122.24821095597179,61.915651946432995zM-122.24821095597179,68.13488805282361L-115.73821560126393,68.13488805282361L-115.73821560126393,61.915651946432995zM-128.75820631067967,61.915651946432995L-128.75820631067967,68.13488805282361L-122.24821095597179,61.915651946432995zM-122.24821095597179,61.915651946432995L-122.24821095597179,68.13488805282361L-115.73821560126393,61.915651946432995z" style="fill:rgb(0,144,144)"/><path d="M-81.23009583097343,63.337743451822924L-83.72136316428829,63.83328736191899L-82.991687971375,63.83328736191899z" style="fill:rgb(34,0,20)"/><path d="M-81.23009583097343,63.337743451822924L-79.46850369057185,63.83328736191899L-78.73882849765856,63.83328736191899z" style="fill:rgb(37,0,21)"/><path d="M-78.73882849765856,63.83328736191899L-79.46850369057185,63.83328736191899L-76.62683399333187,65.24447696888926z" style="fill:rgb(78,0,45)"/><path d="M-85.83335766861495,74.45100064417235L-83.72136316428829,75.86219025114262L-82.991687971375,75.86219025114262z" style="fill:rgb(48,0,28)"/><path d="M-82.991687971375,75.86219025114262L-83.72136316428829,75.86219025114262L-81.23009583097343,76.35773416123868z" style="fill:rgb(8,0,4)"/><path d="M-78.73882849765856,75.86219025114262L-79.46850369057185,75.86219025114262L-81.23009583097343,76.35773416123868z" style="fill:rgb(11,0,6)"/><path d="M-83.72136316428829,63.83328736191899L-85.83335766861495,65.24447696888926L-84.48509350832737,65.24447696888926z" style="fill:rgb(70,0,41)"/><path d="M-76.62683399333187,65.24447696888926L-77.97509815361948,65.24447696888926L-75.21564438636162,67.35647147321593z" style="fill:rgb(105,0,61)"/><path d="M-87.24454727558523,72.33900613984567L-85.83335766861495,74.45100064417235L-84.48509350832737,74.45100064417235z" style="fill:rgb(79,0,46)"/><path d="M-76.62683399333187,74.45100064417235L-77.97509815361948,74.45100064417235L-78.73882849765856,75.86219025114262z" style="fill:rgb(56,0,33)"/><path d="M-81.23009583097343,63.337743451822924L-82.991687971375,63.83328736191899L-81.23009583097343,63.83328736191899z" style="fill:rgb(67,0,39)"/><path d="M-81.23009583097343,63.337743451822924L-81.23009583097343,63.83328736191899L-79.46850369057185,63.83328736191899z" style="fill:rgb(68,0,40)"/><path d="M-81.23009583097343,75.86219025114262L-82.991687971375,75.86219025114262L-81.23009583097343,76.35773416123868z" style="fill:rgb(41,0,24)"/><path d="M-79.46850369057185,75.86219025114262L-81.23009583097343,75.86219025114262L-81.23009583097343,76.35773416123868z" style="fill:rgb(42,0,24)"/><path d="M-85.83335766861495,65.24447696888926L-87.24454727558523,67.35647147321593L-85.48295547419606,67.35647147321593z" style="fill:rgb(93,0,54)"/><path d="M-75.21564438636162,67.35647147321593L-76.97723618775078,67.35647147321593L-74.72010047626556,69.8477388065308z" style="fill:rgb(116,0,67)"/><path d="M-87.7400911856813,69.8477388065308L-87.24454727558523,72.33900613984567L-85.48295547419606,72.33900613984567z" style="fill:rgb(97,0,56)"/><path d="M-75.21564438636162,72.33900613984567L-76.97723618775078,72.33900613984567L-76.62683399333187,74.45100064417235z" style="fill:rgb(91,0,53)"/><path d="M-87.24454727558523,67.35647147321593L-87.7400911856813,69.8477388065308L-85.83335766861495,69.8477388065308z" style="fill:rgb(102,0,59)"/><path d="M-74.72010047626556,69.8477388065308L-76.62683399333187,69.8477388065308L-75.21564438636162,72.33900613984567z" style="fill:rgb(111,0,64)"/><path d="M-82.991687971375,63.83328736191899L-83.72136316428829,63.83328736191899L-84.48509350832737,65.24447696888926z" style="fill:rgb(70,0,41)"/><path d="M-79.46850369057185,63.83328736191899L-77.97509815361948,65.24447696888926L-76.62683399333187,65.24447696888926z" style="fill:rgb(78,0,45)"/><path d="M-84.48509350832737,74.45100064417235L-85.83335766861495,74.45100064417235L-82.991687971375,75.86219025114262z" style="fill:rgb(48,0,28)"/><path d="M-77.97509815361948,74.45100064417235L-79.46850369057185,75.86219025114262L-78.73882849765856,75.86219025114262z" style="fill:rgb(56,0,33)"/><path d="M-152.18106194814067,56.90473821767284L-154.67232928145555,57.4002821277689L-153.94265408854227,57.4002821277689z" style="fill:rgb(0,18,18)"/><path d="M-152.18106194814067,56.90473821767284L-150.4194698077391,57.4002821277689L-149.68979461482581,57.4002821277689z" style="fill:rgb(0,20,20)"/><path d="M-149.68979461482581,57.4002821277689L-150.4194698077391,57.4002821277689L-147.5778001104991,58.81147173473918z" style="fill:rgb(0,42,42)"/><path d="M-156.78432378578222,68.01799541002227L-154.67232928145555,69.42918501699255L-153.94265408854227,69.42918501699255z" style="fill:rgb(0,26,26)"/><path d="M-153.94265408854227,69.42918501699255L-154.67232928145555,69.42918501699255L-152.18106194814067,69.9247289270886z" style="fill:rgb(0,4,4)"/><path d="M-149.68979461482581,69.42918501699255L-150.4194698077391,69.42918501699255L-152.18106194814067,69.9247289270886z" style="fill:rgb(0,6,6)"/><path d="M-154.67232928145555,57.4002821277689L-156.78432378578222,58.81147173473918L-155.43605962549464,58.81147173473918z" style="fill:rgb(0,38,38)"/><path d="M-147.5778001104991,58.81147173473918L-148.92606427078672,58.81147173473918L-146.16661050352886,60.92346623906585z" style="fill:rgb(0,56,56)"/><path d="M-158.19551339275247,65.90600090569558L-156.78432378578222,68.01799541002227L-155.43605962549464,68.01799541002227z" style="fill:rgb(0,42,42)"/><path d="M-147.5778001104991,68.01799541002227L-148.92606427078672,68.01799541002227L-149.68979461482581,69.42918501699255z" style="fill:rgb(0,30,30)"/><path d="M-79.46850369057185,63.83328736191899L-81.23009583097343,63.83328736191899L-77.97509815361948,65.24447696888926z" style="fill:rgb(166,0,96)"/><path d="M-84.48509350832737,74.45100064417235L-82.991687971375,75.86219025114262L-81.23009583097343,75.86219025114262z" style="fill:rgb(141,0,82)"/><path d="M-84.48509350832737,65.24447696888926L-85.83335766861495,65.24447696888926L-85.48295547419606,67.35647147321593z" style="fill:rgb(93,0,54)"/><path d="M-77.97509815361948,65.24447696888926L-76.97723618775078,67.35647147321593L-75.21564438636162,67.35647147321593z" style="fill:rgb(105,0,61)"/><path d="M-85.48295547419606,72.33900613984567L-87.24454727558523,72.33900613984567L-84.48509350832737,74.45100064417235z" style="fill:rgb(79,0,46)"/><path d="M-76.97723618775078,72.33900613984567L-77.97509815361948,74.45100064417235L-76.62683399333187,74.45100064417235z" style="fill:rgb(91,0,53)"/><path d="M-152.18106194814067,56.90473821767284L-153.94265408854227,57.4002821277689L-152.18106194814067,57.4002821277689z" style="fill:rgb(0,36,36)"/><path d="M-152.18106194814067,56.90473821767284L-152.18106194814067,57.4002821277689L-150.4194698077391,57.4002821277689z" style="fill:rgb(0,37,37)"/><path d="M-152.18106194814067,69.42918501699255L-153.94265408854227,69.42918501699255L-152.18106194814067,69.9247289270886z" style="fill:rgb(0,22,22)"/><path d="M-150.4194698077391,69.42918501699255L-152.18106194814067,69.42918501699255L-152.18106194814067,69.9247289270886z" style="fill:rgb(0,23,23)"/><path d="M-156.78432378578222,58.81147173473918L-158.19551339275247,60.92346623906585L-156.43392159136332,60.92346623906585z" style="fill:rgb(0,50,50)"/><path d="M-146.16661050352886,60.92346623906585L-147.92820230491805,60.92346623906585L-145.6710665934328,63.41473357238072z" style="fill:rgb(0,62,62)"/><path d="M-158.69105730284855,63.41473357238072L-158.19551339275247,65.90600090569558L-156.43392159136332,65.90600090569558z" style="fill:rgb(0,52,52)"/><path d="M-146.16661050352886,65.90600090569558L-147.92820230491805,65.90600090569558L-147.5778001104991,68.01799541002227z" style="fill:rgb(0,49,49)"/><path d="M-158.19551339275247,60.92346623906585L-158.69105730284855,63.41473357238072L-156.78432378578222,63.41473357238072z" style="fill:rgb(0,55,55)"/><path d="M-145.6710665934328,63.41473357238072L-147.5778001104991,63.41473357238072L-146.16661050352886,65.90600090569558z" style="fill:rgb(0,60,60)"/><path d="M-153.94265408854227,57.4002821277689L-154.67232928145555,57.4002821277689L-155.43605962549464,58.81147173473918z" style="fill:rgb(0,38,38)"/><path d="M-150.4194698077391,57.4002821277689L-148.92606427078672,58.81147173473918L-147.5778001104991,58.81147173473918z" style="fill:rgb(0,42,42)"/><path d="M-155.43605962549464,68.01799541002227L-156.78432378578222,68.01799541002227L-153.94265408854227,69.42918501699255z" style="fill:rgb(0,26,26)"/><path d="M-148.92606427078672,68.01799541002227L-150.4194698077391,69.42918501699255L-149.68979461482581,69.42918501699255z" style="fill:rgb(0,30,30)"/><path d="M-81.23009583097343,63.83328736191899L-82.991687971375,63.83328736191899L-81.23009583097343,65.24447696888926z" style="fill:rgb(162,0,94)"/><path d="M-81.23009583097343,74.45100064417235L-81.23009583097343,75.86219025114262L-79.46850369057185,75.86219025114262z" style="fill:rgb(144,0,84)"/><path d="M-85.48295547419606,67.35647147321593L-87.24454727558523,67.35647147321593L-85.83335766861495,69.8477388065308z" style="fill:rgb(102,0,59)"/><path d="M-76.97723618775078,67.35647147321593L-76.62683399333187,69.8477388065308L-74.72010047626556,69.8477388065308z" style="fill:rgb(116,0,67)"/><path d="M-85.83335766861495,69.8477388065308L-87.7400911856813,69.8477388065308L-85.48295547419606,72.33900613984567z" style="fill:rgb(97,0,56)"/><path d="M-76.62683399333187,69.8477388065308L-76.97723618775078,72.33900613984567L-75.21564438636162,72.33900613984567z" style="fill:rgb(111,0,64)"/><path d="M-82.991687971375,63.83328736191899L-84.48509350832737,65.24447696888926L-81.23009583097343,65.24447696888926z" style="fill:rgb(162,0,94)"/><path d="M-77.97509815361948,74.45100064417235L-81.23009583097343,74.45100064417235L-79.46850369057185,75.86219025114262z" style="fill:rgb(144,0,84)"/><path d="M-81.23009583097343,63.83328736191899L-81.23009583097343,65.24447696888926L-77.97509815361948,65.24447696888926z" style="fill:rgb(166,0,96)"/><path d="M-81.23009583097343,74.45100064417235L-84.48509350832737,74.45100064417235L-81.23009583097343,75.86219025114262z" style="fill:rgb(141,0,82)"/><path d="M-150.4194698077391,57.4002821277689L-152.18106194814067,57.4002821277689L-148.92606427078672,58.81147173473918z" style="fill:rgb(0,89,89)"/><path d="M-155.43605962549464,68.01799541002227L-153.94265408854227,69.42918501699255L-152.18106194814067,69.42918501699255z" style="fill:rgb(0,76,76)"/><path d="M-155.43605962549464,58.81147173473918L-156.78432378578222,58.81147173473918L-156.43392159136332,60.92346623906585z" style="fill:rgb(0,50,50)"/><path d="M-148.92606427078672,58.81147173473918L-147.92820230491805,60.92346623906585L-146.16661050352886,60.92346623906585z" style="fill:rgb(0,56,56)"/><path d="M-156.43392159136332,65.90600090569558L-158.19551339275247,65.90600090569558L-155.43605962549464,68.01799541002227z" style="fill:rgb(0,42,42)"/><path d="M-147.92820230491805,65.90600090569558L-148.92606427078672,68.01799541002227L-147.5778001104991,68.01799541002227z" style="fill:rgb(0,49,49)"/><path d="M-77.97509815361948,65.24447696888926L-81.23009583097343,65.24447696888926L-76.97723618775078,67.35647147321593z" style="fill:rgb(232,0,135)"/><path d="M-85.48295547419606,72.33900613984567L-84.48509350832737,74.45100064417235L-81.23009583097343,74.45100064417235z" style="fill:rgb(213,0,124)"/><path d="M-152.18106194814067,57.4002821277689L-153.94265408854227,57.4002821277689L-152.18106194814067,58.81147173473918z" style="fill:rgb(0,87,87)"/><path d="M-152.18106194814067,68.01799541002227L-152.18106194814067,69.42918501699255L-150.4194698077391,69.42918501699255z" style="fill:rgb(0,78,78)"/><path d="M-156.43392159136332,60.92346623906585L-158.19551339275247,60.92346623906585L-156.78432378578222,63.41473357238072z" style="fill:rgb(0,55,55)"/><path d="M-147.92820230491805,60.92346623906585L-147.5778001104991,63.41473357238072L-145.6710665934328,63.41473357238072z" style="fill:rgb(0,62,62)"/><path d="M-156.78432378578222,63.41473357238072L-158.69105730284855,63.41473357238072L-156.43392159136332,65.90600090569558z" style="fill:rgb(0,52,52)"/><path d="M-147.5778001104991,63.41473357238072L-147.92820230491805,65.90600090569558L-146.16661050352886,65.90600090569558z" style="fill:rgb(0,60,60)"/><path d="M-153.94265408854227,57.4002821277689L-155.43605962549464,58.81147173473918L-152.18106194814067,58.81147173473918z" style="fill:rgb(0,87,87)"/><path d="M-148.92606427078672,68.01799541002227L-152.18106194814067,68.01799541002227L-150.4194698077391,69.42918501699255z" style="fill:rgb(0,78,78)"/><path d="M-84.48509350832737,65.24447696888926L-85.48295547419606,67.35647147321593L-81.23009583097343,67.35647147321593z" style="fill:rgb(227,0,132)"/><path d="M-76.97723618775078,72.33900613984567L-81.23009583097343,72.33900613984567L-77.97509815361948,74.45100064417235z" style="fill:rgb(218,0,127)"/><path d="M-152.18106194814067,57.4002821277689L-152.18106194814067,58.81147173473918L-148.92606427078672,58.81147173473918z" style="fill:rgb(0,89,89)"/><path d="M-152.18106194814067,68.01799541002227L-155.43605962549464,68.01799541002227L-152.18106194814067,69.42918501699255z" style="fill:rgb(0,76,76)"/><path d="M-81.23009583097343,65.24447696888926L-84.48509350832737,65.24447696888926L-81.23009583097343,67.35647147321593z" style="fill:rgb(227,0,132)"/><path d="M-81.23009583097343,72.33900613984567L-81.23009583097343,74.45100064417235L-77.97509815361948,74.45100064417235z" style="fill:rgb(218,0,127)"/><path d="M-81.23009583097343,65.24447696888926L-81.23009583097343,67.35647147321593L-76.97723618775078,67.35647147321593z" style="fill:rgb(232,0,135)"/><path d="M-76.97723618775078,67.35647147321593L-81.23009583097343,67.35647147321593L-76.62683399333187,69.8477388065308z" style="fill:rgb(263,0,153)"/><path d="M-85.83335766861495,69.8477388065308L-85.48295547419606,72.33900613984567L-81.23009583097343,72.33900613984567z" style="fill:rgb(252,0,147)"/><path d="M-81.23009583097343,72.33900613984567L-85.48295547419606,72.33900613984567L-81.23009583097343,74.45100064417235z" style="fill:rgb(213,0,124)"/><path d="M-85.48295547419606,67.35647147321593L-85.83335766861495,69.8477388065308L-81.23009583097343,69.8477388065308z" style="fill:rgb(257,0,149)"/><path d="M-76.62683399333187,69.8477388065308L-81.23009583097343,69.8477388065308L-76.97723618775078,72.33900613984567z" style="fill:rgb(258,0,150)"/><path d="M-148.92606427078672,58.81147173473918L-152.18106194814067,58.81147173473918L-147.92820230491805,60.92346623906585z" style="fill:rgb(0,125,125)"/><path d="M-156.43392159136332,65.90600090569558L-155.43605962549464,68.01799541002227L-152.18106194814067,68.01799541002227z" style="fill:rgb(0,115,115)"/><path d="M-81.23009583097343,67.35647147321593L-85.48295547419606,67.35647147321593L-81.23009583097343,69.8477388065308z" style="fill:rgb(257,0,149)"/><path d="M-81.23009583097343,69.8477388065308L-81.23009583097343,72.33900613984567L-76.97723618775078,72.33900613984567z" style="fill:rgb(258,0,150)"/><path d="M-147.92820230491805,65.90600090569558L-152.18106194814067,65.90600090569558L-148.92606427078672,68.01799541002227z" style="fill:rgb(0,118,118)"/><path d="M-155.43605962549464,58.81147173473918L-156.43392159136332,60.92346623906585L-152.18106194814067,60.92346623906585z" style="fill:rgb(0,123,123)"/><path d="M-81.23009583097343,67.35647147321593L-81.23009583097343,69.8477388065308L-76.62683399333187,69.8477388065308z" style="fill:rgb(263,0,153)"/><path d="M-81.23009583097343,69.8477388065308L-85.83335766861495,69.8477388065308L-81.23009583097343,72.33900613984567z" style="fill:rgb(252,0,147)"/><path d="M-152.18106194814067,58.81147173473918L-155.43605962549464,58.81147173473918L-152.18106194814067,60.92346623906585z" style="fill:rgb(0,123,123)"/><path d="M-152.18106194814067,65.90600090569558L-152.18106194814067,68.01799541002227L-148.92606427078672,68.01799541002227z" style="fill:rgb(0,118,118)"/><path d="M-147.92820230491805,60.92346623906585L-152.18106194814067,60.92346623906585L-147.5778001104991,63.41473357238072z" style="fill:rgb(0,142,142)"/><path d="M-152.18106194814067,65.90600090569558L-156.43392159136332,65.90600090569558L-152.18106194814067,68.01799541002227z" style="fill:rgb(0,115,115)"/><path d="M-152.18106194814067,58.81147173473918L-152.18106194814067,60.92346623906585L-147.92820230491805,60.92346623906585z" style="fill:rgb(0,125,125)"/><path d="M-156.78432378578222,63.41473357238072L-156.43392159136332,65.90600090569558L-152.18106194814067,65.90600090569558z" style="fill:rgb(0,136,136)"/><path d="M-156.43392159136332,60.92346623906585L-156.78432378578222,63.41473357238072L-152.18106194814067,63.41473357238072zM-147.5778001104991,63.41473357238072L-152.18106194814067,63.41473357238072L-147.92820230491805,65.90600090569558zM-152.18106194814067,60.92346623906585L-156.43392159136332,60.92346623906585L-152.18106194814067,63.41473357238072zM-152.18106194814067,63.41473357238072L-152.18106194814067,65.90600090569558L-147.92820230491805,65.90600090569558z" style="fill:rgb(0,139,139)"/><path d="M-152.18106194814067,60.92346623906585L-152.18106194814067,63.41473357238072L-147.5778001104991,63.41473357238072z" style="fill:rgb(0,142,142)"/><path d="M-152.18106194814067,63.41473357238072L-156.78432378578222,63.41473357238072L-152.18106194814067,65.90600090569558z" style="fill:rgb(0,136,136)"/><path d="M-176.04112719003888,91.6736954862623L-169.531131835331,91.6736954862623L-169.531131835331,85.45445937987168zM-169.531131835331,91.6736954862623L-163.0211364806231,91.6736954862623L-163.0211364806231,85.45445937987168zM-176.04112719003888,85.45445937987168L-176.04112719003888,91.6736954862623L-169.531131835331,85.45445937987168zM-169.531131835331,85.45445937987168L-169.531131835331,91.6736954862623L-163.0211364806231,85.45445937987168zM-176.04112719003888,85.45445937987168L-169.531131835331,85.45445937987168L-169.531131835331,79.23522327348105zM-169.531131835331,85.45445937987168L-163.0211364806231,85.45445937987168L-163.0211364806231,79.23522327348105zM-176.04112719003888,79.23522327348105L-176.04112719003888,85.45445937987168L-169.531131835331,79.23522327348105zM-169.531131835331,79.23522327348105L-169.531131835331,85.45445937987168L-163.0211364806231,79.23522327348105z" style="fill:rgb(287,287,0)"/><path d="M-161.69713390803176,94.17587207034808L-164.18840124134664,94.67141598044414L-163.45872604843336,94.67141598044414z" style="fill:rgb(37,37,0)"/><path d="M-161.69713390803176,94.17587207034808L-159.93554176763018,94.67141598044414L-159.2058665747169,94.67141598044414z" style="fill:rgb(40,40,0)"/><path d="M-159.2058665747169,94.67141598044414L-159.93554176763018,94.67141598044414L-157.09387207039023,96.0826055874144z" style="fill:rgb(84,84,0)"/><path d="M-166.3003957456733,105.28912926269747L-164.18840124134664,106.70031886966777L-163.45872604843336,106.70031886966777z" style="fill:rgb(52,52,0)"/><path d="M-163.45872604843336,106.70031886966777L-164.18840124134664,106.70031886966777L-161.69713390803176,107.19586277976381z" style="fill:rgb(8,8,0)"/><path d="M-159.2058665747169,106.70031886966777L-159.93554176763018,106.70031886966777L-161.69713390803176,107.19586277976381z" style="fill:rgb(12,12,0)"/><path d="M-164.18840124134664,94.67141598044414L-166.3003957456733,96.0826055874144L-164.95213158538573,96.0826055874144z" style="fill:rgb(75,75,0)"/><path d="M-157.09387207039023,96.0826055874144L-158.44213623067785,96.0826055874144L-155.68268246341995,98.19460009174108z" style="fill:rgb(113,113,0)"/><path d="M-167.7115853526436,103.17713475837081L-166.3003957456733,105.28912926269747L-164.95213158538573,105.28912926269747z" style="fill:rgb(85,85,0)"/><path d="M-157.09387207039023,105.28912926269747L-158.44213623067785,105.28912926269747L-159.2058665747169,106.70031886966777z" style="fill:rgb(61,61,0)"/><path d="M-161.69713390803176,94.17587207034808L-163.45872604843336,94.67141598044414L-161.69713390803176,94.67141598044414z" style="fill:rgb(72,72,0)"/><path d="M-161.69713390803176,94.17587207034808L-161.69713390803176,94.67141598044414L-159.93554176763018,94.67141598044414z" style="fill:rgb(74,74,0)"/><path d="M-161.69713390803176,106.70031886966777L-163.45872604843336,106.70031886966777L-161.69713390803176,107.19586277976381z" style="fill:rgb(44,44,0)"/><path d="M-159.93554176763018,106.70031886966777L-161.69713390803176,106.70031886966777L-161.69713390803176,107.19586277976381z" style="fill:rgb(45,45,0)"/><path d="M-166.3003957456733,96.0826055874144L-167.7115853526436,98.19460009174108L-165.9499935512544,98.19460009174108z" style="fill:rgb(100,100,0)"/><path d="M-155.68268246341995,98.19460009174108L-157.44427426480914,98.19460009174108L-155.1871385533239,100.68586742505595z" style="fill:rgb(125,125,0)"/><path d="M-168.20712926273964,100.68586742505595L-167.7115853526436,103.17713475837081L-165.9499935512544,103.17713475837081z" style="fill:rgb(104,104,0)"/><path d="M-155.68268246341995,103.17713475837081L-157.44427426480914,103.17713475837081L-157.09387207039023,105.28912926269747z" style="fill:rgb(98,98,0)"/><path d="M-167.7115853526436,98.19460009174108L-168.20712926273964,100.68586742505595L-166.3003957456733,100.68586742505595z" style="fill:rgb(110,110,0)"/><path d="M-155.1871385533239,100.68586742505595L-157.09387207039023,100.68586742505595L-155.68268246341995,103.17713475837081z" style="fill:rgb(119,119,0)"/><path d="M-163.45872604843336,94.67141598044414L-164.18840124134664,94.67141598044414L-164.95213158538573,96.0826055874144z" style="fill:rgb(75,75,0)"/><path d="M-159.93554176763018,94.67141598044414L-158.44213623067785,96.0826055874144L-157.09387207039023,96.0826055874144z" style="fill:rgb(84,84,0)"/><path d="M-164.95213158538573,105.28912926269747L-166.3003957456733,105.28912926269747L-163.45872604843336,106.70031886966777z" style="fill:rgb(52,52,0)"/><path d="M-158.44213623067785,105.28912926269747L-159.93554176763018,106.70031886966777L-159.2058665747169,106.70031886966777z" style="fill:rgb(61,61,0)"/><path d="M-159.93554176763018,94.67141598044414L-161.69713390803176,94.67141598044414L-158.44213623067785,96.0826055874144z" style="fill:rgb(178,178,0)"/><path d="M-164.95213158538573,105.28912926269747L-163.45872604843336,106.70031886966777L-161.69713390803176,106.70031886966777z" style="fill:rgb(151,151,0)"/><path d="M-164.95213158538573,96.0826055874144L-166.3003957456733,96.0826055874144L-165.9499935512544,98.19460009174108z" style="fill:rgb(100,100,0)"/><path d="M-158.44213623067785,96.0826055874144L-157.44427426480914,98.19460009174108L-155.68268246341995,98.19460009174108z" style="fill:rgb(113,113,0)"/><path d="M-165.9499935512544,103.17713475837081L-167.7115853526436,103.17713475837081L-164.95213158538573,105.28912926269747z" style="fill:rgb(85,85,0)"/><path d="M-157.44427426480914,103.17713475837081L-158.44213623067785,105.28912926269747L-157.09387207039023,105.28912926269747z" style="fill:rgb(98,98,0)"/><path d="M-161.69713390803176,94.67141598044414L-163.45872604843336,94.67141598044414L-161.69713390803176,96.0826055874144z" style="fill:rgb(175,175,0)"/><path d="M-161.69713390803176,105.28912926269747L-161.69713390803176,106.70031886966777L-159.93554176763018,106.70031886966777z" style="fill:rgb(155,155,0)"/><path d="M-165.9499935512544,98.19460009174108L-167.7115853526436,98.19460009174108L-166.3003957456733,100.68586742505595z" style="fill:rgb(110,110,0)"/><path d="M-157.44427426480914,98.19460009174108L-157.09387207039023,100.68586742505595L-155.1871385533239,100.68586742505595z" style="fill:rgb(125,125,0)"/><path d="M-166.3003957456733,100.68586742505595L-168.20712926273964,100.68586742505595L-165.9499935512544,103.17713475837081z" style="fill:rgb(104,104,0)"/><path d="M-157.09387207039023,100.68586742505595L-157.44427426480914,103.17713475837081L-155.68268246341995,103.17713475837081z" style="fill:rgb(119,119,0)"/><path d="M-163.45872604843336,94.67141598044414L-164.95213158538573,96.0826055874144L-161.69713390803176,96.0826055874144z" style="fill:rgb(175,175,0)"/><path d="M-158.44213623067785,105.28912926269747L-161.69713390803176,105.28912926269747L-159.93554176763018,106.70031886966777z" style="fill:rgb(155,155,0)"/><path d="M-161.69713390803176,94.67141598044414L-161.69713390803176,96.0826055874144L-158.44213623067785,96.0826055874144z" style="fill:rgb(178,178,0)"/><path d="M-161.69713390803176,105.28912926269747L-164.95213158538573,105.28912926269747L-161.69713390803176,106.70031886966777z" style="fill:rgb(151,151,0)"/><path d="M-158.44213623067785,96.0826055874144L-161.69713390803176,96.0826055874144L-157.44427426480914,98.19460009174108z" style="fill:rgb(250,250,0)"/><path d="M-165.9499935512544,103.17713475837081L-164.95213158538573,105.28912926269747L-161.69713390803176,105.28912926269747z" style="fill:rgb(229,229,0)"/><path d="M-164.95213158538573,96.0826055874144L-165.9499935512544,98.19460009174108L-161.69713390803176,98.19460009174108z" style="fill:rgb(245,245,0)"/><path d="M-157.44427426480914,103.17713475837081L-161.69713390803176,103.17713475837081L-158.44213623067785,105.28912926269747z" style="fill:rgb(235,235,0)"/><path d="M-161.69713390803176,96.0826055874144L-164.95213158538573,96.0826055874144L-161.69713390803176,98.19460009174108z" style="fill:rgb(245,245,0)"/><path d="M-161.69713390803176,103.17713475837081L-161.69713390803176,105.28912926269747L-158.44213623067785,105.28912926269747z" style="fill:rgb(235,235,0)"/><path d="M-161.69713390803176,96.0826055874144L-161.69713390803176,98.19460009174108L-157.44427426480914,98.19460009174108z" style="fill:rgb(250,250,0)"/><path d="M-157.44427426480914,98.19460009174108L-161.69713390803176,98.19460009174108L-157.09387207039023,100.68586742505595z" style="fill:rgb(283,283,0)"/><path d="M-166.3003957456733,100.68586742505595L-165.9499935512544,103.17713475837081L-161.69713390803176,103.17713475837081z" style="fill:rgb(271,271,0)"/><path d="M-161.69713390803176,103.17713475837081L-165.9499935512544,103.17713475837081L-161.69713390803176,105.28912926269747z" style="fill:rgb(229,229,0)"/><path d="M-165.9499935512544,98.19460009174108L-166.3003957456733,100.68586742505595L-161.69713390803176,100.68586742505595z" style="fill:rgb(277,277,0)"/><path d="M-157.09387207039023,100.68586742505595L-161.69713390803176,100.68586742505595L-157.44427426480914,103.17713475837081z" style="fill:rgb(278,278,0)"/><path d="M-161.69713390803176,98.19460009174108L-165.9499935512544,98.19460009174108L-161.69713390803176,100.68586742505595z" style="fill:rgb(277,277,0)"/><path d="M-161.69713390803176,100.68586742505595L-161.69713390803176,103.17713475837081L-157.44427426480914,103.17713475837081z" style="fill:rgb(278,278,0)"/><path d="M-161.69713390803176,98.19460009174108L-161.69713390803176,100.68586742505595L-157.09387207039023,100.68586742505595z" style="fill:rgb(283,283,0)"/><path d="M-161.69713390803176,100.68586742505595L-166.3003957456733,100.68586742505595L-161.69713390803176,103.17713475837081z" style="fill:rgb(271,271,0)"/><path d="M113.0777707749342,35.2680447081959L119.58776612964206,35.2680447081959L119.58776612964206,29.048808601805273zM119.58776612964206,35.2680447081959L126.09776148434995,35.2680447081959L126.09776148434995,29.048808601805273zM113.0777707749342,29.048808601805273L113.0777707749342,35.2680447081959L119.58776612964206,29.048808601805273zM119.58776612964206,29.048808601805273L119.58776612964206,35.2680447081959L126.09776148434995,29.048808601805273zM113.0777707749342,29.048808601805273L119.58776612964206,29.048808601805273L119.58776612964206,22.82957249541465zM119.58776612964206,29.048808601805273L126.09776148434995,29.048808601805273L126.09776148434995,22.82957249541465zM113.0777707749342,22.82957249541465L113.0777707749342,29.048808601805273L119.58776612964206,22.82957249541465zM119.58776612964206,22.82957249541465L119.58776612964206,29.048808601805273L126.09776148434995,22.82957249541465z" style="fill:rgb(0,205,287)"/><path d="M169.53113183533102,44.9677861063965L167.03986450201614,45.46333001649256L167.7695396949294,45.46333001649256z" style="fill:rgb(0,26,37)"/><path d="M169.53113183533102,44.9677861063965L171.2927239757326,45.46333001649256L172.02239916864588,45.46333001649256z" style="fill:rgb(0,28,40)"/><path d="M172.02239916864588,45.46333001649256L171.2927239757326,45.46333001649256L174.13439367297255,46.87451962346284z" style="fill:rgb(0,60,84)"/><path d="M164.92786999768944,56.08104329874592L167.03986450201614,57.49223290571619L167.7695396949294,57.49223290571619z" style="fill:rgb(0,37,52)"/><path d="M167.7695396949294,57.49223290571619L167.03986450201614,57.49223290571619L169.53113183533102,57.987776815812246z" style="fill:rgb(0,6,8)"/><path d="M172.02239916864588,57.49223290571619L171.2927239757326,57.49223290571619L169.53113183533102,57.987776815812246z" style="fill:rgb(0,8,12)"/><path d="M167.03986450201614,45.46333001649256L164.92786999768944,46.87451962346284L166.27613415797703,46.87451962346284z" style="fill:rgb(0,54,75)"/><path d="M174.13439367297255,46.87451962346284L172.78612951268497,46.87451962346284L175.5455832799428,48.98651412778951z" style="fill:rgb(0,81,113)"/><path d="M163.5166803907192,53.96904879441924L164.92786999768944,56.08104329874592L166.27613415797703,56.08104329874592z" style="fill:rgb(0,60,85)"/><path d="M174.13439367297255,56.08104329874592L172.78612951268497,56.08104329874592L172.02239916864588,57.49223290571619z" style="fill:rgb(0,43,61)"/><path d="M169.53113183533102,44.9677861063965L167.7695396949294,45.46333001649256L169.53113183533102,45.46333001649256z" style="fill:rgb(0,52,72)"/><path d="M169.53113183533102,44.9677861063965L169.53113183533102,45.46333001649256L171.2927239757326,45.46333001649256z" style="fill:rgb(0,52,74)"/><path d="M169.53113183533102,57.49223290571619L167.7695396949294,57.49223290571619L169.53113183533102,57.987776815812246z" style="fill:rgb(0,31,44)"/><path d="M171.2927239757326,57.49223290571619L169.53113183533102,57.49223290571619L169.53113183533102,57.987776815812246z" style="fill:rgb(0,32,45)"/><path d="M164.92786999768944,46.87451962346284L163.5166803907192,48.98651412778951L165.27827219210837,48.98651412778951z" style="fill:rgb(0,71,100)"/><path d="M175.5455832799428,48.98651412778951L173.78399147855362,48.98651412778951L176.04112719003885,51.47778146110438z" style="fill:rgb(0,89,125)"/><path d="M163.02113648062314,51.47778146110438L163.5166803907192,53.96904879441924L165.27827219210837,53.96904879441924z" style="fill:rgb(0,74,104)"/><path d="M175.5455832799428,53.96904879441924L173.78399147855362,53.96904879441924L174.13439367297255,56.08104329874592z" style="fill:rgb(0,70,98)"/><path d="M163.5166803907192,48.98651412778951L163.02113648062314,51.47778146110438L164.92786999768944,51.47778146110438z" style="fill:rgb(0,78,110)"/><path d="M176.04112719003885,51.47778146110438L174.13439367297255,51.47778146110438L175.5455832799428,53.96904879441924z" style="fill:rgb(0,85,119)"/><path d="M167.7695396949294,45.46333001649256L167.03986450201614,45.46333001649256L166.27613415797703,46.87451962346284z" style="fill:rgb(0,54,75)"/><path d="M171.2927239757326,45.46333001649256L172.78612951268497,46.87451962346284L174.13439367297255,46.87451962346284z" style="fill:rgb(0,60,84)"/><path d="M166.27613415797703,56.08104329874592L164.92786999768944,56.08104329874592L167.7695396949294,57.49223290571619z" style="fill:rgb(0,37,52)"/><path d="M172.78612951268497,56.08104329874592L171.2927239757326,57.49223290571619L172.02239916864588,57.49223290571619z" style="fill:rgb(0,43,61)"/><path d="M171.2927239757326,45.46333001649256L169.53113183533102,45.46333001649256L172.78612951268497,46.87451962346284z" style="fill:rgb(0,127,178)"/><path d="M166.27613415797703,56.08104329874592L167.7695396949294,57.49223290571619L169.53113183533102,57.49223290571619z" style="fill:rgb(0,108,151)"/><path d="M166.27613415797703,46.87451962346284L164.92786999768944,46.87451962346284L165.27827219210837,48.98651412778951z" style="fill:rgb(0,71,100)"/><path d="M172.78612951268497,46.87451962346284L173.78399147855362,48.98651412778951L175.5455832799428,48.98651412778951z" style="fill:rgb(0,81,113)"/><path d="M165.27827219210837,53.96904879441924L163.5166803907192,53.96904879441924L166.27613415797703,56.08104329874592z" style="fill:rgb(0,60,85)"/><path d="M173.78399147855362,53.96904879441924L172.78612951268497,56.08104329874592L174.13439367297255,56.08104329874592z" style="fill:rgb(0,70,98)"/><path d="M169.53113183533102,45.46333001649256L167.7695396949294,45.46333001649256L169.53113183533102,46.87451962346284z" style="fill:rgb(0,125,175)"/><path d="M169.53113183533102,56.08104329874592L169.53113183533102,57.49223290571619L171.2927239757326,57.49223290571619z" style="fill:rgb(0,111,155)"/><path d="M165.27827219210837,48.98651412778951L163.5166803907192,48.98651412778951L164.92786999768944,51.47778146110438z" style="fill:rgb(0,78,110)"/><path d="M173.78399147855362,48.98651412778951L174.13439367297255,51.47778146110438L176.04112719003885,51.47778146110438z" style="fill:rgb(0,89,125)"/><path d="M164.92786999768944,51.47778146110438L163.02113648062314,51.47778146110438L165.27827219210837,53.96904879441924z" style="fill:rgb(0,74,104)"/><path d="M174.13439367297255,51.47778146110438L173.78399147855362,53.96904879441924L175.5455832799428,53.96904879441924z" style="fill:rgb(0,85,119)"/><path d="M167.7695396949294,45.46333001649256L166.27613415797703,46.87451962346284L169.53113183533102,46.87451962346284z" style="fill:rgb(0,125,175)"/><path d="M172.78612951268497,56.08104329874592L169.53113183533102,56.08104329874592L171.2927239757326,57.49223290571619z" style="fill:rgb(0,111,155)"/><path d="M169.53113183533102,45.46333001649256L169.53113183533102,46.87451962346284L172.78612951268497,46.87451962346284z" style="fill:rgb(0,127,178)"/><path d="M169.53113183533102,56.08104329874592L166.27613415797703,56.08104329874592L169.53113183533102,57.49223290571619z" style="fill:rgb(0,108,151)"/><path d="M172.78612951268497,46.87451962346284L169.53113183533102,46.87451962346284L173.78399147855362,48.98651412778951z" style="fill:rgb(0,178,250)"/><path d="M165.27827219210837,53.96904879441924L166.27613415797703,56.08104329874592L169.53113183533102,56.08104329874592z" style="fill:rgb(0,164,229)"/><path d="M166.27613415797703,46.87451962346284L165.27827219210837,48.98651412778951L169.53113183533102,48.98651412778951z" style="fill:rgb(0,174,245)"/><path d="M173.78399147855362,53.96904879441924L169.53113183533102,53.96904879441924L172.78612951268497,56.08104329874592z" style="fill:rgb(0,167,235)"/><path d="M169.53113183533102,46.87451962346284L166.27613415797703,46.87451962346284L169.53113183533102,48.98651412778951z" style="fill:rgb(0,174,245)"/><path d="M169.53113183533102,53.96904879441924L169.53113183533102,56.08104329874592L172.78612951268497,56.08104329874592z" style="fill:rgb(0,167,235)"/><path d="M173.78399147855362,48.98651412778951L169.53113183533102,48.98651412778951L174.13439367297255,51.47778146110438z" style="fill:rgb(0,202,283)"/><path d="M164.92786999768944,51.47778146110438L165.27827219210837,53.96904879441924L169.53113183533102,53.96904879441924z" style="fill:rgb(0,194,271)"/><path d="M169.53113183533102,53.96904879441924L165.27827219210837,53.96904879441924L169.53113183533102,56.08104329874592z" style="fill:rgb(0,164,229)"/><path d="M169.53113183533102,46.87451962346284L169.53113183533102,48.98651412778951L173.78399147855362,48.98651412778951z" style="fill:rgb(0,178,250)"/><path d="M165.27827219210837,48.98651412778951L164.92786999768944,51.47778146110438L169.53113183533102,51.47778146110438z" style="fill:rgb(0,197,277)"/><path d="M174.13439367297255,51.47778146110438L169.53113183533102,51.47778146110438L173.78399147855362,53.96904879441924z" style="fill:rgb(0,198,278)"/><path d="M169.53113183533102,48.98651412778951L165.27827219210837,48.98651412778951L169.53113183533102,51.47778146110438z" style="fill:rgb(0,197,277)"/><path d="M169.53113183533102,51.47778146110438L169.53113183533102,53.96904879441924L173.78399147855362,53.96904879441924z" style="fill:rgb(0,198,278)"/><path d="M169.53113183533102,48.98651412778951L169.53113183533102,51.47778146110438L174.13439367297255,51.47778146110438z" style="fill:rgb(0,202,283)"/><text x="-179.26030195361272" y="182.07920096801075" z="-0.9954917933418677" font-family="Verdana" font-size="8" fill="rgb(0,0,0)">Axis 3 (11.94 %)</text><path d="M169.53113183533102,51.47778146110438L164.92786999768944,51.47778146110438L169.53113183533102,53.96904879441924z" style="fill:rgb(0,194,271)"/></svg>