<svg xmlns="http://www.w3.org/2000/svg" viewBox="-350.5 -406 701 812" width="701" height="812" style="background-color: rgb(255, 255, 255);"><rect id="background" height="812" width="701" y="-406" x="-350.5" stroke-width="0" stroke="#000000" fill="#ffffff"/><text x="236.8112032510231" y="173.01513849364886" z="-0.9942859400683532" font-family="Verdana" font-size="8" fill="rgb(0,0,0)">Axis 1 (24.34 %)</text><text x="-209.57251923297557" y="-222.44515882861316" z="-0.9943629110887731" font-family="Verdana" font-size="8" fill="rgb(0,0,0)">Axis 2 (14.51 %)</text><path d="M236.8112032510231,173.01513849364886L-209.57251923297557,170.55287042731337M-209.57251923297557,-222.44515882861316L-209.57251923297557,170.55287042731337M-225.59146830753446,204.13600958769038L-209.57251923297557,170.55287042731337" style="fill:none;stroke:rgb(0,0,0);stroke-width:3;stroke-linecap:round"/><path d="M117.71046239038539,28.351486990056596L125.730869009372,28.351486990056596L125.73086900937196,20.689299889314164zM125.730869009372,28.351486990056596L133.75127562835854,28.35148699005659L133.75127562835857,20.689299889314164zM117.71046239038539,20.689299889314164L117.71046239038539,28.351486990056596L125.73086900937196,20.689299889314164zM125.73086900937196,20.689299889314164L125.730869009372,28.351486990056596L133.75127562835857,20.689299889314164zM117.71046239038539,20.689299889314164L125.73086900937196,20.689299889314164L125.73086900937196,13.027112788571735zM125.73086900937196,20.689299889314164L133.75127562835857,20.689299889314164L133.75127562835854,13.027112788571735zM117.71046239038539,13.027112788571735L117.71046239038539,20.689299889314164L125.73086900937196,13.027112788571735zM125.73086900937196,13.027112788571735L125.73086900937196,20.689299889314164L133.75127562835854,13.027112788571735z" style="fill:rgb(0,206,288)"/><path d="M182.52457763264692,12.211634001364894L179.4553008169826,12.82215080558835L180.35427122866074,12.822150805588345z" style="fill:rgb(0,23,32)"/><path d="M182.52457763264692,12.211634001364894L184.69488403663308,12.822150805588345L185.59385444831125,12.82215080558835z" style="fill:rgb(0,26,37)"/><path d="M185.59385444831125,12.82215080558835L184.69488403663308,12.822150805588345L188.1958614536437,14.560756799354742z" style="fill:rgb(0,59,83)"/><path d="M176.85329381165016,25.90332444134826L179.4553008169826,27.641930435114645L180.35427122866074,27.641930435114652z" style="fill:rgb(0,38,53)"/><path d="M180.35427122866074,27.641930435114652L179.4553008169826,27.641930435114645L182.5245776326469,28.252447239338103z" style="fill:rgb(0,8,11)"/><path d="M185.59385444831125,27.641930435114652L184.69488403663308,27.641930435114652L182.5245776326469,28.252447239338103z" style="fill:rgb(0,11,16)"/><path d="M179.4553008169826,12.82215080558835L176.85329381165016,14.560756799354737L178.51437432315362,14.560756799354737z" style="fill:rgb(0,50,71)"/><path d="M188.1958614536437,14.560756799354742L186.53478094214023,14.560756799354737L189.9344674474101,17.162763804687184z" style="fill:rgb(0,81,114)"/><path d="M175.11468781788375,23.301317436015815L176.85329381165016,25.90332444134826L178.51437432315365,25.90332444134826z" style="fill:rgb(0,60,84)"/><path d="M188.19586145364363,25.90332444134826L186.5347809421402,25.90332444134826L185.59385444831125,27.641930435114652z" style="fill:rgb(0,47,65)"/><path d="M176.85329381165016,14.560756799354737L175.11468781788378,17.162763804687184L177.2849946041229,17.16276380468718z" style="fill:rgb(0,68,96)"/><path d="M189.9344674474101,17.162763804687184L187.76416066117093,17.16276380468718L190.5449842516335,20.232040620351498z" style="fill:rgb(0,90,127)"/><path d="M174.5041710136603,20.232040620351498L175.11468781788375,23.301317436015815L177.28499460412291,23.30131743601581zM189.93446744741007,23.301317436015815L187.76416066117093,23.30131743601581L188.19586145364363,25.90332444134826z" style="fill:rgb(0,73,102)"/><path d="M182.52457763264692,27.641930435114652L180.35427122866074,27.641930435114652L182.5245776326469,28.252447239338103z" style="fill:rgb(0,34,48)"/><path d="M184.69488403663308,27.641930435114652L182.52457763264692,27.641930435114652L182.5245776326469,28.252447239338103z" style="fill:rgb(0,35,49)"/><path d="M182.52457763264692,12.211634001364894L180.35427122866074,12.822150805588345L182.52457763264692,12.82215080558835z" style="fill:rgb(0,49,69)"/><path d="M182.52457763264692,12.211634001364894L182.52457763264692,12.82215080558835L184.69488403663308,12.822150805588345z" style="fill:rgb(0,50,70)"/><path d="M175.11468781788378,17.162763804687184L174.5041710136603,20.232040620351498L176.85329381165016,20.232040620351498z" style="fill:rgb(0,76,106)"/><path d="M190.5449842516335,20.232040620351498L188.1958614536437,20.232040620351498L189.93446744741007,23.301317436015815z" style="fill:rgb(0,88,123)"/><path d="M180.35427122866074,12.822150805588345L179.4553008169826,12.82215080558835L178.51437432315362,14.560756799354737z" style="fill:rgb(0,50,71)"/><path d="M184.69488403663308,12.822150805588345L186.53478094214023,14.560756799354737L188.1958614536437,14.560756799354742z" style="fill:rgb(0,59,83)"/><path d="M178.51437432315365,25.90332444134826L176.85329381165016,25.90332444134826L180.35427122866074,27.641930435114652z" style="fill:rgb(0,38,53)"/><path d="M186.5347809421402,25.90332444134826L184.69488403663308,27.641930435114652L185.59385444831125,27.641930435114652z" style="fill:rgb(0,47,65)"/><path d="M178.51437432315362,14.560756799354737L176.85329381165016,14.560756799354737L177.2849946041229,17.16276380468718z" style="fill:rgb(0,68,96)"/><path d="M186.53478094214023,14.560756799354737L187.76416066117093,17.16276380468718L189.9344674474101,17.162763804687184z" style="fill:rgb(0,81,114)"/><path d="M177.28499460412291,23.30131743601581L175.11468781788375,23.301317436015815L178.51437432315365,25.90332444134826z" style="fill:rgb(0,60,84)"/><path d="M187.76416066117093,23.30131743601581L186.5347809421402,25.90332444134826L188.19586145364363,25.90332444134826z" style="fill:rgb(0,73,102)"/><path d="M184.69488403663308,12.822150805588345L182.52457763264692,12.82215080558835L186.53478094214023,14.560756799354737z" style="fill:rgb(0,126,176)"/><path d="M178.51437432315365,25.90332444134826L180.35427122866074,27.641930435114652L182.52457763264692,27.641930435114652z" style="fill:rgb(0,110,154)"/><path d="M177.2849946041229,17.16276380468718L175.11468781788378,17.162763804687184L176.85329381165016,20.232040620351498z" style="fill:rgb(0,76,106)"/><path d="M187.76416066117093,17.16276380468718L188.1958614536437,20.232040620351498L190.5449842516335,20.232040620351498z" style="fill:rgb(0,90,127)"/><path d="M176.85329381165016,20.232040620351498L174.5041710136603,20.232040620351498L177.28499460412291,23.30131743601581z" style="fill:rgb(0,73,102)"/><path d="M188.1958614536437,20.232040620351498L187.76416066117093,23.30131743601581L189.93446744741007,23.301317436015815z" style="fill:rgb(0,88,123)"/><path d="M182.52457763264692,12.82215080558835L180.35427122866074,12.822150805588345L182.52457763264692,14.560756799354737z" style="fill:rgb(0,122,171)"/><path d="M182.5245776326469,25.90332444134826L182.52457763264692,27.641930435114652L184.69488403663308,27.641930435114652z" style="fill:rgb(0,113,159)"/><path d="M180.35427122866074,12.822150805588345L178.51437432315362,14.560756799354737L182.52457763264692,14.560756799354737z" style="fill:rgb(0,122,171)"/><path d="M186.5347809421402,25.90332444134826L182.5245776326469,25.90332444134826L184.69488403663308,27.641930435114652z" style="fill:rgb(0,113,159)"/><path d="M182.52457763264692,12.82215080558835L182.52457763264692,14.560756799354737L186.53478094214023,14.560756799354737z" style="fill:rgb(0,126,176)"/><path d="M182.5245776326469,25.90332444134826L178.51437432315365,25.90332444134826L182.52457763264692,27.641930435114652z" style="fill:rgb(0,110,154)"/><path d="M186.53478094214023,14.560756799354737L182.52457763264692,14.560756799354737L187.76416066117093,17.16276380468718z" style="fill:rgb(0,178,249)"/><path d="M177.28499460412291,23.30131743601581L178.51437432315365,25.90332444134826L182.5245776326469,25.90332444134826z" style="fill:rgb(0,164,230)"/><path d="M178.51437432315362,14.560756799354737L177.2849946041229,17.16276380468718L182.52457763264692,17.162763804687184z" style="fill:rgb(0,172,242)"/><path d="M187.76416066117093,23.30131743601581L182.52457763264692,23.30131743601581L186.5347809421402,25.90332444134826z" style="fill:rgb(0,170,238)"/><path d="M182.52457763264692,14.560756799354737L178.51437432315362,14.560756799354737L182.52457763264692,17.162763804687184z" style="fill:rgb(0,172,242)"/><path d="M182.52457763264692,23.30131743601581L182.5245776326469,25.90332444134826L186.5347809421402,25.90332444134826z" style="fill:rgb(0,170,238)"/><path d="M187.76416066117093,17.16276380468718L182.52457763264692,17.162763804687184L188.1958614536437,20.232040620351498z" style="fill:rgb(0,202,283)"/><path d="M182.52457763264692,23.30131743601581L177.28499460412291,23.30131743601581L182.5245776326469,25.90332444134826z" style="fill:rgb(0,164,230)"/><path d="M182.52457763264692,14.560756799354737L182.52457763264692,17.162763804687184L187.76416066117093,17.16276380468718z" style="fill:rgb(0,178,249)"/><path d="M176.85329381165016,20.232040620351498L177.28499460412291,23.30131743601581L182.52457763264692,23.30131743601581z" style="fill:rgb(0,193,271)"/><path d="M177.2849946041229,17.16276380468718L176.85329381165016,20.232040620351498L182.52457763264692,20.2320406203515z" style="fill:rgb(0,196,275)"/><path d="M188.1958614536437,20.232040620351498L182.52457763264692,20.2320406203515L187.76416066117093,23.30131743601581z" style="fill:rgb(0,199,280)"/><path d="M182.52457763264692,17.162763804687184L177.2849946041229,17.16276380468718L182.52457763264692,20.2320406203515z" style="fill:rgb(0,196,275)"/><path d="M182.52457763264692,20.2320406203515L182.52457763264692,23.30131743601581L187.76416066117093,23.30131743601581z" style="fill:rgb(0,199,280)"/><path d="M182.52457763264692,17.162763804687184L182.52457763264692,20.2320406203515L188.1958614536437,20.232040620351498z" style="fill:rgb(0,202,283)"/><path d="M182.52457763264692,20.2320406203515L176.85329381165016,20.232040620351498L182.52457763264692,23.30131743601581z" style="fill:rgb(0,193,271)"/><path d="M-155.54591718877154,183.29671173423972L-147.52551056978493,183.29671173423972L-147.52551056978493,175.63452463349728zM-147.52551056978493,183.29671173423972L-139.50510395079831,183.29671173423972L-139.50510395079831,175.6345246334973zM-155.54591718877154,175.6345246334973L-155.54591718877154,183.29671173423972L-147.52551056978493,175.63452463349728zM-147.52551056978493,175.63452463349728L-147.52551056978493,183.29671173423972L-139.50510395079831,175.6345246334973zM-155.54591718877154,175.6345246334973L-147.52551056978493,175.63452463349728L-147.52551056978493,167.97233753275486zM-147.52551056978493,175.63452463349728L-139.50510395079831,175.6345246334973L-139.50510395079831,167.97233753275486zM-155.54591718877154,167.97233753275486L-155.54591718877154,175.6345246334973L-147.52551056978493,167.97233753275486zM-147.52551056978493,167.97233753275486L-147.52551056978493,175.63452463349728L-139.50510395079831,167.97233753275486z" style="fill:rgb(221,176,121)"/><path d="M-41.39101761534603,103.56582008815259L-44.46029443101034,104.17633689237604L-43.56132401933222,104.17633689237604z" style="fill:rgb(0,16,0)"/><path d="M-41.39101761534603,103.56582008815259L-39.22071121135985,104.17633689237604L-38.32174079968171,104.17633689237604z" style="fill:rgb(0,18,0)"/><path d="M-38.32174079968171,104.17633689237604L-39.22071121135985,104.17633689237604L-35.71973379434927,105.91494288614243z" style="fill:rgb(0,41,0)"/><path d="M-47.06230143634279,117.25751052813595L-44.46029443101034,118.99611652190235L-43.56132401933222,118.99611652190234z" style="fill:rgb(0,26,0)"/><path d="M-43.56132401933222,118.99611652190234L-44.46029443101034,118.99611652190235L-41.39101761534603,119.60663332612579z" style="fill:rgb(0,5,0)"/><path d="M-38.32174079968171,118.99611652190235L-39.22071121135985,118.99611652190234L-41.39101761534603,119.60663332612579z" style="fill:rgb(0,8,0)"/><path d="M-35.71973379434927,105.91494288614243L-37.380814305852724,105.91494288614241L-33.981127800582875,108.51694989147488z" style="fill:rgb(0,57,0)"/><path d="M-35.71973379434927,117.25751052813597L-37.380814305852724,117.25751052813595L-38.32174079968171,118.99611652190235z" style="fill:rgb(0,33,0)"/><path d="M-44.46029443101034,104.17633689237604L-47.06230143634279,105.91494288614241L-45.40122092483933,105.91494288614243z" style="fill:rgb(0,35,0)"/><path d="M-48.80090743010918,114.6555035228035L-47.06230143634279,117.25751052813595L-45.40122092483933,117.25751052813595z" style="fill:rgb(0,42,0)"/><path d="M-47.06230143634279,105.91494288614241L-48.80090743010918,108.51694989147485L-46.63060064387007,108.51694989147488z" style="fill:rgb(0,48,0)"/><path d="M-33.981127800582875,108.51694989147488L-36.15143458682199,108.51694989147488L-33.370610996359424,111.58622670713919z" style="fill:rgb(0,63,0)"/><path d="M-49.411424234332635,111.58622670713919L-48.80090743010918,114.6555035228035L-46.63060064387007,114.6555035228035zM-33.981127800582875,114.6555035228035L-36.15143458682199,114.6555035228035L-35.71973379434927,117.25751052813597z" style="fill:rgb(0,51,0)"/><path d="M-41.39101761534603,118.99611652190234L-43.56132401933222,118.99611652190234L-41.39101761534603,119.60663332612579z" style="fill:rgb(0,24,0)"/><path d="M-39.22071121135985,118.99611652190234L-41.39101761534603,118.99611652190234L-41.39101761534603,119.60663332612579z" style="fill:rgb(0,25,0)"/><path d="M-41.39101761534603,103.56582008815259L-43.56132401933222,104.17633689237604L-41.39101761534603,104.17633689237603z" style="fill:rgb(0,34,0)"/><path d="M-41.39101761534603,103.56582008815259L-41.39101761534603,104.17633689237603L-39.22071121135985,104.17633689237604z" style="fill:rgb(0,35,0)"/><path d="M-48.80090743010918,108.51694989147485L-49.411424234332635,111.58622670713919L-47.06230143634279,111.58622670713919z" style="fill:rgb(0,53,0)"/><path d="M-33.370610996359424,111.58622670713919L-35.71973379434927,111.58622670713919L-33.981127800582875,114.6555035228035z" style="fill:rgb(0,61,0)"/><path d="M-43.56132401933222,104.17633689237604L-44.46029443101034,104.17633689237604L-45.40122092483933,105.91494288614243z" style="fill:rgb(0,35,0)"/><path d="M-39.22071121135985,104.17633689237604L-37.380814305852724,105.91494288614241L-35.71973379434927,105.91494288614243z" style="fill:rgb(0,41,0)"/><path d="M-45.40122092483933,117.25751052813595L-47.06230143634279,117.25751052813595L-43.56132401933222,118.99611652190234z" style="fill:rgb(0,26,0)"/><path d="M-37.380814305852724,117.25751052813595L-39.22071121135985,118.99611652190234L-38.32174079968171,118.99611652190235z" style="fill:rgb(0,33,0)"/><path d="M-45.40122092483933,105.91494288614243L-47.06230143634279,105.91494288614241L-46.63060064387007,108.51694989147488z" style="fill:rgb(0,48,0)"/><path d="M-37.380814305852724,105.91494288614241L-36.15143458682199,108.51694989147488L-33.981127800582875,108.51694989147488z" style="fill:rgb(0,57,0)"/><path d="M-46.63060064387007,114.6555035228035L-48.80090743010918,114.6555035228035L-45.40122092483933,117.25751052813595z" style="fill:rgb(0,42,0)"/><path d="M-36.15143458682199,114.6555035228035L-37.380814305852724,117.25751052813595L-35.71973379434927,117.25751052813597z" style="fill:rgb(0,51,0)"/><path d="M-39.22071121135985,104.17633689237604L-41.39101761534603,104.17633689237603L-37.380814305852724,105.91494288614241z" style="fill:rgb(0,88,0)"/><path d="M-45.40122092483933,117.25751052813595L-43.56132401933222,118.99611652190234L-41.39101761534603,118.99611652190234z" style="fill:rgb(0,77,0)"/><path d="M-46.63060064387007,108.51694989147488L-48.80090743010918,108.51694989147485L-47.06230143634279,111.58622670713919z" style="fill:rgb(0,53,0)"/><path d="M-36.15143458682199,108.51694989147488L-35.71973379434927,111.58622670713919L-33.370610996359424,111.58622670713919z" style="fill:rgb(0,63,0)"/><path d="M-47.06230143634279,111.58622670713919L-49.411424234332635,111.58622670713919L-46.63060064387007,114.6555035228035z" style="fill:rgb(0,51,0)"/><path d="M-35.71973379434927,111.58622670713919L-36.15143458682199,114.6555035228035L-33.981127800582875,114.6555035228035z" style="fill:rgb(0,61,0)"/><path d="M-41.39101761534603,104.17633689237603L-43.56132401933222,104.17633689237604L-41.39101761534603,105.91494288614243z" style="fill:rgb(0,86,0)"/><path d="M-41.39101761534603,117.25751052813597L-41.39101761534603,118.99611652190234L-39.22071121135985,118.99611652190234zM-37.380814305852724,117.25751052813595L-41.39101761534603,117.25751052813597L-39.22071121135985,118.99611652190234z" style="fill:rgb(0,79,0)"/><path d="M-43.56132401933222,104.17633689237604L-45.40122092483933,105.91494288614243L-41.39101761534603,105.91494288614243z" style="fill:rgb(0,86,0)"/><path d="M-41.39101761534603,117.25751052813597L-45.40122092483933,117.25751052813595L-41.39101761534603,118.99611652190234z" style="fill:rgb(0,77,0)"/><path d="M-41.39101761534603,104.17633689237603L-41.39101761534603,105.91494288614243L-37.380814305852724,105.91494288614241z" style="fill:rgb(0,88,0)"/><path d="M-37.380814305852724,105.91494288614241L-41.39101761534603,105.91494288614243L-36.15143458682199,108.51694989147488z" style="fill:rgb(0,125,0)"/><path d="M-46.63060064387007,114.6555035228035L-45.40122092483933,117.25751052813595L-41.39101761534603,117.25751052813597z" style="fill:rgb(0,115,0)"/><path d="M-45.40122092483933,105.91494288614243L-46.63060064387007,108.51694989147488L-41.39101761534603,108.5169498914749z" style="fill:rgb(0,121,0)"/><path d="M-36.15143458682199,114.6555035228035L-41.39101761534603,114.65550352280349L-37.380814305852724,117.25751052813595z" style="fill:rgb(0,119,0)"/><path d="M-41.39101761534603,105.91494288614243L-45.40122092483933,105.91494288614243L-41.39101761534603,108.5169498914749z" style="fill:rgb(0,121,0)"/><path d="M-41.39101761534603,114.65550352280349L-41.39101761534603,117.25751052813597L-37.380814305852724,117.25751052813595z" style="fill:rgb(0,119,0)"/><path d="M-36.15143458682199,108.51694989147488L-41.39101761534603,108.5169498914749L-35.71973379434927,111.58622670713919z" style="fill:rgb(0,142,0)"/><path d="M-41.39101761534603,114.65550352280349L-46.63060064387007,114.6555035228035L-41.39101761534603,117.25751052813597z" style="fill:rgb(0,115,0)"/><path d="M-41.39101761534603,105.91494288614243L-41.39101761534603,108.5169498914749L-36.15143458682199,108.51694989147488z" style="fill:rgb(0,125,0)"/><path d="M-47.06230143634279,111.58622670713919L-46.63060064387007,114.6555035228035L-41.39101761534603,114.65550352280349z" style="fill:rgb(0,136,0)"/><path d="M-46.63060064387007,108.51694989147488L-47.06230143634279,111.58622670713919L-41.39101761534603,111.58622670713919z" style="fill:rgb(0,138,0)"/><path d="M-35.71973379434927,111.58622670713919L-41.39101761534603,111.58622670713919L-36.15143458682199,114.6555035228035z" style="fill:rgb(0,140,0)"/><path d="M-41.39101761534603,108.5169498914749L-46.63060064387007,108.51694989147488L-41.39101761534603,111.58622670713919z" style="fill:rgb(0,138,0)"/><path d="M-41.39101761534603,111.58622670713919L-41.39101761534603,114.65550352280349L-36.15143458682199,114.6555035228035z" style="fill:rgb(0,140,0)"/><path d="M-41.39101761534603,108.5169498914749L-41.39101761534603,111.58622670713919L-35.71973379434927,111.58622670713919z" style="fill:rgb(0,142,0)"/><path d="M-41.39101761534603,111.58622670713919L-47.06230143634279,111.58622670713919L-41.39101761534603,114.65550352280349z" style="fill:rgb(0,136,0)"/><path d="M-94.18272091803809,127.76881010853329L-97.25199773370241,128.37932691275674L-96.35302732202429,128.37932691275674z" style="fill:rgb(25,20,13)"/><path d="M-94.18272091803809,127.76881010853329L-92.0124145140519,128.37932691275674L-91.11344410237379,128.37932691275674z" style="fill:rgb(28,22,15)"/><path d="M-91.11344410237379,128.37932691275674L-92.0124145140519,128.37932691275674L-88.51143709704132,130.11793290652315z" style="fill:rgb(64,51,34)"/><path d="M-99.85400473903486,141.46050054851668L-97.25199773370241,143.19910654228306L-96.35302732202429,143.19910654228306z" style="fill:rgb(41,32,22)"/><path d="M-96.35302732202429,143.19910654228306L-97.25199773370241,143.19910654228306L-94.18272091803809,143.8096233465065z" style="fill:rgb(9,7,4)"/><path d="M-91.11344410237379,143.19910654228306L-92.0124145140519,143.19910654228306L-94.18272091803809,143.8096233465065z" style="fill:rgb(12,9,6)"/><path d="M-97.25199773370241,128.37932691275674L-99.85400473903486,130.11793290652315L-98.19292422753139,130.11793290652312z" style="fill:rgb(54,43,29)"/><path d="M-88.51143709704132,130.11793290652315L-90.1725176085448,130.11793290652315L-86.77283110327494,132.7199399118556z" style="fill:rgb(87,69,47)"/><path d="M-101.59261073280125,138.8584935431842L-99.85400473903486,141.46050054851668L-98.19292422753139,141.46050054851668z" style="fill:rgb(65,51,35)"/><path d="M-88.51143709704132,141.46050054851668L-90.17251760854481,141.46050054851668L-91.11344410237379,143.19910654228306z" style="fill:rgb(50,40,27)"/><path d="M-99.85400473903486,130.11793290652315L-101.59261073280128,132.7199399118556L-99.42230394656214,132.7199399118556z" style="fill:rgb(73,58,40)"/><path d="M-86.77283110327494,132.7199399118556L-88.94313788951408,132.7199399118556L-86.1623142990515,135.78921672751991z" style="fill:rgb(97,77,53)"/><path d="M-102.2031275370247,135.7892167275199L-101.59261073280125,138.8584935431842L-99.42230394656214,138.8584935431842z" style="fill:rgb(79,62,43)"/><path d="M-86.77283110327495,138.8584935431842L-88.94313788951408,138.8584935431842L-88.51143709704132,141.46050054851668z" style="fill:rgb(78,62,43)"/><path d="M-94.18272091803809,127.76881010853329L-94.18272091803809,128.37932691275674L-92.0124145140519,128.37932691275674z" style="fill:rgb(54,43,29)"/><path d="M-94.18272091803809,127.76881010853329L-96.35302732202429,128.37932691275674L-94.18272091803809,128.37932691275674z" style="fill:rgb(53,42,28)"/><path d="M-94.18272091803809,143.19910654228306L-96.35302732202429,143.19910654228306L-94.18272091803809,143.8096233465065z" style="fill:rgb(36,29,20)"/><path d="M-92.0124145140519,143.19910654228306L-94.18272091803809,143.19910654228306L-94.18272091803809,143.8096233465065z" style="fill:rgb(38,30,20)"/><path d="M-101.59261073280128,132.7199399118556L-102.2031275370247,135.7892167275199L-99.85400473903488,135.78921672751994z" style="fill:rgb(81,65,44)"/><path d="M-86.1623142990515,135.78921672751991L-88.51143709704132,135.78921672751991L-86.77283110327495,138.8584935431842z" style="fill:rgb(94,75,51)"/><path d="M-96.35302732202429,128.37932691275674L-97.25199773370241,128.37932691275674L-98.19292422753139,130.11793290652312z" style="fill:rgb(54,43,29)"/><path d="M-92.0124145140519,128.37932691275674L-90.1725176085448,130.11793290652315L-88.51143709704132,130.11793290652315z" style="fill:rgb(64,51,34)"/><path d="M-98.19292422753139,141.46050054851668L-99.85400473903486,141.46050054851668L-96.35302732202429,143.19910654228306z" style="fill:rgb(41,32,22)"/><path d="M-90.17251760854481,141.46050054851668L-92.0124145140519,143.19910654228306L-91.11344410237379,143.19910654228306z" style="fill:rgb(50,40,27)"/><path d="M-148.44608286871332,154.42973284351558L-140.42567624972673,154.42973284351558L-140.4256762497267,146.76754574277314zM-140.42567624972673,154.42973284351558L-132.40526963074012,154.4297328435156L-132.4052696307401,146.76754574277314z" style="fill:rgb(0,144,0)"/><path d="M-98.19292422753139,130.11793290652312L-99.85400473903486,130.11793290652315L-99.42230394656214,132.7199399118556z" style="fill:rgb(73,58,40)"/><path d="M-90.1725176085448,130.11793290652315L-88.94313788951408,132.7199399118556L-86.77283110327494,132.7199399118556z" style="fill:rgb(87,69,47)"/><path d="M-99.42230394656214,138.8584935431842L-101.59261073280125,138.8584935431842L-98.19292422753139,141.46050054851668z" style="fill:rgb(65,51,35)"/><path d="M-88.94313788951408,138.8584935431842L-90.17251760854481,141.46050054851668L-88.51143709704132,141.46050054851668z" style="fill:rgb(78,62,43)"/><path d="M-98.19292422753139,141.46050054851668L-96.35302732202429,143.19910654228306L-94.18272091803809,143.19910654228306z" style="fill:rgb(118,94,64)"/><path d="M-92.0124145140519,128.37932691275674L-94.18272091803809,128.37932691275674L-90.1725176085448,130.11793290652315z" style="fill:rgb(135,108,74)"/><path d="M-148.44608286871332,146.76754574277314L-148.44608286871332,154.42973284351558L-140.4256762497267,146.76754574277314zM-140.4256762497267,146.76754574277314L-140.42567624972673,154.42973284351558L-132.4052696307401,146.76754574277314z" style="fill:rgb(0,144,0)"/><path d="M-99.42230394656214,132.7199399118556L-101.59261073280128,132.7199399118556L-99.85400473903488,135.78921672751994z" style="fill:rgb(81,65,44)"/><path d="M-88.94313788951408,132.7199399118556L-88.51143709704132,135.78921672751991L-86.1623142990515,135.78921672751991z" style="fill:rgb(97,77,53)"/><path d="M-99.85400473903488,135.78921672751994L-102.2031275370247,135.7892167275199L-99.42230394656214,138.8584935431842z" style="fill:rgb(79,62,43)"/><path d="M-88.51143709704132,135.78921672751991L-88.94313788951408,138.8584935431842L-86.77283110327495,138.8584935431842z" style="fill:rgb(94,75,51)"/><path d="M-94.1827209180381,141.46050054851668L-94.18272091803809,143.19910654228306L-92.0124145140519,143.19910654228306z" style="fill:rgb(122,97,66)"/><path d="M-94.18272091803809,128.37932691275674L-96.35302732202429,128.37932691275674L-94.1827209180381,130.11793290652315zM-96.35302732202429,128.37932691275674L-98.19292422753139,130.11793290652312L-94.1827209180381,130.11793290652315z" style="fill:rgb(131,104,72)"/><path d="M-90.17251760854481,141.46050054851668L-94.1827209180381,141.46050054851668L-92.0124145140519,143.19910654228306z" style="fill:rgb(122,97,66)"/><path d="M-94.18272091803809,128.37932691275674L-94.1827209180381,130.11793290652315L-90.1725176085448,130.11793290652315z" style="fill:rgb(135,108,74)"/><path d="M-94.1827209180381,141.46050054851668L-98.19292422753139,141.46050054851668L-94.18272091803809,143.19910654228306z" style="fill:rgb(118,94,64)"/><path d="M-148.44608286871332,146.76754574277314L-140.4256762497267,146.76754574277314L-140.4256762497267,139.1053586420307zM-140.4256762497267,146.76754574277314L-132.4052696307401,146.76754574277314L-132.40526963074012,139.1053586420307z" style="fill:rgb(0,144,0)"/><path d="M-90.1725176085448,130.11793290652315L-94.1827209180381,130.11793290652315L-88.94313788951408,132.7199399118556z" style="fill:rgb(191,152,104)"/><path d="M-99.42230394656214,138.8584935431842L-98.19292422753139,141.46050054851668L-94.1827209180381,141.46050054851668z" style="fill:rgb(177,141,96)"/><path d="M-98.19292422753139,130.11793290652312L-99.42230394656214,132.7199399118556L-94.1827209180381,132.7199399118556z" style="fill:rgb(186,148,101)"/><path d="M-88.94313788951408,138.8584935431842L-94.1827209180381,138.8584935431842L-90.17251760854481,141.46050054851668z" style="fill:rgb(183,145,99)"/><path d="M-148.44608286871332,139.1053586420307L-148.44608286871332,146.76754574277314L-140.4256762497267,139.1053586420307zM-140.4256762497267,139.1053586420307L-140.4256762497267,146.76754574277314L-132.40526963074012,139.1053586420307z" style="fill:rgb(0,144,0)"/><path d="M-94.1827209180381,138.8584935431842L-94.1827209180381,141.46050054851668L-90.17251760854481,141.46050054851668z" style="fill:rgb(183,145,99)"/><path d="M-94.1827209180381,130.11793290652315L-98.19292422753139,130.11793290652312L-94.1827209180381,132.7199399118556z" style="fill:rgb(186,148,101)"/><path d="M-94.1827209180381,130.11793290652315L-94.1827209180381,132.7199399118556L-88.94313788951408,132.7199399118556z" style="fill:rgb(191,152,104)"/><path d="M-88.94313788951408,132.7199399118556L-94.1827209180381,132.7199399118556L-88.51143709704132,135.78921672751991z" style="fill:rgb(218,173,119)"/><path d="M-99.85400473903488,135.78921672751994L-99.42230394656214,138.8584935431842L-94.1827209180381,138.8584935431842z" style="fill:rgb(208,166,113)"/><path d="M-94.1827209180381,138.8584935431842L-99.42230394656214,138.8584935431842L-94.1827209180381,141.46050054851668z" style="fill:rgb(177,141,96)"/><path d="M-88.51143709704132,135.78921672751991L-94.1827209180381,135.78921672751991L-88.94313788951408,138.8584935431842z" style="fill:rgb(215,171,117)"/><path d="M-99.42230394656214,132.7199399118556L-99.85400473903488,135.78921672751994L-94.1827209180381,135.78921672751991z" style="fill:rgb(211,168,115)"/><path d="M-94.1827209180381,135.78921672751991L-94.1827209180381,138.8584935431842L-88.94313788951408,138.8584935431842z" style="fill:rgb(215,171,117)"/><path d="M-94.1827209180381,132.7199399118556L-99.42230394656214,132.7199399118556L-94.1827209180381,135.78921672751991z" style="fill:rgb(211,168,115)"/><path d="M-94.1827209180381,135.78921672751991L-99.85400473903488,135.78921672751994L-94.1827209180381,138.8584935431842z" style="fill:rgb(208,166,113)"/><path d="M-94.1827209180381,132.7199399118556L-94.1827209180381,135.78921672751991L-88.51143709704132,135.78921672751991z" style="fill:rgb(218,173,119)"/><path d="M-214.89391420720082,-146.50177230352222L-206.87350758821418,-146.5017723035222L-206.87350758821418,-154.16395940426463zM-206.87350758821418,-146.5017723035222L-198.85310096922763,-146.5017723035222L-198.85310096922757,-154.16395940426463zM-214.89391420720082,-154.16395940426463L-214.89391420720082,-146.50177230352222L-206.87350758821418,-154.16395940426463zM-206.87350758821418,-154.16395940426463L-206.87350758821418,-146.5017723035222L-198.85310096922757,-154.16395940426463zM-214.89391420720082,-154.16395940426463L-206.87350758821418,-154.16395940426463L-206.87350758821418,-161.82614650500707zM-206.87350758821418,-154.16395940426463L-198.85310096922757,-154.16395940426463L-198.85310096922763,-161.82614650500707zM-214.89391420720077,-161.82614650500707L-214.89391420720082,-154.16395940426463L-206.87350758821418,-161.82614650500707zM-206.87350758821418,-161.82614650500707L-206.87350758821418,-154.16395940426463L-198.85310096922763,-161.82614650500707z" style="fill:rgb(0,144,144)"/><path d="M-178.07460357998548,50.82309285948261L-170.0541969609989,50.82309285948261L-170.05419696099887,43.16090575874018zM-170.0541969609989,50.82309285948261L-162.03379034201228,50.82309285948261L-162.03379034201228,43.16090575874018zM-178.0746035799855,43.16090575874018L-178.07460357998548,50.82309285948261L-170.05419696099887,43.16090575874018zM-170.05419696099887,43.16090575874018L-170.0541969609989,50.82309285948261L-162.03379034201228,43.16090575874018zM-178.0746035799855,43.16090575874018L-170.05419696099887,43.16090575874018L-170.0541969609989,35.49871865799775zM-170.05419696099887,43.16090575874018L-162.03379034201228,43.16090575874018L-162.03379034201228,35.49871865799775zM-178.07460357998548,35.49871865799775L-178.0746035799855,43.16090575874018L-170.0541969609989,35.49871865799775zM-170.0541969609989,35.49871865799775L-170.05419696099887,43.16090575874018L-162.03379034201228,35.49871865799775z" style="fill:rgb(288,288,0)"/><path d="M-191.5218988933235,-195.80031694556888L-194.59117570898783,-195.18980014134544L-193.6922052973097,-195.18980014134544z" style="fill:rgb(0,16,16)"/><path d="M-191.5218988933235,-195.80031694556888L-189.35159248933732,-195.1898001413455L-188.45262207765919,-195.18980014134544z" style="fill:rgb(0,18,18)"/><path d="M-188.45262207765919,-195.18980014134544L-189.35159248933732,-195.1898001413455L-185.85061507232675,-193.45119414757906z" style="fill:rgb(0,41,41)"/><path d="M-197.19318271432027,-182.1086265055856L-194.59117570898783,-180.37002051181918L-193.6922052973097,-180.37002051181918z" style="fill:rgb(0,26,26)"/><path d="M-193.6922052973097,-180.37002051181918L-194.59117570898783,-180.37002051181918L-191.5218988933235,-179.7595037075957z" style="fill:rgb(0,5,5)"/><path d="M-188.45262207765919,-180.37002051181918L-189.35159248933732,-180.37002051181912L-191.5218988933235,-179.7595037075957z" style="fill:rgb(0,8,8)"/><path d="M-194.59117570898783,-195.18980014134544L-197.19318271432027,-193.45119414757906L-195.5321022028168,-193.4511941475791z" style="fill:rgb(0,35,35)"/><path d="M-185.85061507232675,-193.45119414757906L-187.5116955838302,-193.4511941475791L-184.11200907856036,-190.84918714224665z" style="fill:rgb(0,57,57)"/><path d="M-198.93178870808669,-184.71063351091797L-197.19318271432027,-182.1086265055856L-195.5321022028168,-182.1086265055856z" style="fill:rgb(0,42,42)"/><path d="M-185.85061507232675,-182.1086265055856L-187.51169558383023,-182.10862650558553L-188.45262207765919,-180.37002051181918z" style="fill:rgb(0,33,33)"/><path d="M-184.11200907856036,-190.84918714224665L-186.2823158647995,-190.8491871422466L-183.5014922743369,-187.77991032658232z" style="fill:rgb(0,63,63)"/><path d="M-184.11200907856036,-184.71063351091797L-186.2823158647995,-184.71063351091803L-185.85061507232675,-182.1086265055856z" style="fill:rgb(0,51,51)"/><path d="M-197.19318271432027,-193.45119414757906L-198.93178870808666,-190.84918714224665L-196.76148192184752,-190.8491871422466z" style="fill:rgb(0,48,48)"/><path d="M-199.54230551231012,-187.77991032658232L-198.93178870808669,-184.71063351091797L-196.76148192184752,-184.71063351091803z" style="fill:rgb(0,51,51)"/><path d="M-191.5218988933235,-195.80031694556888L-193.6922052973097,-195.18980014134544L-191.5218988933235,-195.1898001413455z" style="fill:rgb(0,34,34)"/><path d="M-191.5218988933235,-195.80031694556888L-191.5218988933235,-195.1898001413455L-189.35159248933732,-195.1898001413455z" style="fill:rgb(0,35,35)"/><path d="M-191.5218988933235,-180.37002051181918L-193.6922052973097,-180.37002051181918L-191.5218988933235,-179.7595037075957z" style="fill:rgb(0,24,24)"/><path d="M-189.35159248933732,-180.37002051181912L-191.5218988933235,-180.37002051181918L-191.5218988933235,-179.7595037075957z" style="fill:rgb(0,25,25)"/><path d="M-198.93178870808666,-190.84918714224665L-199.54230551231012,-187.77991032658232L-197.19318271432027,-187.77991032658232z" style="fill:rgb(0,53,53)"/><path d="M-183.5014922743369,-187.77991032658232L-185.85061507232675,-187.77991032658232L-184.11200907856036,-184.71063351091797z" style="fill:rgb(0,61,61)"/><path d="M-193.6922052973097,-195.18980014134544L-194.59117570898783,-195.18980014134544L-195.5321022028168,-193.4511941475791z" style="fill:rgb(0,35,35)"/><path d="M-189.35159248933732,-195.1898001413455L-187.5116955838302,-193.4511941475791L-185.85061507232675,-193.45119414757906z" style="fill:rgb(0,41,41)"/><path d="M-195.5321022028168,-182.1086265055856L-197.19318271432027,-182.1086265055856L-193.6922052973097,-180.37002051181918z" style="fill:rgb(0,26,26)"/><path d="M-187.51169558383023,-182.10862650558553L-189.35159248933732,-180.37002051181912L-188.45262207765919,-180.37002051181918z" style="fill:rgb(0,33,33)"/><path d="M-195.5321022028168,-193.4511941475791L-197.19318271432027,-193.45119414757906L-196.76148192184752,-190.8491871422466z" style="fill:rgb(0,48,48)"/><path d="M-187.5116955838302,-193.4511941475791L-186.2823158647995,-190.8491871422466L-184.11200907856036,-190.84918714224665z" style="fill:rgb(0,57,57)"/><path d="M-196.76148192184752,-184.71063351091803L-198.93178870808669,-184.71063351091797L-195.5321022028168,-182.1086265055856z" style="fill:rgb(0,42,42)"/><path d="M-186.2823158647995,-184.71063351091803L-187.51169558383023,-182.10862650558553L-185.85061507232675,-182.1086265055856z" style="fill:rgb(0,51,51)"/><path d="M-189.35159248933732,-195.1898001413455L-191.5218988933235,-195.1898001413455L-187.5116955838302,-193.4511941475791z" style="fill:rgb(0,88,88)"/><path d="M-195.5321022028168,-182.1086265055856L-193.6922052973097,-180.37002051181918L-191.5218988933235,-180.37002051181918z" style="fill:rgb(0,77,77)"/><path d="M-196.76148192184752,-190.8491871422466L-198.93178870808666,-190.84918714224665L-197.19318271432027,-187.77991032658232z" style="fill:rgb(0,53,53)"/><path d="M-186.2823158647995,-190.8491871422466L-185.85061507232675,-187.77991032658232L-183.5014922743369,-187.77991032658232z" style="fill:rgb(0,63,63)"/><path d="M-197.19318271432027,-187.77991032658232L-199.54230551231012,-187.77991032658232L-196.76148192184752,-184.71063351091803z" style="fill:rgb(0,51,51)"/><path d="M-185.85061507232675,-187.77991032658232L-186.2823158647995,-184.71063351091803L-184.11200907856036,-184.71063351091797z" style="fill:rgb(0,61,61)"/><path d="M-191.5218988933235,-195.1898001413455L-193.6922052973097,-195.18980014134544L-191.5218988933235,-193.4511941475791z" style="fill:rgb(0,86,86)"/><path d="M-191.5218988933235,-182.1086265055856L-191.5218988933235,-180.37002051181918L-189.35159248933732,-180.37002051181912z" style="fill:rgb(0,79,79)"/><path d="M-193.6922052973097,-195.18980014134544L-195.5321022028168,-193.4511941475791L-191.5218988933235,-193.4511941475791z" style="fill:rgb(0,86,86)"/><path d="M-187.51169558383023,-182.10862650558553L-191.5218988933235,-182.1086265055856L-189.35159248933732,-180.37002051181912z" style="fill:rgb(0,79,79)"/><path d="M-191.5218988933235,-195.1898001413455L-191.5218988933235,-193.4511941475791L-187.5116955838302,-193.4511941475791z" style="fill:rgb(0,88,88)"/><path d="M-191.5218988933235,-182.1086265055856L-195.5321022028168,-182.1086265055856L-191.5218988933235,-180.37002051181918z" style="fill:rgb(0,77,77)"/><path d="M-187.5116955838302,-193.4511941475791L-191.5218988933235,-193.4511941475791L-186.2823158647995,-190.8491871422466z" style="fill:rgb(0,125,125)"/><path d="M-196.76148192184752,-184.71063351091803L-195.5321022028168,-182.1086265055856L-191.5218988933235,-182.1086265055856z" style="fill:rgb(0,115,115)"/><path d="M-195.5321022028168,-193.4511941475791L-196.76148192184752,-190.8491871422466L-191.5218988933235,-190.84918714224665z" style="fill:rgb(0,121,121)"/><path d="M-186.2823158647995,-184.71063351091803L-191.5218988933235,-184.71063351091803L-187.51169558383023,-182.10862650558553z" style="fill:rgb(0,119,119)"/><path d="M-191.5218988933235,-193.4511941475791L-195.5321022028168,-193.4511941475791L-191.5218988933235,-190.84918714224665z" style="fill:rgb(0,121,121)"/><path d="M-191.5218988933235,-184.71063351091803L-191.5218988933235,-182.1086265055856L-187.51169558383023,-182.10862650558553z" style="fill:rgb(0,119,119)"/><path d="M-191.5218988933235,-193.4511941475791L-191.5218988933235,-190.84918714224665L-186.2823158647995,-190.8491871422466z" style="fill:rgb(0,125,125)"/><path d="M-186.2823158647995,-190.8491871422466L-191.5218988933235,-190.84918714224665L-185.85061507232675,-187.77991032658232z" style="fill:rgb(0,142,142)"/><path d="M-197.19318271432027,-187.77991032658232L-196.76148192184752,-184.71063351091803L-191.5218988933235,-184.71063351091803z" style="fill:rgb(0,136,136)"/><path d="M-191.5218988933235,-184.71063351091803L-196.76148192184752,-184.71063351091803L-191.5218988933235,-182.1086265055856z" style="fill:rgb(0,115,115)"/><path d="M-196.76148192184752,-190.8491871422466L-197.19318271432027,-187.77991032658232L-191.5218988933235,-187.77991032658227z" style="fill:rgb(0,138,138)"/><path d="M-185.85061507232675,-187.77991032658232L-191.5218988933235,-187.77991032658227L-186.2823158647995,-184.71063351091803z" style="fill:rgb(0,140,140)"/><path d="M-191.5218988933235,-190.84918714224665L-196.76148192184752,-190.8491871422466L-191.5218988933235,-187.77991032658227z" style="fill:rgb(0,138,138)"/><path d="M-191.5218988933235,-187.77991032658227L-191.5218988933235,-184.71063351091803L-186.2823158647995,-184.71063351091803z" style="fill:rgb(0,140,140)"/><path d="M-191.5218988933235,-190.84918714224665L-191.5218988933235,-187.77991032658227L-185.85061507232675,-187.77991032658232z" style="fill:rgb(0,142,142)"/><path d="M-191.5218988933235,-187.77991032658227L-197.19318271432027,-187.77991032658232L-191.5218988933235,-184.71063351091803z" style="fill:rgb(0,136,136)"/><path d="M-161.38707074294112,-0.4009322947207338L-164.45634755860547,0.20958450950272298L-163.55737714692734,0.2095845095027117z" style="fill:rgb(32,32,0)"/><path d="M-161.38707074294112,-0.4009322947207338L-159.21676433895496,0.2095845095027117L-158.31779392727682,0.20958450950272298z" style="fill:rgb(37,37,0)"/><path d="M-158.31779392727682,0.20958450950272298L-159.21676433895496,0.2095845095027117L-155.71578692194436,1.9481905032691031z" style="fill:rgb(83,83,0)"/><path d="M-167.0583545639379,13.290758145262627L-164.45634755860544,15.029364139029019L-163.55737714692734,15.029364139029019z" style="fill:rgb(53,53,0)"/><path d="M-163.55737714692734,15.029364139029019L-164.45634755860544,15.029364139029019L-161.38707074294115,15.63988094325247z" style="fill:rgb(11,11,0)"/><path d="M-158.3177939272768,15.029364139029024L-159.21676433895496,15.029364139029019L-161.38707074294115,15.63988094325247z" style="fill:rgb(16,16,0)"/><path d="M-164.45634755860547,0.20958450950272298L-167.0583545639379,1.9481905032691031L-165.39727405243445,1.9481905032691031z" style="fill:rgb(71,71,0)"/><path d="M-155.71578692194436,1.9481905032691031L-157.3768674334478,1.9481905032691087L-153.97718092817797,4.550197508601552z" style="fill:rgb(114,114,0)"/><path d="M-168.7969605577043,10.688751139930183L-167.0583545639379,13.290758145262627L-165.39727405243443,13.290758145262627z" style="fill:rgb(84,84,0)"/><path d="M-155.71578692194436,13.290758145262632L-157.37686743344784,13.290758145262632L-158.3177939272768,15.029364139029024z" style="fill:rgb(65,65,0)"/><path d="M-167.0583545639379,1.9481905032691031L-168.7969605577043,4.550197508601558L-166.62665377146516,4.550197508601558z" style="fill:rgb(96,96,0)"/><path d="M-153.97718092817797,4.550197508601552L-156.1474877144171,4.550197508601558L-153.36666412395454,7.619474324265865z" style="fill:rgb(127,127,0)"/><path d="M-169.40747736192773,7.619474324265865L-168.7969605577043,10.688751139930183L-166.62665377146516,10.688751139930183zM-153.97718092817797,10.688751139930183L-156.1474877144171,10.688751139930183L-155.71578692194436,13.290758145262632z" style="fill:rgb(102,102,0)"/><path d="M-161.38707074294112,-0.4009322947207338L-161.38707074294112,0.20958450950272298L-159.21676433895496,0.2095845095027117z" style="fill:rgb(70,70,0)"/><path d="M-161.38707074294112,-0.4009322947207338L-163.55737714692734,0.2095845095027117L-161.38707074294112,0.20958450950272298z" style="fill:rgb(69,69,0)"/><path d="M-161.38707074294115,15.029364139029019L-163.55737714692734,15.029364139029019L-161.38707074294115,15.63988094325247z" style="fill:rgb(48,48,0)"/><path d="M-159.21676433895496,15.029364139029019L-161.38707074294115,15.029364139029019L-161.38707074294115,15.63988094325247z" style="fill:rgb(49,49,0)"/><path d="M-168.7969605577043,4.550197508601558L-169.40747736192773,7.619474324265865L-167.0583545639379,7.6194743242658705z" style="fill:rgb(106,106,0)"/><path d="M-153.36666412395454,7.619474324265865L-155.71578692194439,7.619474324265865L-153.97718092817797,10.688751139930183z" style="fill:rgb(123,123,0)"/><path d="M-163.55737714692734,0.2095845095027117L-164.45634755860547,0.20958450950272298L-165.39727405243445,1.9481905032691031z" style="fill:rgb(71,71,0)"/><path d="M-159.21676433895496,0.2095845095027117L-157.3768674334478,1.9481905032691087L-155.71578692194436,1.9481905032691031z" style="fill:rgb(83,83,0)"/><path d="M-165.39727405243443,13.290758145262627L-167.0583545639379,13.290758145262627L-163.55737714692734,15.029364139029019z" style="fill:rgb(53,53,0)"/><path d="M-157.37686743344784,13.290758145262632L-159.21676433895496,15.029364139029019L-158.3177939272768,15.029364139029024z" style="fill:rgb(65,65,0)"/><path d="M-165.39727405243445,1.9481905032691031L-167.0583545639379,1.9481905032691031L-166.62665377146516,4.550197508601558z" style="fill:rgb(96,96,0)"/><path d="M-157.3768674334478,1.9481905032691087L-156.1474877144171,4.550197508601558L-153.97718092817797,4.550197508601552z" style="fill:rgb(114,114,0)"/><path d="M-166.62665377146516,10.688751139930183L-168.7969605577043,10.688751139930183L-165.39727405243443,13.290758145262627z" style="fill:rgb(84,84,0)"/><path d="M-156.1474877144171,10.688751139930183L-157.37686743344784,13.290758145262632L-155.71578692194436,13.290758145262632z" style="fill:rgb(102,102,0)"/><path d="M-159.21676433895496,0.2095845095027117L-161.38707074294112,0.20958450950272298L-157.3768674334478,1.9481905032691087z" style="fill:rgb(176,176,0)"/><path d="M-165.39727405243443,13.290758145262627L-163.55737714692734,15.029364139029019L-161.38707074294115,15.029364139029019z" style="fill:rgb(154,154,0)"/><path d="M-166.62665377146516,4.550197508601558L-168.7969605577043,4.550197508601558L-167.0583545639379,7.6194743242658705z" style="fill:rgb(106,106,0)"/><path d="M-156.1474877144171,4.550197508601558L-155.71578692194439,7.619474324265865L-153.36666412395454,7.619474324265865z" style="fill:rgb(127,127,0)"/><path d="M-167.0583545639379,7.6194743242658705L-169.40747736192773,7.619474324265865L-166.62665377146516,10.688751139930183z" style="fill:rgb(102,102,0)"/><path d="M-155.71578692194439,7.619474324265865L-156.1474877144171,10.688751139930183L-153.97718092817797,10.688751139930183z" style="fill:rgb(123,123,0)"/><path d="M-161.38707074294115,13.290758145262627L-161.38707074294115,15.029364139029019L-159.21676433895496,15.029364139029019z" style="fill:rgb(159,159,0)"/><path d="M-161.38707074294112,0.20958450950272298L-163.55737714692734,0.2095845095027117L-161.38707074294115,1.9481905032691031zM-163.55737714692734,0.2095845095027117L-165.39727405243445,1.9481905032691031L-161.38707074294115,1.9481905032691031z" style="fill:rgb(171,171,0)"/><path d="M-157.37686743344784,13.290758145262632L-161.38707074294115,13.290758145262627L-159.21676433895496,15.029364139029019z" style="fill:rgb(159,159,0)"/><path d="M-161.38707074294112,0.20958450950272298L-161.38707074294115,1.9481905032691031L-157.3768674334478,1.9481905032691087z" style="fill:rgb(176,176,0)"/><path d="M-161.38707074294115,13.290758145262627L-165.39727405243443,13.290758145262627L-161.38707074294115,15.029364139029019z" style="fill:rgb(154,154,0)"/><path d="M-157.3768674334478,1.9481905032691087L-161.38707074294115,1.9481905032691031L-156.1474877144171,4.550197508601558z" style="fill:rgb(249,249,0)"/><path d="M-166.62665377146516,10.688751139930183L-165.39727405243443,13.290758145262627L-161.38707074294115,13.290758145262627z" style="fill:rgb(230,230,0)"/><path d="M-165.39727405243445,1.9481905032691031L-166.62665377146516,4.550197508601558L-161.38707074294112,4.550197508601558z" style="fill:rgb(242,242,0)"/><path d="M-156.1474877144171,10.688751139930183L-161.38707074294115,10.688751139930183L-157.37686743344784,13.290758145262632zM-161.38707074294115,10.688751139930183L-161.38707074294115,13.290758145262627L-157.37686743344784,13.290758145262632z" style="fill:rgb(238,238,0)"/><path d="M-161.38707074294115,1.9481905032691031L-165.39727405243445,1.9481905032691031L-161.38707074294112,4.550197508601558z" style="fill:rgb(242,242,0)"/><path d="M-161.38707074294115,1.9481905032691031L-161.38707074294112,4.550197508601558L-156.1474877144171,4.550197508601558z" style="fill:rgb(249,249,0)"/><path d="M-156.1474877144171,4.550197508601558L-161.38707074294112,4.550197508601558L-155.71578692194439,7.619474324265865z" style="fill:rgb(283,283,0)"/><path d="M-167.0583545639379,7.6194743242658705L-166.62665377146516,10.688751139930183L-161.38707074294115,10.688751139930183z" style="fill:rgb(271,271,0)"/><path d="M-161.38707074294115,10.688751139930183L-166.62665377146516,10.688751139930183L-161.38707074294115,13.290758145262627z" style="fill:rgb(230,230,0)"/><path d="M-155.71578692194439,7.619474324265865L-161.38707074294112,7.619474324265865L-156.1474877144171,10.688751139930183z" style="fill:rgb(280,280,0)"/><path d="M-166.62665377146516,4.550197508601558L-167.0583545639379,7.6194743242658705L-161.38707074294112,7.619474324265865z" style="fill:rgb(275,275,0)"/><path d="M-161.38707074294112,7.619474324265865L-161.38707074294115,10.688751139930183L-156.1474877144171,10.688751139930183z" style="fill:rgb(280,280,0)"/><path d="M-161.38707074294112,4.550197508601558L-166.62665377146516,4.550197508601558L-161.38707074294112,7.619474324265865z" style="fill:rgb(275,275,0)"/><path d="M-161.38707074294112,7.619474324265865L-167.0583545639379,7.6194743242658705L-161.38707074294115,10.688751139930183z" style="fill:rgb(271,271,0)"/><path d="M-161.38707074294112,4.550197508601558L-161.38707074294112,7.619474324265865L-155.71578692194439,7.619474324265865z" style="fill:rgb(283,283,0)"/><path d="M-84.17435832675656,-23.076973470225855L-76.15395170776996,-23.076973470225855L-76.15395170776996,-30.739160570968295zM-76.15395170776996,-23.076973470225855L-68.13354508878335,-23.076973470225845L-68.13354508878335,-30.739160570968295zM-84.17435832675656,-30.739160570968295L-84.17435832675656,-23.076973470225855L-76.15395170776996,-30.739160570968295zM-76.15395170776996,-30.739160570968295L-76.15395170776996,-23.076973470225855L-68.13354508878335,-30.739160570968295zM-84.17435832675656,-30.739160570968295L-76.15395170776996,-30.739160570968295L-76.15395170776996,-38.401347671710724zM-76.15395170776996,-30.739160570968295L-68.13354508878335,-30.739160570968295L-68.13354508878335,-38.40134767171074zM-84.17435832675656,-38.40134767171074L-84.17435832675656,-30.739160570968295L-76.15395170776996,-38.401347671710724zM-76.15395170776996,-38.401347671710724L-76.15395170776996,-30.739160570968295L-68.13354508878335,-38.40134767171074z" style="fill:rgb(268,0,156)"/><path d="M-74.66882291636341,-71.52969503656433L-77.73809973202773,-70.9191782323409L-76.8391293203496,-70.91917823234088z" style="fill:rgb(30,0,17)"/><path d="M-74.66882291636341,-71.52969503656433L-72.49851651237724,-70.91917823234088L-71.59954610069909,-70.91917823234088z" style="fill:rgb(34,0,20)"/><path d="M-71.59954610069909,-70.91917823234088L-72.49851651237724,-70.91917823234088L-68.99753909536665,-69.1805722385745z" style="fill:rgb(77,0,45)"/><path d="M-80.34010673736017,-57.83800459658098L-77.73809973202773,-56.09939860281459L-76.8391293203496,-56.099398602814595z" style="fill:rgb(49,0,29)"/><path d="M-76.8391293203496,-56.099398602814595L-77.73809973202773,-56.09939860281459L-74.66882291636341,-55.48888179859114z" style="fill:rgb(11,0,6)"/><path d="M-71.59954610069909,-56.099398602814595L-72.49851651237724,-56.09939860281459L-74.66882291636341,-55.48888179859114z" style="fill:rgb(15,0,8)"/><path d="M-186.89942379536194,193.68135592662358L-178.8790171763753,193.68135592662355L-178.87901717637533,186.01916882588114zM-178.8790171763753,193.68135592662355L-170.85861055738872,193.68135592662355L-170.85861055738872,186.01916882588114z" style="fill:rgb(288,0,0)"/><path d="M-77.73809973202773,-70.9191782323409L-80.34010673736017,-69.18057223857451L-78.67902622585672,-69.1805722385745z" style="fill:rgb(66,0,38)"/><path d="M-68.99753909536665,-69.1805722385745L-70.6586196068701,-69.1805722385745L-67.25893310160025,-66.57856523324205z" style="fill:rgb(106,0,61)"/><path d="M-82.07871273112657,-60.440011601913426L-80.34010673736017,-57.83800459658098L-78.67902622585672,-57.83800459658098z" style="fill:rgb(78,0,45)"/><path d="M-68.99753909536665,-57.83800459658098L-70.6586196068701,-57.83800459658098L-71.59954610069909,-56.099398602814595z" style="fill:rgb(61,0,35)"/><path d="M-186.8994237953619,186.01916882588114L-186.89942379536194,193.68135592662358L-178.87901717637533,186.01916882588114zM-178.87901717637533,186.01916882588114L-178.8790171763753,193.68135592662355L-170.85861055738872,186.01916882588114z" style="fill:rgb(288,0,0)"/><path d="M-80.34010673736017,-69.18057223857451L-82.07871273112657,-66.57856523324205L-79.90840594488745,-66.57856523324205z" style="fill:rgb(89,0,52)"/><path d="M-67.25893310160025,-66.57856523324205L-69.42923988783937,-66.57856523324207L-66.64841629737681,-63.50928841757774z" style="fill:rgb(118,0,68)"/><path d="M-82.68922953535002,-63.50928841757774L-82.07871273112657,-60.440011601913426L-79.90840594488745,-60.440011601913426zM-67.25893310160025,-60.44001160191345L-69.42923988783937,-60.440011601913426L-68.99753909536665,-57.83800459658098z" style="fill:rgb(95,0,55)"/><path d="M-74.66882291636341,-71.52969503656433L-76.8391293203496,-70.91917823234088L-74.66882291636342,-70.91917823234088z" style="fill:rgb(64,0,37)"/><path d="M-74.66882291636341,-71.52969503656433L-74.66882291636342,-70.91917823234088L-72.49851651237724,-70.91917823234088z" style="fill:rgb(65,0,38)"/><path d="M-74.66882291636342,-56.09939860281459L-76.8391293203496,-56.099398602814595L-74.66882291636341,-55.48888179859114z" style="fill:rgb(44,0,25)"/><path d="M-72.49851651237724,-56.09939860281459L-74.66882291636342,-56.09939860281459L-74.66882291636341,-55.48888179859114z" style="fill:rgb(46,0,26)"/><path d="M-122.33726743205531,176.13082274249956L-125.40654424771964,176.74133954672305L-124.5075738360415,176.74133954672303z" style="fill:rgb(32,0,0)"/><path d="M-122.33726743205531,176.13082274249956L-120.16696102806912,176.74133954672303L-119.267990616391,176.74133954672303z" style="fill:rgb(37,0,0)"/><path d="M-119.267990616391,176.74133954672303L-120.16696102806912,176.74133954672303L-116.66598361105852,178.4799455404894z" style="fill:rgb(83,0,0)"/><path d="M-128.00855125305208,189.8225131824829L-125.4065442477196,191.56111917624932L-124.50757383604149,191.56111917624935z" style="fill:rgb(53,0,0)"/><path d="M-124.50757383604149,191.56111917624935L-125.4065442477196,191.56111917624932L-122.33726743205531,192.17163598047273z" style="fill:rgb(11,0,0)"/><path d="M-119.26799061639097,191.56111917624932L-120.16696102806911,191.56111917624935L-122.33726743205531,192.17163598047273z" style="fill:rgb(16,0,0)"/><path d="M-82.07871273112657,-66.57856523324205L-82.68922953535002,-63.50928841757774L-80.34010673736017,-63.50928841757774z" style="fill:rgb(99,0,57)"/><path d="M-66.64841629737681,-63.50928841757774L-68.99753909536665,-63.50928841757774L-67.25893310160025,-60.44001160191345z" style="fill:rgb(114,0,66)"/><path d="M-76.8391293203496,-70.91917823234088L-77.73809973202773,-70.9191782323409L-78.67902622585672,-69.1805722385745z" style="fill:rgb(66,0,38)"/><path d="M-72.49851651237724,-70.91917823234088L-70.6586196068701,-69.1805722385745L-68.99753909536665,-69.1805722385745z" style="fill:rgb(77,0,45)"/><path d="M-78.67902622585672,-57.83800459658098L-80.34010673736017,-57.83800459658098L-76.8391293203496,-56.099398602814595z" style="fill:rgb(49,0,29)"/><path d="M-70.6586196068701,-57.83800459658098L-72.49851651237724,-56.09939860281459L-71.59954610069909,-56.099398602814595z" style="fill:rgb(61,0,35)"/><path d="M-125.40654424771964,176.74133954672305L-128.00855125305208,178.47994554048944L-126.3474707415486,178.47994554048938z" style="fill:rgb(71,0,0)"/><path d="M-116.66598361105852,178.4799455404894L-118.327064122562,178.47994554048938L-114.92737761729215,181.08195254582185z" style="fill:rgb(114,0,0)"/><path d="M-129.74715724681846,187.2205061771505L-128.00855125305208,189.8225131824829L-126.34747074154859,189.82251318248294z" style="fill:rgb(84,0,0)"/><path d="M-116.66598361105852,189.8225131824829L-118.32706412256199,189.8225131824829L-119.26799061639097,191.56111917624932z" style="fill:rgb(65,0,0)"/><path d="M-128.00855125305208,178.47994554048944L-129.74715724681846,181.08195254582185L-127.57685046057934,181.08195254582188z" style="fill:rgb(96,0,0)"/><path d="M-114.92737761729215,181.08195254582185L-117.09768440353126,181.08195254582188L-114.3168608130687,184.15122936148617z" style="fill:rgb(127,0,0)"/><path d="M-130.3576740510419,184.15122936148617L-129.74715724681846,187.2205061771505L-127.57685046057934,187.22050617715047zM-114.92737761729214,187.2205061771505L-117.09768440353126,187.22050617715047L-116.66598361105852,189.8225131824829z" style="fill:rgb(102,0,0)"/><path d="M-122.33726743205531,176.13082274249956L-124.5075738360415,176.74133954672303L-122.3372674320553,176.741339546723z" style="fill:rgb(69,0,0)"/><path d="M-122.33726743205531,176.13082274249956L-122.3372674320553,176.741339546723L-120.16696102806912,176.74133954672303z" style="fill:rgb(70,0,0)"/><path d="M-122.3372674320553,191.56111917624932L-124.50757383604149,191.56111917624935L-122.33726743205531,192.17163598047273z" style="fill:rgb(48,0,0)"/><path d="M-120.16696102806911,191.56111917624935L-122.3372674320553,191.56111917624932L-122.33726743205531,192.17163598047273z" style="fill:rgb(49,0,0)"/><path d="M-129.74715724681846,181.08195254582185L-130.3576740510419,184.15122936148617L-128.00855125305208,184.15122936148617z" style="fill:rgb(106,0,0)"/><path d="M-114.3168608130687,184.15122936148617L-116.66598361105854,184.15122936148617L-114.92737761729214,187.2205061771505z" style="fill:rgb(123,0,0)"/><path d="M-78.67902622585672,-69.1805722385745L-80.34010673736017,-69.18057223857451L-79.90840594488745,-66.57856523324205z" style="fill:rgb(89,0,52)"/><path d="M-70.6586196068701,-69.1805722385745L-69.42923988783937,-66.57856523324207L-67.25893310160025,-66.57856523324205z" style="fill:rgb(106,0,61)"/><path d="M-79.90840594488745,-60.440011601913426L-82.07871273112657,-60.440011601913426L-78.67902622585672,-57.83800459658098z" style="fill:rgb(78,0,45)"/><path d="M-69.42923988783937,-60.440011601913426L-70.6586196068701,-57.83800459658098L-68.99753909536665,-57.83800459658098z" style="fill:rgb(95,0,55)"/><path d="M-72.49851651237724,-70.91917823234088L-74.66882291636342,-70.91917823234088L-70.6586196068701,-69.1805722385745z" style="fill:rgb(164,0,95)"/><path d="M-78.67902622585672,-57.83800459658098L-76.8391293203496,-56.099398602814595L-74.66882291636342,-56.09939860281459z" style="fill:rgb(143,0,83)"/><path d="M-186.8994237953619,186.01916882588114L-178.87901717637533,186.01916882588114L-178.8790171763753,178.3569817251387zM-178.87901717637533,186.01916882588114L-170.85861055738872,186.01916882588114L-170.85861055738872,178.35698172513867z" style="fill:rgb(288,0,0)"/><path d="M-124.5075738360415,176.74133954672303L-125.40654424771964,176.74133954672305L-126.3474707415486,178.47994554048938z" style="fill:rgb(71,0,0)"/><path d="M-120.16696102806912,176.74133954672303L-118.327064122562,178.47994554048938L-116.66598361105852,178.4799455404894z" style="fill:rgb(83,0,0)"/><path d="M-126.34747074154859,189.82251318248294L-128.00855125305208,189.8225131824829L-124.50757383604149,191.56111917624935z" style="fill:rgb(53,0,0)"/><path d="M-118.32706412256199,189.8225131824829L-120.16696102806911,191.56111917624935L-119.26799061639097,191.56111917624932z" style="fill:rgb(65,0,0)"/><path d="M-79.90840594488745,-66.57856523324205L-82.07871273112657,-66.57856523324205L-80.34010673736017,-63.50928841757774z" style="fill:rgb(99,0,57)"/><path d="M-69.42923988783937,-66.57856523324207L-68.99753909536665,-63.50928841757774L-66.64841629737681,-63.50928841757774z" style="fill:rgb(118,0,68)"/><path d="M-80.34010673736017,-63.50928841757774L-82.68922953535002,-63.50928841757774L-79.90840594488745,-60.440011601913426z" style="fill:rgb(95,0,55)"/><path d="M-68.99753909536665,-63.50928841757774L-69.42923988783937,-60.440011601913426L-67.25893310160025,-60.44001160191345z" style="fill:rgb(114,0,66)"/><path d="M-74.66882291636342,-70.91917823234088L-76.8391293203496,-70.91917823234088L-74.66882291636342,-69.1805722385745z" style="fill:rgb(159,0,92)"/><path d="M-74.66882291636342,-57.83800459658098L-74.66882291636342,-56.09939860281459L-72.49851651237724,-56.09939860281459z" style="fill:rgb(148,0,86)"/><path d="M-186.8994237953619,178.35698172513867L-186.8994237953619,186.01916882588114L-178.8790171763753,178.3569817251387zM-178.8790171763753,178.3569817251387L-178.87901717637533,186.01916882588114L-170.85861055738872,178.35698172513867z" style="fill:rgb(288,0,0)"/><path d="M-76.8391293203496,-70.91917823234088L-78.67902622585672,-69.1805722385745L-74.66882291636342,-69.1805722385745z" style="fill:rgb(159,0,92)"/><path d="M-70.6586196068701,-57.83800459658098L-74.66882291636342,-57.83800459658098L-72.49851651237724,-56.09939860281459z" style="fill:rgb(148,0,86)"/><path d="M-126.3474707415486,178.47994554048938L-128.00855125305208,178.47994554048944L-127.57685046057934,181.08195254582188z" style="fill:rgb(96,0,0)"/><path d="M-118.327064122562,178.47994554048938L-117.09768440353126,181.08195254582188L-114.92737761729215,181.08195254582185z" style="fill:rgb(114,0,0)"/><path d="M-127.57685046057934,187.22050617715047L-129.74715724681846,187.2205061771505L-126.34747074154859,189.82251318248294z" style="fill:rgb(84,0,0)"/><path d="M-117.09768440353126,187.22050617715047L-118.32706412256199,189.8225131824829L-116.66598361105852,189.8225131824829z" style="fill:rgb(102,0,0)"/><path d="M-120.16696102806912,176.74133954672303L-122.3372674320553,176.741339546723L-118.327064122562,178.47994554048938z" style="fill:rgb(176,0,0)"/><path d="M-126.34747074154859,189.82251318248294L-124.50757383604149,191.56111917624935L-122.3372674320553,191.56111917624932z" style="fill:rgb(154,0,0)"/><path d="M-74.66882291636342,-70.91917823234088L-74.66882291636342,-69.1805722385745L-70.6586196068701,-69.1805722385745z" style="fill:rgb(164,0,95)"/><path d="M-74.66882291636342,-57.83800459658098L-78.67902622585672,-57.83800459658098L-74.66882291636342,-56.09939860281459z" style="fill:rgb(143,0,83)"/><path d="M-128.00855125305208,184.15122936148617L-130.3576740510419,184.15122936148617L-127.57685046057934,187.22050617715047z" style="fill:rgb(102,0,0)"/><path d="M-127.57685046057934,181.08195254582188L-129.74715724681846,181.08195254582185L-128.00855125305208,184.15122936148617z" style="fill:rgb(106,0,0)"/><path d="M-117.09768440353126,181.08195254582188L-116.66598361105854,184.15122936148617L-114.3168608130687,184.15122936148617z" style="fill:rgb(127,0,0)"/><path d="M-116.66598361105854,184.15122936148617L-117.09768440353126,187.22050617715047L-114.92737761729214,187.2205061771505z" style="fill:rgb(123,0,0)"/><path d="M-122.3372674320553,189.82251318248294L-122.3372674320553,191.56111917624932L-120.16696102806911,191.56111917624935z" style="fill:rgb(159,0,0)"/><path d="M-122.3372674320553,176.741339546723L-124.5075738360415,176.74133954672303L-122.33726743205528,178.4799455404894z" style="fill:rgb(171,0,0)"/><path d="M-70.6586196068701,-69.1805722385745L-74.66882291636342,-69.1805722385745L-69.42923988783937,-66.57856523324207z" style="fill:rgb(231,0,135)"/><path d="M-79.90840594488745,-60.440011601913426L-78.67902622585672,-57.83800459658098L-74.66882291636342,-57.83800459658098z" style="fill:rgb(214,0,124)"/><path d="M-124.5075738360415,176.74133954672303L-126.3474707415486,178.47994554048938L-122.33726743205528,178.4799455404894z" style="fill:rgb(171,0,0)"/><path d="M-118.32706412256199,189.8225131824829L-122.3372674320553,189.82251318248294L-120.16696102806911,191.56111917624935z" style="fill:rgb(159,0,0)"/><path d="M-122.3372674320553,176.741339546723L-122.33726743205528,178.4799455404894L-118.327064122562,178.47994554048938z" style="fill:rgb(176,0,0)"/><path d="M-122.3372674320553,189.82251318248294L-126.34747074154859,189.82251318248294L-122.3372674320553,191.56111917624932z" style="fill:rgb(154,0,0)"/><path d="M-78.67902622585672,-69.1805722385745L-79.90840594488745,-66.57856523324205L-74.66882291636341,-66.57856523324207z" style="fill:rgb(225,0,131)"/><path d="M-69.42923988783937,-60.440011601913426L-74.66882291636342,-60.44001160191345L-70.6586196068701,-57.83800459658098z" style="fill:rgb(221,0,128)"/><path d="M-74.66882291636342,-69.1805722385745L-78.67902622585672,-69.1805722385745L-74.66882291636341,-66.57856523324207z" style="fill:rgb(225,0,131)"/><path d="M-74.66882291636342,-60.44001160191345L-74.66882291636342,-57.83800459658098L-70.6586196068701,-57.83800459658098z" style="fill:rgb(221,0,128)"/><path d="M-127.57685046057934,187.22050617715047L-126.34747074154859,189.82251318248294L-122.3372674320553,189.82251318248294z" style="fill:rgb(230,0,0)"/><path d="M-118.327064122562,178.47994554048938L-122.33726743205528,178.4799455404894L-117.09768440353126,181.08195254582188z" style="fill:rgb(249,0,0)"/><path d="M-74.66882291636342,-69.1805722385745L-74.66882291636341,-66.57856523324207L-69.42923988783937,-66.57856523324207z" style="fill:rgb(231,0,135)"/><path d="M-69.42923988783937,-66.57856523324207L-74.66882291636341,-66.57856523324207L-68.99753909536665,-63.50928841757774z" style="fill:rgb(263,0,153)"/><path d="M-80.34010673736017,-63.50928841757774L-79.90840594488745,-60.440011601913426L-74.66882291636342,-60.44001160191345z" style="fill:rgb(252,0,146)"/><path d="M-74.66882291636342,-60.44001160191345L-79.90840594488745,-60.440011601913426L-74.66882291636342,-57.83800459658098z" style="fill:rgb(214,0,124)"/><path d="M-79.90840594488745,-66.57856523324205L-80.34010673736017,-63.50928841757774L-74.66882291636342,-63.50928841757774z" style="fill:rgb(255,0,149)"/><path d="M-68.99753909536665,-63.50928841757774L-74.66882291636342,-63.50928841757774L-69.42923988783937,-60.440011601913426z" style="fill:rgb(260,0,151)"/><path d="M-126.3474707415486,178.47994554048938L-127.57685046057934,181.08195254582188L-122.3372674320553,181.08195254582188z" style="fill:rgb(242,0,0)"/><path d="M-117.09768440353126,187.22050617715047L-122.3372674320553,187.2205061771505L-118.32706412256199,189.8225131824829z" style="fill:rgb(238,0,0)"/><path d="M-122.33726743205528,178.4799455404894L-126.3474707415486,178.47994554048938L-122.3372674320553,181.08195254582188z" style="fill:rgb(242,0,0)"/><path d="M-122.3372674320553,187.2205061771505L-122.3372674320553,189.82251318248294L-118.32706412256199,189.8225131824829z" style="fill:rgb(238,0,0)"/><path d="M-74.66882291636341,-66.57856523324207L-79.90840594488745,-66.57856523324205L-74.66882291636342,-63.50928841757774z" style="fill:rgb(255,0,149)"/><path d="M-74.66882291636342,-63.50928841757774L-74.66882291636342,-60.44001160191345L-69.42923988783937,-60.440011601913426z" style="fill:rgb(260,0,151)"/><path d="M-74.66882291636341,-66.57856523324207L-74.66882291636342,-63.50928841757774L-68.99753909536665,-63.50928841757774z" style="fill:rgb(263,0,153)"/><path d="M-74.66882291636342,-63.50928841757774L-80.34010673736017,-63.50928841757774L-74.66882291636342,-60.44001160191345z" style="fill:rgb(252,0,146)"/><path d="M-122.33726743205528,178.4799455404894L-122.3372674320553,181.08195254582188L-117.09768440353126,181.08195254582188z" style="fill:rgb(249,0,0)"/><path d="M-117.09768440353126,181.08195254582188L-122.3372674320553,181.08195254582188L-116.66598361105854,184.15122936148617z" style="fill:rgb(283,0,0)"/><path d="M-128.00855125305208,184.15122936148617L-127.57685046057934,187.22050617715047L-122.3372674320553,187.2205061771505z" style="fill:rgb(271,0,0)"/><path d="M-122.3372674320553,187.2205061771505L-127.57685046057934,187.22050617715047L-122.3372674320553,189.82251318248294z" style="fill:rgb(230,0,0)"/><path d="M-127.57685046057934,181.08195254582188L-128.00855125305208,184.15122936148617L-122.3372674320553,184.15122936148617z" style="fill:rgb(275,0,0)"/><path d="M-116.66598361105854,184.15122936148617L-122.3372674320553,184.15122936148617L-117.09768440353126,187.22050617715047z" style="fill:rgb(280,0,0)"/><path d="M-122.3372674320553,181.08195254582188L-127.57685046057934,181.08195254582188L-122.3372674320553,184.15122936148617z" style="fill:rgb(275,0,0)"/><path d="M-122.3372674320553,184.15122936148617L-122.3372674320553,187.2205061771505L-117.09768440353126,187.22050617715047z" style="fill:rgb(280,0,0)"/><path d="M-122.3372674320553,184.15122936148617L-128.00855125305208,184.15122936148617L-122.3372674320553,187.2205061771505z" style="fill:rgb(271,0,0)"/><text x="-225.59146830753446" y="204.13600958769038" z="-0.9954075965217969" font-family="Verdana" font-size="8" fill="rgb(0,0,0)">Axis 3 (10.35 %)</text><path d="M-122.3372674320553,181.08195254582188L-122.3372674320553,184.15122936148617L-116.66598361105854,184.15122936148617z" style="fill:rgb(283,0,0)"/><path d="M-2.024578454433581,89.77869704283074L5.995828164553019,89.77869704283074L5.995828164553019,82.11650994208833zM5.995828164553019,89.77869704283074L14.016234783539609,89.77869704283076L14.016234783539618,82.11650994208833zM-2.024578454433581,82.11650994208833L-2.024578454433581,89.77869704283074L5.995828164553019,82.11650994208833zM5.995828164553019,82.11650994208833L5.995828164553019,89.77869704283074L14.016234783539618,82.11650994208833z" style="fill:rgb(164,44,159)"/><path d="M29.871280295300014,93.69757258558508L26.802003479635687,94.30808938980852L27.700973891313815,94.30808938980852z" style="fill:rgb(18,5,18)"/><path d="M29.871280295300014,93.69757258558508L32.04158669928619,94.30808938980852L32.94055711096432,94.30808938980852z" style="fill:rgb(21,5,20)"/><path d="M32.94055711096432,94.30808938980852L32.04158669928619,94.30808938980852L35.54256411629679,96.04669538357491z" style="fill:rgb(47,12,46)"/><path d="M24.199996474303237,107.38926302556844L26.802003479635694,109.12786901933482L27.700973891313826,109.12786901933482z" style="fill:rgb(30,8,29)"/><path d="M27.700973891313826,109.12786901933482L26.802003479635694,109.12786901933482L29.871280295300004,109.73838582355826z" style="fill:rgb(6,1,6)"/><path d="M32.94055711096433,109.12786901933482L32.04158669928619,109.12786901933482L29.871280295300004,109.73838582355826z" style="fill:rgb(9,2,9)"/><path d="M26.802003479635687,94.30808938980852L24.199996474303237,96.04669538357491L25.861076985806704,96.04669538357491z" style="fill:rgb(40,10,39)"/><path d="M35.54256411629679,96.04669538357491L33.88148360479331,96.04669538357491L37.28117011006315,98.64870238890735z" style="fill:rgb(64,17,63)"/><path d="M22.461390480536856,104.78725602023599L24.199996474303237,107.38926302556844L25.861076985806704,107.38926302556844z" style="fill:rgb(48,12,46)"/><path d="M35.54256411629677,107.38926302556844L33.88148360479331,107.38926302556844L32.94055711096433,109.12786901933482z" style="fill:rgb(37,10,36)"/><path d="M24.199996474303237,96.04669538357491L22.461390480536846,98.64870238890735L24.63169726677597,98.64870238890735z" style="fill:rgb(54,14,53)"/><path d="M37.28117011006315,98.64870238890735L35.11086332382405,98.64870238890735L37.89168691428662,101.71797920457168z" style="fill:rgb(72,19,70)"/><path d="M21.850873676313395,101.71797920457168L22.461390480536856,104.78725602023599L24.63169726677597,104.78725602023599zM37.28117011006317,104.78725602023599L35.11086332382405,104.78725602023599L35.54256411629677,107.38926302556844z" style="fill:rgb(58,15,56)"/><path d="M29.871280295300014,93.69757258558508L27.700973891313815,94.30808938980852L29.871280295300004,94.30808938980853z" style="fill:rgb(39,10,38)"/><path d="M29.871280295300004,109.12786901933482L27.700973891313826,109.12786901933482L29.871280295300004,109.73838582355826z" style="fill:rgb(27,7,26)"/><path d="M32.04158669928619,109.12786901933482L29.871280295300004,109.12786901933482L29.871280295300004,109.73838582355826z" style="fill:rgb(28,7,27)"/><path d="M29.871280295300014,93.69757258558508L29.871280295300004,94.30808938980853L32.04158669928619,94.30808938980852z" style="fill:rgb(40,10,39)"/><path d="M-2.024578454433581,82.11650994208833L5.995828164553019,82.11650994208833L5.995828164553019,74.4543228413459zM5.995828164553019,82.11650994208833L14.016234783539618,82.11650994208833L14.016234783539618,74.4543228413459z" style="fill:rgb(164,44,159)"/><path d="M22.461390480536846,98.64870238890735L21.850873676313395,101.71797920457168L24.199996474303244,101.71797920457166z" style="fill:rgb(60,16,58)"/><path d="M37.89168691428662,101.71797920457168L35.54256411629677,101.71797920457168L37.28117011006317,104.78725602023599z" style="fill:rgb(70,18,68)"/><path d="M27.700973891313815,94.30808938980852L26.802003479635687,94.30808938980852L25.861076985806704,96.04669538357491z" style="fill:rgb(40,10,39)"/><path d="M32.04158669928619,94.30808938980852L33.88148360479331,96.04669538357491L35.54256411629679,96.04669538357491z" style="fill:rgb(47,12,46)"/><path d="M25.861076985806704,107.38926302556844L24.199996474303237,107.38926302556844L27.700973891313826,109.12786901933482z" style="fill:rgb(30,8,29)"/><path d="M33.88148360479331,107.38926302556844L32.04158669928619,109.12786901933482L32.94055711096433,109.12786901933482z" style="fill:rgb(37,10,36)"/><path d="M-2.024578454433581,74.4543228413459L-2.024578454433581,82.11650994208833L5.995828164553019,74.4543228413459zM5.995828164553019,74.4543228413459L5.995828164553019,82.11650994208833L14.016234783539618,74.4543228413459z" style="fill:rgb(164,44,159)"/><path d="M25.861076985806704,96.04669538357491L24.199996474303237,96.04669538357491L24.63169726677597,98.64870238890735z" style="fill:rgb(54,14,53)"/><path d="M33.88148360479331,96.04669538357491L35.11086332382405,98.64870238890735L37.28117011006315,98.64870238890735z" style="fill:rgb(64,17,63)"/><path d="M24.63169726677597,104.78725602023599L22.461390480536856,104.78725602023599L25.861076985806704,107.38926302556844z" style="fill:rgb(48,12,46)"/><path d="M35.11086332382405,104.78725602023599L33.88148360479331,107.38926302556844L35.54256411629677,107.38926302556844z" style="fill:rgb(58,15,56)"/><path d="M32.04158669928619,94.30808938980852L29.871280295300004,94.30808938980853L33.88148360479331,96.04669538357491z" style="fill:rgb(100,27,97)"/><path d="M25.861076985806704,107.38926302556844L27.700973891313826,109.12786901933482L29.871280295300004,109.12786901933482z" style="fill:rgb(87,23,85)"/><path d="M24.63169726677597,98.64870238890735L22.461390480536846,98.64870238890735L24.199996474303244,101.71797920457166z" style="fill:rgb(60,16,58)"/><path d="M35.11086332382405,98.64870238890735L35.54256411629677,101.71797920457168L37.89168691428662,101.71797920457168z" style="fill:rgb(72,19,70)"/><path d="M24.199996474303244,101.71797920457166L21.850873676313395,101.71797920457168L24.63169726677597,104.78725602023599z" style="fill:rgb(58,15,56)"/><path d="M35.54256411629677,101.71797920457168L35.11086332382405,104.78725602023599L37.28117011006317,104.78725602023599z" style="fill:rgb(70,18,68)"/><path d="M29.871280295300004,94.30808938980853L27.700973891313815,94.30808938980852L29.871280295300014,96.0466953835749z" style="fill:rgb(97,26,94)"/><path d="M29.871280295300014,107.38926302556844L29.871280295300004,109.12786901933482L32.04158669928619,109.12786901933482z" style="fill:rgb(90,24,88)"/><path d="M27.700973891313815,94.30808938980852L25.861076985806704,96.04669538357491L29.871280295300014,96.0466953835749z" style="fill:rgb(97,26,94)"/><path d="M33.88148360479331,107.38926302556844L29.871280295300014,107.38926302556844L32.04158669928619,109.12786901933482z" style="fill:rgb(90,24,88)"/><path d="M29.871280295300004,94.30808938980853L29.871280295300014,96.0466953835749L33.88148360479331,96.04669538357491z" style="fill:rgb(100,27,97)"/><path d="M29.871280295300014,107.38926302556844L25.861076985806704,107.38926302556844L29.871280295300004,109.12786901933482z" style="fill:rgb(87,23,85)"/><path d="M33.88148360479331,96.04669538357491L29.871280295300014,96.0466953835749L35.11086332382405,98.64870238890735z" style="fill:rgb(141,38,138)"/><path d="M24.63169726677597,104.78725602023599L25.861076985806704,107.38926302556844L29.871280295300014,107.38926302556844z" style="fill:rgb(131,35,127)"/><path d="M25.861076985806704,96.04669538357491L24.63169726677597,98.64870238890735L29.871280295300004,98.64870238890735z" style="fill:rgb(137,37,133)"/><path d="M35.11086332382405,104.78725602023599L29.871280295300014,104.78725602023599L33.88148360479331,107.38926302556844z" style="fill:rgb(135,36,131)"/><path d="M29.871280295300014,96.0466953835749L25.861076985806704,96.04669538357491L29.871280295300004,98.64870238890735z" style="fill:rgb(137,37,133)"/><path d="M29.871280295300014,104.78725602023599L29.871280295300014,107.38926302556844L33.88148360479331,107.38926302556844z" style="fill:rgb(135,36,131)"/><path d="M35.11086332382405,98.64870238890735L29.871280295300004,98.64870238890735L35.54256411629677,101.71797920457168z" style="fill:rgb(161,43,156)"/><path d="M24.199996474303244,101.71797920457166L24.63169726677597,104.78725602023599L29.871280295300014,104.78725602023599z" style="fill:rgb(154,41,150)"/><path d="M29.871280295300014,104.78725602023599L24.63169726677597,104.78725602023599L29.871280295300014,107.38926302556844z" style="fill:rgb(131,35,127)"/><path d="M29.871280295300014,96.0466953835749L29.871280295300004,98.64870238890735L35.11086332382405,98.64870238890735z" style="fill:rgb(141,38,138)"/><path d="M24.63169726677597,98.64870238890735L24.199996474303244,101.71797920457166L29.871280295300014,101.71797920457166z" style="fill:rgb(156,42,152)"/><path d="M35.54256411629677,101.71797920457168L29.871280295300014,101.71797920457166L35.11086332382405,104.78725602023599z" style="fill:rgb(159,42,154)"/><path d="M29.871280295300004,98.64870238890735L24.63169726677597,98.64870238890735L29.871280295300014,101.71797920457166z" style="fill:rgb(156,42,152)"/><path d="M29.871280295300014,101.71797920457166L29.871280295300014,104.78725602023599L35.11086332382405,104.78725602023599z" style="fill:rgb(159,42,154)"/><path d="M29.871280295300004,98.64870238890735L29.871280295300014,101.71797920457166L35.54256411629677,101.71797920457168z" style="fill:rgb(161,43,156)"/><path d="M29.871280295300014,101.71797920457166L24.199996474303244,101.71797920457166L29.871280295300014,104.78725602023599z" style="fill:rgb(154,41,150)"/><path d="M201.27528045942896,16.435175353510658L198.20600364376463,17.045692157734116L199.10497405544274,17.04569215773411z" style="fill:rgb(31,14,0)"/><path d="M201.27528045942896,16.435175353510658L203.4455868634152,17.045692157734116L204.34455727509328,17.04569215773411z" style="fill:rgb(35,16,0)"/><path d="M204.34455727509328,17.04569215773411L203.4455868634152,17.045692157734116L206.94656428042572,18.784298151500508z" style="fill:rgb(79,37,1)"/><path d="M195.6039966384322,30.12686579349403L198.2060036437646,31.86547178726042L199.10497405544274,31.865471787260418z" style="fill:rgb(50,24,0)"/><path d="M199.10497405544274,31.865471787260418L198.2060036437646,31.86547178726042L201.27528045942896,32.47598859148387z" style="fill:rgb(11,5,0)"/><path d="M204.34455727509328,31.865471787260418L203.44558686341514,31.865471787260418L201.27528045942896,32.47598859148387z" style="fill:rgb(15,7,0)"/><path d="M198.20600364376463,17.045692157734116L195.6039966384322,18.784298151500508L197.26507714993565,18.784298151500508z" style="fill:rgb(67,32,1)"/><path d="M206.94656428042572,18.784298151500508L205.28548376892223,18.784298151500508L208.6851702741921,21.38630515683295z" style="fill:rgb(108,51,1)"/><path d="M193.8653906446658,27.52485878816158L195.6039966384322,30.12686579349403L197.26507714993565,30.126865793494026z" style="fill:rgb(80,38,1)"/><path d="M206.94656428042575,30.12686579349403L205.28548376892226,30.126865793494026L204.34455727509328,31.865471787260418z" style="fill:rgb(62,29,1)"/><path d="M195.6039966384322,18.784298151500508L193.8653906446658,21.386305156832954L196.03569743090492,21.38630515683295z" style="fill:rgb(91,43,1)"/><path d="M208.6851702741921,21.38630515683295L206.51486348795302,21.38630515683295L209.29568707841554,24.45558197249727z" style="fill:rgb(120,57,1)"/><path d="M193.25487384044234,24.455581972497264L193.8653906446658,27.52485878816158L196.03569743090492,27.524858788161577zM208.6851702741921,27.52485878816158L206.51486348795297,27.524858788161577L206.94656428042575,30.12686579349403z" style="fill:rgb(97,46,1)"/><path d="M201.27528045942896,16.435175353510658L199.10497405544274,17.04569215773411L201.27528045942893,17.045692157734116z" style="fill:rgb(65,31,1)"/><path d="M201.27528045942896,16.435175353510658L201.27528045942893,17.045692157734116L203.4455868634152,17.045692157734116z" style="fill:rgb(67,31,1)"/><path d="M201.27528045942893,31.865471787260418L199.10497405544274,31.865471787260418L201.27528045942896,32.47598859148387z" style="fill:rgb(45,21,0)"/><path d="M203.44558686341514,31.865471787260418L201.27528045942893,31.865471787260418L201.27528045942896,32.47598859148387z" style="fill:rgb(47,22,0)"/><path d="M193.8653906446658,21.386305156832954L193.25487384044234,24.455581972497264L195.6039966384322,24.455581972497267z" style="fill:rgb(101,48,1)"/><path d="M209.29568707841554,24.45558197249727L206.94656428042572,24.45558197249727L208.6851702741921,27.52485878816158z" style="fill:rgb(117,55,1)"/><path d="M199.10497405544274,17.04569215773411L198.20600364376463,17.045692157734116L197.26507714993565,18.784298151500508z" style="fill:rgb(67,32,1)"/><path d="M203.4455868634152,17.045692157734116L205.28548376892223,18.784298151500508L206.94656428042572,18.784298151500508z" style="fill:rgb(79,37,1)"/><path d="M205.28548376892226,30.126865793494026L203.44558686341514,31.865471787260418L204.34455727509328,31.865471787260418z" style="fill:rgb(62,29,1)"/><path d="M197.26507714993565,30.126865793494026L195.6039966384322,30.12686579349403L199.10497405544274,31.865471787260418z" style="fill:rgb(50,24,0)"/><path d="M195.2135890845924,13.328731944321985L203.233995703579,13.328731944321985L203.233995703579,5.666544843579551zM203.233995703579,13.328731944321985L211.2544023225656,13.328731944321985L211.2544023225656,5.666544843579551z" style="fill:rgb(274,130,4)"/><path d="M205.28548376892223,18.784298151500508L206.51486348795302,21.38630515683295L208.6851702741921,21.38630515683295z" style="fill:rgb(108,51,1)"/><path d="M196.03569743090492,27.524858788161577L193.8653906446658,27.52485878816158L197.26507714993565,30.126865793494026z" style="fill:rgb(80,38,1)"/><path d="M206.51486348795297,27.524858788161577L205.28548376892226,30.126865793494026L206.94656428042575,30.12686579349403z" style="fill:rgb(97,46,1)"/><path d="M197.26507714993565,18.784298151500508L195.6039966384322,18.784298151500508L196.03569743090492,21.38630515683295z" style="fill:rgb(91,43,1)"/><path d="M203.4455868634152,17.045692157734116L201.27528045942893,17.045692157734116L205.28548376892223,18.784298151500508z" style="fill:rgb(167,79,2)"/><path d="M197.26507714993565,30.126865793494026L199.10497405544274,31.865471787260418L201.27528045942893,31.865471787260418z" style="fill:rgb(146,69,2)"/><path d="M195.2135890845924,5.666544843579551L195.2135890845924,13.328731944321985L203.233995703579,5.666544843579551zM203.233995703579,5.666544843579551L203.233995703579,13.328731944321985L211.2544023225656,5.666544843579551z" style="fill:rgb(274,130,4)"/><path d="M196.03569743090492,21.38630515683295L193.8653906446658,21.386305156832954L195.6039966384322,24.455581972497267z" style="fill:rgb(101,48,1)"/><path d="M206.51486348795302,21.38630515683295L206.94656428042572,24.45558197249727L209.29568707841554,24.45558197249727z" style="fill:rgb(120,57,1)"/><path d="M195.6039966384322,24.455581972497267L193.25487384044234,24.455581972497264L196.03569743090492,27.524858788161577z" style="fill:rgb(97,46,1)"/><path d="M206.94656428042572,24.45558197249727L206.51486348795297,27.524858788161577L208.6851702741921,27.52485878816158z" style="fill:rgb(117,55,1)"/><path d="M201.27528045942893,17.045692157734116L199.10497405544274,17.04569215773411L201.27528045942896,18.7842981515005z" style="fill:rgb(162,77,2)"/><path d="M201.27528045942896,30.126865793494026L201.27528045942893,31.865471787260418L203.44558686341514,31.865471787260418z" style="fill:rgb(151,71,2)"/><path d="M199.10497405544274,17.04569215773411L197.26507714993565,18.784298151500508L201.27528045942896,18.7842981515005z" style="fill:rgb(162,77,2)"/><path d="M205.28548376892226,30.126865793494026L201.27528045942896,30.126865793494026L203.44558686341514,31.865471787260418z" style="fill:rgb(151,71,2)"/><path d="M201.27528045942893,17.045692157734116L201.27528045942896,18.7842981515005L205.28548376892223,18.784298151500508z" style="fill:rgb(167,79,2)"/><path d="M201.27528045942896,30.126865793494026L197.26507714993565,30.126865793494026L201.27528045942893,31.865471787260418z" style="fill:rgb(146,69,2)"/><path d="M195.2135890845924,5.666544843579551L203.233995703579,5.666544843579551L203.233995703579,-1.9956422571628711zM203.233995703579,5.666544843579551L211.2544023225656,5.666544843579551L211.25440232256565,-1.995642257162877z" style="fill:rgb(274,130,4)"/><path d="M205.28548376892223,18.784298151500508L201.27528045942896,18.7842981515005L206.51486348795302,21.38630515683295z" style="fill:rgb(236,112,3)"/><path d="M196.03569743090492,27.524858788161577L197.26507714993565,30.126865793494026L201.27528045942896,30.126865793494026z" style="fill:rgb(219,104,3)"/><path d="M197.26507714993565,18.784298151500508L196.03569743090492,21.38630515683295L201.27528045942896,21.386305156832947z" style="fill:rgb(229,109,3)"/><path d="M206.51486348795297,27.524858788161577L201.27528045942896,27.52485878816158L205.28548376892226,30.126865793494026z" style="fill:rgb(226,107,3)"/><path d="M195.21358908459246,-1.995642257162877L195.2135890845924,5.666544843579551L203.233995703579,-1.9956422571628711zM203.233995703579,-1.9956422571628711L203.233995703579,5.666544843579551L211.25440232256565,-1.995642257162877z" style="fill:rgb(274,130,4)"/><path d="M201.27528045942896,18.7842981515005L197.26507714993565,18.784298151500508L201.27528045942896,21.386305156832947z" style="fill:rgb(229,109,3)"/><path d="M201.27528045942896,27.52485878816158L201.27528045942896,30.126865793494026L205.28548376892226,30.126865793494026z" style="fill:rgb(226,107,3)"/><path d="M201.27528045942896,18.7842981515005L201.27528045942896,21.386305156832947L206.51486348795302,21.38630515683295z" style="fill:rgb(236,112,3)"/><path d="M206.51486348795302,21.38630515683295L201.27528045942896,21.386305156832947L206.94656428042572,24.45558197249727z" style="fill:rgb(269,128,4)"/><path d="M195.6039966384322,24.455581972497267L196.03569743090492,27.524858788161577L201.27528045942896,27.52485878816158z" style="fill:rgb(257,122,4)"/><path d="M201.27528045942896,27.52485878816158L196.03569743090492,27.524858788161577L201.27528045942896,30.126865793494026z" style="fill:rgb(219,104,3)"/><path d="M196.03569743090492,21.38630515683295L195.6039966384322,24.455581972497267L201.27528045942896,24.455581972497257z" style="fill:rgb(261,124,4)"/><path d="M206.94656428042572,24.45558197249727L201.27528045942896,24.455581972497257L206.51486348795297,27.524858788161577z" style="fill:rgb(265,126,4)"/><path d="M201.27528045942896,21.386305156832947L196.03569743090492,21.38630515683295L201.27528045942896,24.455581972497257z" style="fill:rgb(261,124,4)"/><path d="M201.27528045942896,24.455581972497257L201.27528045942896,27.52485878816158L206.51486348795297,27.524858788161577z" style="fill:rgb(265,126,4)"/><path d="M201.27528045942896,21.386305156832947L201.27528045942896,24.455581972497257L206.94656428042572,24.45558197249727z" style="fill:rgb(269,128,4)"/><path d="M201.27528045942896,24.455581972497257L195.6039966384322,24.455581972497267L201.27528045942896,27.52485878816158z" style="fill:rgb(257,122,4)"/></svg>