<svg xmlns="http://www.w3.org/2000/svg" width="552" height="711"><g><rect height="27" width="27" y="1" x="5" style="stroke-width:1;stroke:rgb(0,0,0)" fill="#ff0000"/><text xml:space="preserve" y="21" x="40" font-size="12" stroke-width="0" stroke="#000000" fill="#000000">stool.ASD.12.2</text><rect height="27" width="27" y="41" x="5" style="stroke-width:1;stroke:rgb(0,0,0)" fill="#ff0000"/><text xml:space="preserve" y="61" x="40" font-size="12" stroke-width="0" stroke="#000000" fill="#000000">stool.ASD.12.2.ASU</text><rect height="27" width="27" y="81" x="5" style="stroke-width:1;stroke:rgb(0,0,0)" fill="#f27304"/><text xml:space="preserve" y="101" x="40" font-size="12" stroke-width="0" stroke="#000000" fill="#000000">stool.ASD.14.4</text><rect height="27" width="27" y="121" x="5" style="stroke-width:1;stroke:rgb(0,0,0)" fill="#f27304"/><text xml:space="preserve" y="141" x="40" font-size="12" stroke-width="0" stroke="#000000" fill="#000000">stool.ASD.14.4.ASU</text><rect height="27" width="27" y="161" x="5" style="stroke-width:1;stroke:rgb(0,0,0)" fill="#91278d"/><text xml:space="preserve" y="181" x="40" font-size="12" stroke-width="0" stroke="#000000" fill="#000000">stool.ASD.22.4</text><rect height="27" width="27" y="201" x="5" style="stroke-width:1;stroke:rgb(0,0,0)" fill="#91278d"/><text xml:space="preserve" y="221" x="40" font-size="12" stroke-width="0" stroke="#000000" fill="#000000">stool.ASD.22.4.ASU</text><rect height="27" width="27" y="241" x="5" style="stroke-width:1;stroke:rgb(0,0,0)" fill="#ed008a"/><text xml:space="preserve" y="261" x="40" font-size="12" stroke-width="0" stroke="#000000" fill="#000000">stool.ASD.24.1</text><rect height="27" width="27" y="281" x="5" style="stroke-width:1;stroke:rgb(0,0,0)" fill="#ed008a"/><text xml:space="preserve" y="301" x="40" font-size="12" stroke-width="0" stroke="#000000" fill="#000000">stool.ASD.24.1.ASU</text><rect height="27" width="27" y="321" x="5" style="stroke-width:1;stroke:rgb(0,0,0)" fill="#008080"/><text xml:space="preserve" y="341" x="40" font-size="12" stroke-width="0" stroke="#000000" fill="#000000">stool.ASD.27.4</text><rect height="27" width="27" y="361" x="5" style="stroke-width:1;stroke:rgb(0,0,0)" fill="#008080"/><text xml:space="preserve" y="381" x="40" font-size="12" stroke-width="0" stroke="#000000" fill="#000000">stool.ASD.27.4.ASU</text><rect height="27" width="27" y="401" x="5" style="stroke-width:1;stroke:rgb(0,0,0)" fill="#c49c6b"/><text xml:space="preserve" y="421" x="40" font-size="12" stroke-width="0" stroke="#000000" fill="#000000">stool.ASD.7.4</text><rect height="27" width="27" y="441" x="5" style="stroke-width:1;stroke:rgb(0,0,0)" fill="#c49c6b"/><text xml:space="preserve" y="461" x="40" font-size="12" stroke-width="0" stroke="#000000" fill="#000000">stool.ASD.7.4.ASU</text><rect height="27" width="27" y="481" x="5" style="stroke-width:1;stroke:rgb(0,0,0)" fill="#00b6ff"/><text xml:space="preserve" y="501" x="40" font-size="12" stroke-width="0" stroke="#000000" fill="#000000">stool.control.15S.4</text><rect height="27" width="27" y="521" x="5" style="stroke-width:1;stroke:rgb(0,0,0)" fill="#00b6ff"/><text xml:space="preserve" y="541" x="40" font-size="12" stroke-width="0" stroke="#000000" fill="#000000">stool.control.15S.4.ASU</text><rect height="27" width="27" y="561" x="5" style="stroke-width:1;stroke:rgb(0,0,0)" fill="#008000"/><text xml:space="preserve" y="581" x="40" font-size="12" stroke-width="0" stroke="#000000" fill="#000000">stool.control.26S.1</text><rect height="27" width="27" y="601" x="5" style="stroke-width:1;stroke:rgb(0,0,0)" fill="#008000"/><text xml:space="preserve" y="621" x="40" font-size="12" stroke-width="0" stroke="#000000" fill="#000000">stool.control.26S.1.ASU</text><rect height="27" width="27" y="641" x="5" style="stroke-width:1;stroke:rgb(0,0,0)" fill="#ffff00"/><text xml:space="preserve" y="661" x="40" font-size="12" stroke-width="0" stroke="#000000" fill="#000000">stool.control.32C.1</text><rect height="27" width="27" y="681" x="5" style="stroke-width:1;stroke:rgb(0,0,0)" fill="#ffff00"/><text xml:space="preserve" y="701" x="40" font-size="12" stroke-width="0" stroke="#000000" fill="#000000">stool.control.32C.1.ASU</text></g></svg>